<?xml version="1.0" encoding="UTF-8"?>
<svg id="Layer_2" data-name="Layer 2" xmlns="http://www.w3.org/2000/svg" xmlns:xlink="http://www.w3.org/1999/xlink" viewBox="0 0 230.88 288.01">
  <defs>
    <style>
      .cls-1 {
        fill: url(#linear-gradient);
      }

      .cls-1, .cls-2, .cls-3, .cls-4 {
        stroke: #939494;
      }

      .cls-2 {
        fill: url(#linear-gradient-2);
      }

      .cls-3 {
        fill: #f3f3f3;
      }

      .cls-4 {
        fill: #f9f9fa;
      }
    </style>
    <linearGradient id="linear-gradient" x1="160.29" y1="835.42" x2="151.03" y2="849.3" gradientTransform="translate(-6.06 883.02) scale(1 -1)" gradientUnits="userSpaceOnUse">
      <stop offset="0" stop-color="#e1e0df" stop-opacity=".5"/>
      <stop offset="0" stop-color="#697d8b"/>
      <stop offset="0" stop-color="#a6afb6"/>
      <stop offset="0" stop-color="#e1e0df"/>
      <stop offset="1" stop-color="#e1e0df" stop-opacity="0"/>
    </linearGradient>
    <linearGradient id="linear-gradient-2" x1="199.54" y1="609.97" x2="144.03" y2="695.56" xlink:href="#linear-gradient"/>
  </defs>
  <g id="Layer_1-2" data-name="Layer 1">
    <g>
      <path class="cls-3" d="M229.92,213.54c1.16-4.48,0-6.07-1.95-6.67-10.24-6.32-17.07-13.41-24.3-23.91-5.83-12.19-8.94-15.99-8.52-33.16-.39-8.28.63-16.56,4.14-24.84,4.13-8.49,7.9-15.64,15.68-20.6l7.45-6.62c1.8-1.36,1.8-4.06.88-5.9-6.49-6.71-11.74-13.6-23.42-19.58-4.73-2.74-11.87-4.86-21.28-5.26-6.64,0-13.09-.19-21.23,1.31-6.53,1.06-13.34,3.28-19.87,6.62l-9.4,4.48c-5.96,1.46-11.37.72-16.56-.93l-17.38-7.35c-6.05-2.23-13.13-3.42-21.52-3.31-8.28-.02-16.49.32-24.01,4.14-5.96,2.87-11.38,6.28-16.56,9.93-6.14,5.73-11.97,11.77-16.56,19.04-3.54,4.57-6.04,11.94-8.81,18.8-2.53,6.87-3.69,11.95-4.72,18.16-1.81,12.01-1.6,19.31-1.17,28.44.89,15.63,3.13,21.32,4.77,30.63,1.98,7.91,4.71,14.31,7.45,20.7,2.79,7.71,7.31,14.56,11.59,21.52,3.77,7.24,9.66,15.18,15.73,23.18,5.25,5.8,7.68,10.19,17.68,17.33,6.71,4.19,7.7,5,11.3,6.67,3.31.82,6.74,1.54,11.59.83,3.15-.67,6.11-1.14,10.76-3.31,3.31-1.38,6.62-2.76,9.93-4.14,3.7-1.66,7.33-3.31,14.07-4.97,4.42-.58,8.83-1.02,13.25-.83,2.78-.05,7.4,1.02,14.07,3.31,4.15,1.39,6.43,1.53,14.9,5.79,3.6,1.17,5.89,3.2,11.59,2.97,5.48-.75,10.65-2.69,14.61-4.97,4.37-3.2,9.52-5.61,12.47-10.23,3.56-3.32,5.66-5.91,7.69-8.47l9.93-14.9c3.18-3.79,6.07-8.19,8.47-13.54,2.9-6.32,5.13-13.31,7.26-20.4h0Z"/>
      <path class="cls-4" d="M115.23,63.02c.09,3.31,2.17,2.32,3.34,2.75,4.39.5,6.54-.68,9.52-1.24,5.76-1.65,7.98-2.86,10.76-4.14,3.17-1.89,6.35-3.25,9.52-6.21,2.99-2.18,4.89-4.03,7.45-7.04,3.38-3.48,4.52-5.12,7.04-8.69,2.8-4.08,4.14-6.8,6.21-11.18,1.39-3.51,3.06-6.89,3.73-10.76.73-3.5,1.66-6.9,1.66-10.76.23-1.89-.3-3.01-.83-4.14-2.09-1.23-3.17-1.19-5.6-1.02-2.85.01-6.5.45-10.54,2.26-4.45,2.05-8.71,4.22-12,7.04-3.52,2.21-5.9,4.42-8.28,6.62-2.88,2.64-5.36,5.68-7.86,8.69-2.85,3.4-5.08,6.36-6.38,9.37-1.76,3.36-2.98,6.72-4.38,10.08-1.49,3.59-2.63,7.35-3.34,11.32-.41,2.48-.3,4.21,0,7.04h0Z"/>
      <path id="c" class="cls-1" d="M115.23,63.02c.09,3.31,2.17,2.32,3.34,2.75,4.39.5,6.54-.68,9.52-1.24,5.76-1.65,7.98-2.86,10.76-4.14,3.17-1.89,6.35-3.25,9.52-6.21,2.99-2.18,4.89-4.03,7.45-7.04,3.38-3.48,4.52-5.12,7.04-8.69,2.8-4.08,4.14-6.8,6.21-11.18,1.39-3.51,3.06-6.89,3.73-10.76.73-3.5,1.66-6.9,1.66-10.76.23-1.89-.3-3.01-.83-4.14-2.09-1.23-3.17-1.19-5.6-1.02-2.85.01-6.5.45-10.54,2.26-4.45,2.05-8.71,4.22-12,7.04-3.52,2.21-5.9,4.42-8.28,6.62-2.88,2.64-5.36,5.68-7.86,8.69-2.85,3.4-5.08,6.36-6.38,9.37-1.76,3.36-2.98,6.72-4.38,10.08-1.49,3.59-2.63,7.35-3.34,11.32-.41,2.48-.3,4.21,0,7.04h0Z"/>
      <path class="cls-2" d="M229.92,213.54c1.16-4.48,0-6.07-1.95-6.67-10.24-6.32-17.07-13.41-24.3-23.91-5.83-12.19-8.94-15.99-8.52-33.16-.39-8.28.63-16.56,4.14-24.84,4.13-8.49,7.9-15.64,15.68-20.6l7.45-6.62c1.8-1.36,1.8-4.06.88-5.9-6.49-6.71-11.74-13.6-23.42-19.58-4.73-2.74-11.87-4.86-21.28-5.26-6.64,0-13.09-.19-21.23,1.31-6.53,1.06-13.34,3.28-19.87,6.62l-9.4,4.48c-5.96,1.46-11.37.72-16.56-.93l-17.38-7.35c-6.05-2.23-13.13-3.42-21.52-3.31-8.28-.02-16.49.32-24.01,4.14-5.96,2.87-11.38,6.28-16.56,9.93-6.14,5.73-11.97,11.77-16.56,19.04-3.54,4.57-6.04,11.94-8.81,18.8-2.53,6.87-3.69,11.95-4.72,18.16-1.81,12.01-1.6,19.31-1.17,28.44.89,15.63,3.13,21.32,4.77,30.63,1.98,7.91,4.71,14.31,7.45,20.7,2.79,7.71,7.31,14.56,11.59,21.52,3.77,7.24,9.66,15.18,15.73,23.18,5.25,5.8,7.68,10.19,17.68,17.33,6.71,4.19,7.7,5,11.3,6.67,3.31.82,6.74,1.54,11.59.83,3.15-.67,6.11-1.14,10.76-3.31,3.31-1.38,6.62-2.76,9.93-4.14,3.7-1.66,7.33-3.31,14.07-4.97,4.42-.58,8.83-1.02,13.25-.83,2.78-.05,7.4,1.02,14.07,3.31,4.15,1.39,6.43,1.53,14.9,5.79,3.6,1.17,5.89,3.2,11.59,2.97,5.48-.75,10.65-2.69,14.61-4.97,4.37-3.2,9.52-5.61,12.47-10.23,3.56-3.32,5.66-5.91,7.69-8.47l9.93-14.9c3.18-3.79,6.07-8.19,8.47-13.54,2.9-6.32,5.13-13.31,7.26-20.4h0Z"/>
      <path id="c-2" data-name="c" class="cls-1" d="M115.23,63.02c.09,3.31,2.17,2.32,3.34,2.75,4.39.5,6.54-.68,9.52-1.24,5.76-1.65,7.98-2.86,10.76-4.14,3.17-1.89,6.35-3.25,9.52-6.21,2.99-2.18,4.89-4.03,7.45-7.04,3.38-3.48,4.52-5.12,7.04-8.69,2.8-4.08,4.14-6.8,6.21-11.18,1.39-3.51,3.06-6.89,3.73-10.76.73-3.5,1.66-6.9,1.66-10.76.23-1.89-.3-3.01-.83-4.14-2.09-1.23-3.17-1.19-5.6-1.02-2.85.01-6.5.45-10.54,2.26-4.45,2.05-8.71,4.22-12,7.04-3.52,2.21-5.9,4.42-8.28,6.62-2.88,2.64-5.36,5.68-7.86,8.69-2.85,3.4-5.08,6.36-6.38,9.37-1.76,3.36-2.98,6.72-4.38,10.08-1.49,3.59-2.63,7.35-3.34,11.32-.41,2.48-.3,4.21,0,7.04h0Z"/>
    </g>
  </g>
</svg>