<?xml version="1.0" encoding="UTF-8"?>
<svg id="Layer_2" data-name="Layer 2" xmlns="http://www.w3.org/2000/svg" viewBox="0 0 235.32 286">
  <defs>
    <style>
      .cls-1 {
        fill: #557ebf;
      }

      .cls-1, .cls-2, .cls-3, .cls-4, .cls-5 {
        stroke-width: 0px;
      }

      .cls-2 {
        fill: #3a71b2;
      }

      .cls-3 {
        fill: #61bf7d;
      }

      .cls-4 {
        fill: #063042;
      }

      .cls-5 {
        fill: #fff;
      }
    </style>
  </defs>
  <g id="Layer_1-2" data-name="Layer 1">
    <path class="cls-4" d="M88.28,36.18H23.52C10.62,36.18.02,46.78.02,59.92c-.46,12.68,9.68,23.28,22.35,23.74h66.6s-.69-47.48-.69-47.48Z"/>
    <path class="cls-1" d="M235.09,247.29H23.52C10.39,247.29.02,236.68.02,223.55V59.69c0,13.14,10.6,23.74,23.51,23.97h177.23s34.57-3,34.57,23.05v140.58h-.23Z"/>
    <path class="cls-2" d="M136.45,163.4c9.45-7.14,11.29-20.51,4.15-29.73-3.92-5.07-9.91-8.3-16.36-8.53h.69c1.15-.23,2.54-.23,3.69,0v-13.14c0-1.61-.69-3-2.07-3.69-2.07-1.15-4.61-.46-5.76,1.61-.46.69-.69,1.38-.46,2.3v13.37c-11.52,1.84-19.59,12.68-17.75,24.43v.23c.92,5.53,3.92,10.6,8.53,13.83l-38.95,83.43h25.35l17.98-38.26c2.07-4.61,7.61-6.68,12.44-4.38,1.84.92,3.46,2.54,4.38,4.38l18.67,38.26h25.81l-40.33-84.12ZM123.31,159.71c-7.37,0-13.14-5.99-13.14-13.37s5.99-13.14,13.37-12.91c3.46,0,6.45,1.38,8.99,3.69,5.3,5.07,5.3,13.37.23,18.67-2.3,2.3-5.76,3.92-9.45,3.92Z"/>
    <path class="cls-5" d="M74.22,47.71h90.8v16.59h-90.8v-16.59Z"/>
    <path class="cls-4" d="M116.4,133.21c7.14,0,13.14,5.99,12.91,13.37,0,7.14-5.99,13.14-13.37,12.91-7.14,0-12.91-5.99-12.91-13.14,0-3.46,1.38-6.68,3.92-9.22s5.99-3.92,9.45-3.92ZM121.47,125.6v-13.83c0-1.61-.69-3-2.07-3.69-2.07-1.15-4.61-.46-5.76,1.61-.46.69-.69,1.38-.46,2.3v13.37c-11.52,1.84-19.59,12.68-17.75,24.43v.23c.92,5.53,3.92,10.6,8.53,13.83l-49.09,105.32c-1.84,3.69-1.61,8.3.92,11.75,3.69,5.3,10.83,6.68,16.13,3,1.84-1.15,3.23-3,4.15-4.84l32.73-70.06c2.07-4.61,7.61-6.68,12.44-4.38,1.84.92,3.46,2.54,4.38,4.38l33.42,69.37c2.77,5.76,9.68,8.07,15.44,5.3s8.07-9.68,5.3-15.44l-50.47-104.86c9.22-7.37,10.83-20.97,3.46-30.19-2.77-3.69-6.68-6.22-11.29-7.61"/>
    <path class="cls-3" d="M151.66,62.46c-3.46,0-6.22-2.54-6.22-5.99,0-1.61.69-3.46,1.84-4.61,2.54-2.3,6.22-2.3,8.76,0,1.15,1.15,1.84,2.77,1.84,4.38-.23,3.46-2.77,5.99-6.22,6.22M83.44,62.22c-3.46,0-6.22-2.77-6.22-5.99,0-1.61.69-3.23,1.84-4.38,2.07-2.54,5.99-3,8.53-.92h.23c2.54,2.3,2.77,6.22.46,8.76l-.69.92c-1.15,1.15-2.77,1.84-4.38,1.84M153.5,25.12l12.21-21.2c.69-1.15.23-2.54-.69-3.46-1.15-.46-2.3-.23-3,.69l-12.68,21.89c-20.28-8.99-43.33-8.99-63.38,0L73.53,1.38c-.46-.69-1.38-1.38-2.3-1.38s-1.84.46-2.3,1.38c-.46.69-.46,1.84,0,2.54l12.44,21.2c-21.66,11.75-35.72,33.88-37.8,58.31h147.96c-1.84-24.66-16.13-46.55-37.8-58.31"/>
    <path class="cls-4" d="M213.42,129.29h-9.68c-.46.23-.92.69-.92,1.38v153.26c0,.69.46,1.15,1.15,1.15h10.14c11.75,0,21.2-9.68,21.2-21.2V107.86c0,11.75-9.45,21.2-21.2,21.2h-.69v.23Z"/>
  </g>
</svg>