<?xml version="1.0" encoding="UTF-8"?>
<svg id="Layer_2" data-name="Layer 2" xmlns="http://www.w3.org/2000/svg" viewBox="0 0 252 287">
  <defs>
    <style>
      .cls-1 {
        fill: #402d87;
      }

      .cls-1, .cls-2, .cls-3, .cls-4 {
        stroke-width: 0px;
      }

      .cls-2 {
        fill: #2d2164;
      }

      .cls-3 {
        fill: #fff;
      }

      .cls-4 {
        fill: #967ab8;
      }
    </style>
  </defs>
  <g id="Layer_1-2" data-name="Layer 1">
    <g>
      <path class="cls-4" d="M251.99,84.38c0-4.83-1.02-9.09-3.08-12.75-2.02-3.6-5.05-6.62-9.12-9-33.55-19.6-67.13-39.14-100.67-58.77-9.04-5.29-17.81-5.1-26.78.27-13.35,7.98-80.21,46.79-100.13,58.48C4.01,67.43.01,74.8.01,84.37c-.01,39.42,0,78.84-.01,118.26,0,4.72.98,8.9,2.95,12.51,2.02,3.71,5.1,6.81,9.25,9.25,19.92,11.69,86.79,50.5,100.14,58.49,8.98,5.37,17.75,5.56,26.79.27,33.54-19.62,67.12-39.16,100.67-58.77,4.16-2.44,7.23-5.54,9.25-9.24,1.97-3.61,2.95-7.79,2.95-12.51,0,0,0-78.82-.01-118.24Z"/>
      <path class="cls-2" d="M126.39,143.12L2.95,215.14c2.02,3.71,5.1,6.81,9.25,9.25,19.92,11.69,86.79,50.5,100.14,58.49,8.98,5.37,17.75,5.56,26.79.27,33.54-19.62,67.12-39.16,100.67-58.77,4.16-2.44,7.23-5.54,9.25-9.24l-122.67-72.01Z"/>
      <path class="cls-1" d="M251.99,84.38c0-4.83-1.02-9.09-3.08-12.75l-122.52,71.49,122.67,72.01c1.97-3.61,2.94-7.79,2.95-12.51,0,0,0-78.82-.01-118.24Z"/>
      <path class="cls-3" d="M199.06,116.19v13.46h13.29v-13.46h6.64v13.46h13.28v6.73h-13.28v13.46h13.28v6.73h-13.28v13.46h-6.64v-13.46h-13.29v13.46h-6.64v-13.46h-13.28v-6.73h13.28v-13.46h-13.28v-6.73h13.28v-13.46h6.64ZM212.35,136.38h-13.29v13.46h13.29v-13.46Z"/>
      <path class="cls-3" d="M126.66,48.58c34.65,0,64.9,19.07,81.11,47.41l-.16-.27-40.77,23.79c-8.03-13.78-22.76-23.08-39.65-23.27h-.53c-25.76,0-46.64,21.16-46.64,47.26,0,8.23,2.11,16.31,6.15,23.45,8.04,14.22,23.15,23.82,40.49,23.82s32.65-9.71,40.64-24.09l-.19.34,40.71,23.9c-16.03,28.11-45.87,47.12-80.11,47.49h-1.04c-34.76,0-65.1-19.18-81.26-47.68-7.89-13.91-12.41-30.04-12.41-47.24,0-52.42,41.94-94.92,93.67-94.92h0Z"/>
    </g>
  </g>
</svg>