<?xml version="1.0" encoding="UTF-8"?>
<svg id="Layer_2" data-name="Layer 2" xmlns="http://www.w3.org/2000/svg" viewBox="0 0 457.83 200.01">
  <defs>
    <style>
      .cls-1 {
        fill: #5686a5;
        stroke-width: 0px;
      }
    </style>
  </defs>
  <g id="Layer_1-2" data-name="Layer 1">
    <g>
      <g>
        <path class="cls-1" d="M55.15,83.26c1.71-5.23,4.28-9.86,7.7-13.89,3.42-4.03,7.68-7.25,12.78-9.65,5.1-2.4,11.03-3.61,17.8-3.61s12.7,1.2,17.8,3.61c5.09,2.4,9.36,5.62,12.78,9.65s5.99,8.66,7.7,13.89c1.71,5.23,2.57,10.68,2.57,16.33s-.86,11.11-2.57,16.34c-1.71,5.23-4.28,9.86-7.7,13.89-3.42,4.03-7.68,7.23-12.78,9.59-5.09,2.36-11.03,3.55-17.8,3.55s-12.7-1.18-17.8-3.55c-5.09-2.36-9.36-5.56-12.78-9.59-3.42-4.03-5.99-8.66-7.7-13.89-1.71-5.23-2.57-10.68-2.57-16.34s.86-11.1,2.57-16.33ZM65.56,112.01c1.12,4.07,2.87,7.74,5.26,11,2.39,3.26,5.46,5.88,9.21,7.86,3.75,1.98,8.21,2.97,13.39,2.97s9.65-.99,13.39-2.97c3.75-1.98,6.82-4.6,9.21-7.86,2.39-3.26,4.14-6.92,5.26-11,1.12-4.07,1.68-8.21,1.68-12.39s-.56-8.32-1.68-12.39c-1.12-4.07-2.87-7.74-5.26-11-2.39-3.26-5.46-5.87-9.21-7.85-3.75-1.98-8.21-2.97-13.39-2.97s-9.65.99-13.39,2.97c-3.75,1.98-6.82,4.6-9.21,7.85-2.39,3.26-4.15,6.93-5.26,11-1.12,4.07-1.67,8.2-1.67,12.39s.56,8.32,1.67,12.39Z"/>
        <path class="cls-1" d="M151.11,88.22v7.17h.18c1.46-2.94,3.77-5.07,6.91-6.4,3.14-1.33,6.6-2,10.37-2,4.19,0,7.83.75,10.94,2.25,3.11,1.5,5.69,3.53,7.75,6.09,2.06,2.56,3.61,5.51,4.66,8.85,1.05,3.34,1.57,6.89,1.57,10.64s-.51,7.3-1.52,10.65c-1.01,3.34-2.55,6.26-4.61,8.75-2.06,2.49-4.64,4.45-7.75,5.88-3.11,1.43-6.72,2.15-10.84,2.15-1.33,0-2.81-.14-4.45-.41-1.64-.28-3.26-.72-4.87-1.33-1.6-.61-3.13-1.45-4.56-2.51-1.43-1.06-2.63-2.37-3.61-3.95h-.18v27.32h-8.98v-73.16h8.98ZM182.97,107.03c-.66-2.35-1.67-4.45-3.03-6.29-1.36-1.84-3.1-3.31-5.22-4.4-2.13-1.09-4.61-1.64-7.47-1.64-3,0-5.54.58-7.63,1.74-2.09,1.16-3.8,2.68-5.12,4.55-1.32,1.88-2.28,4.01-2.87,6.4-.59,2.39-.89,4.81-.89,7.26,0,2.59.31,5.1.94,7.52.63,2.42,1.62,4.55,2.98,6.4,1.36,1.84,3.11,3.33,5.27,4.45,2.16,1.13,4.77,1.69,7.84,1.69s5.62-.58,7.68-1.74,3.71-2.69,4.96-4.61c1.25-1.91,2.16-4.09,2.72-6.55.56-2.46.84-4.98.84-7.57,0-2.46-.33-4.86-.99-7.21Z"/>
        <path class="cls-1" d="M239.28,137.76c-4.06,3-9.16,4.5-15.32,4.5-4.34,0-8.1-.68-11.28-2.04-3.18-1.36-5.86-3.28-8.03-5.73-2.17-2.46-3.8-5.39-4.88-8.8-1.08-3.41-1.69-7.13-1.83-11.16,0-4.02.63-7.71,1.89-11.05,1.26-3.34,3.03-6.24,5.3-8.7,2.28-2.46,4.97-4.36,8.09-5.73,3.11-1.36,6.53-2.05,10.24-2.05,4.83,0,8.84.98,12.02,2.92,3.19,1.95,5.74,4.43,7.67,7.44,1.92,3.01,3.26,6.29,3.99,9.84.74,3.56,1.03,6.94.89,10.15h-40.58c-.07,2.32.21,4.51.84,6.59.63,2.08,1.64,3.92,3.04,5.52,1.4,1.6,3.18,2.88,5.34,3.83,2.16.95,4.71,1.43,7.64,1.43,3.77,0,6.86-.85,9.26-2.56,2.41-1.71,3.99-4.3,4.76-7.79h8.81c-1.19,5.93-3.81,10.4-7.87,13.4ZM237.1,103.8c-.8-1.84-1.88-3.42-3.24-4.75-1.36-1.33-2.97-2.38-4.81-3.17-1.85-.78-3.89-1.18-6.12-1.18s-4.38.39-6.22,1.18c-1.85.78-3.43,1.86-4.76,3.22-1.32,1.36-2.37,2.95-3.14,4.75-.77,1.8-1.22,3.73-1.36,5.77h31.07c-.14-2.04-.61-3.98-1.42-5.82Z"/>
        <path class="cls-1" d="M262.42,88.22v8.4h.17c3.72-6.42,9.62-9.63,17.7-9.63,3.58,0,6.56.48,8.96,1.44,2.39.96,4.32,2.29,5.79,4,1.48,1.71,2.51,3.74,3.11,6.1.59,2.36.9,4.97.9,7.84v34.84h-8.98v-35.85c0-3.28-.98-5.87-2.94-7.78-1.96-1.91-4.66-2.87-8.09-2.87-2.73,0-5.1.41-7.1,1.23-2,.82-3.66,1.98-4.99,3.48-1.33,1.5-2.33,3.26-2.99,5.27-.67,2.01-1,4.22-1,6.61v29.9h-8.98v-52.98h8.45Z"/>
        <path class="cls-1" d="M361.11,140.63c-4.05,1.67-8.15,2.51-12.28,2.51-6.52,0-12.38-1.11-17.59-3.33-5.21-2.22-9.6-5.27-13.18-9.16-3.58-3.89-6.32-8.46-8.23-13.72-1.91-5.25-2.86-10.92-2.86-16.99s.95-12,2.85-17.33c1.9-5.33,4.64-9.98,8.21-13.95,3.57-3.97,7.95-7.08,13.16-9.34,5.2-2.26,11.07-3.39,17.59-3.39,4.37,0,8.6.64,12.69,1.93,4.09,1.29,7.79,3.18,11.09,5.67,3.3,2.49,6.02,5.57,8.17,9.22,2.15,3.66,3.46,7.85,3.94,12.59h-17.88c-1.11-4.66-3.26-8.15-6.44-10.48-3.18-2.33-7.04-3.5-11.57-3.5-4.21,0-7.79.8-10.73,2.39s-5.33,3.74-7.16,6.42c-1.83,2.69-3.16,5.74-3.99,9.16-.84,3.42-1.25,6.96-1.25,10.62s.42,6.91,1.25,10.21c.84,3.31,2.17,6.28,4,8.93,1.83,2.65,4.22,4.76,7.16,6.36,2.94,1.6,6.53,2.39,10.75,2.39,6.21,0,11-1.53,14.38-4.59,3.38-3.06,5.35-7.5,5.91-13.31h-18.84v-13.69h35.72v44.98h-11.88l-1.9-9.44c-3.34,4.19-7.04,7.13-11.09,8.8Z"/>
        <path class="cls-1" d="M416.34,58.04v67.73h41.49v15.44h-60.17V58.04h18.67Z"/>
      </g>
      <path class="cls-1" d="M328.02,151.54c-28.57,16.98-71.37,26.65-119.12,26.65-86.03,0-155.76-35-155.76-78.18S122.88,21.82,208.91,21.82c47.92,0,90.89,9.84,119.47,26.93C297.18,20.13,241.26,0,177.32,0,79.4-.02,0,44.75,0,99.98c0,55.23,79.37,100.02,177.29,100.03,63.68.01,119.46-20.04,150.73-48.47Z"/>
    </g>
  </g>
</svg>