<?xml version="1.0" encoding="UTF-8"?>
<svg id="Layer_2" data-name="Layer 2" xmlns="http://www.w3.org/2000/svg" viewBox="0 0 372.95 200.01">
  <defs>
    <style>
      .cls-1 {
        fill: #010101;
      }

      .cls-1, .cls-2, .cls-3 {
        stroke-width: 0px;
      }

      .cls-2 {
        fill: #e04249;
      }

      .cls-3 {
        fill: #010201;
      }
    </style>
  </defs>
  <g id="Layer_1-2" data-name="Layer 1">
    <g id="Layer_1-2" data-name="Layer 1-2">
      <g>
        <path class="cls-2" d="M64.94,110.92c13.43,0,26.87.09,40.3-.07,2.8-.03,3.42.85,3.32,3.45-.19,4.9-.22,9.81,0,14.7.13,2.81-.88,3.36-3.47,3.35-23.45-.11-46.9-.08-70.35-.09-7.44,0-9.71,2.31-9.71,9.86,0,9.12-.03,18.24,0,27.37.02,6.55,2.57,9.05,9.15,9.06,14.8.02,29.6.02,44.4,0,4.48,0,7.39-1.88,8.27-5.18,1.26-4.68-1.96-8.96-7.03-9.03-7.85-.11-15.71-.11-23.56,0-2.16.03-2.96-.46-2.87-2.79.19-4.78.13-9.58.02-14.36-.04-1.87.43-2.59,2.45-2.57,10.36.09,20.72-.11,31.08.1,10.16.21,17.53,5.29,21.96,14.29,5.02,10.21,4.36,20.36-1.91,29.86-4.85,7.35-11.88,11.03-20.77,11.02-19.69-.03-39.4-.33-59.08.1-14.87.32-26.32-11.25-26.83-26.08-.42-12.3-.4-24.64,0-36.94.47-14.74,11.83-26.61,26.75-26.13,12.62.41,25.27.08,37.91.08h-.03Z"/>
        <path class="cls-2" d="M169.92,199.88c-14,0-28-.1-42,.08-2.94.04-3.49-.84-3.47-3.6.14-16.07.12-32.15.01-48.23-.02-2.53.43-3.59,3.28-3.49,6.25.23,12.52.16,18.78.03,2.11-.04,2.71.6,2.68,2.7-.11,9.35.06,18.7-.11,28.04-.05,2.64.78,3.19,3.27,3.17,16.85-.11,33.69-.04,50.54-.06,6.13,0,8.8-2.59,8.83-8.67.06-9.58.05-19.15,0-28.73-.03-6.31-2.61-8.84-9.01-8.84-24.93-.02-49.86-.06-74.79.07-2.91,0-3.62-.81-3.49-3.6.23-5.12.15-10.26.02-15.39-.05-1.91.47-2.51,2.45-2.5,28.34.08,56.69-.04,85.03.13,12.62.08,22.94,9.92,24.1,24.28,1.13,13.94,1.35,28.05-.21,41.99-1.54,13.72-12.25,22.59-25.96,22.6-13.32,0-26.64,0-39.95,0v.02Z"/>
        <path class="cls-2" d="M236.53,110.92c11.4,0,21.98.04,32.56-.05,1.72-.01,2.7.82,3.76,1.88,9.89,9.93,19.85,19.79,29.64,29.81,1.92,1.96,2.9,1.82,4.73-.05,9.73-9.93,19.64-19.68,29.39-29.58,1.49-1.52,2.98-2.08,5.06-2.06,10.2.1,20.4.04,31.28.04-1.25,1.36-2.02,2.26-2.86,3.1-12.95,12.99-25.86,26.02-38.93,38.89-2.1,2.07-1.87,3.06.09,5,13.13,12.97,26.13,26.07,39.16,39.15.76.76,1.8,1.34,2.21,2.82-11.04,0-21.92-.02-32.81.02-1.51,0-2.17-1.09-3.02-1.94-9.92-9.9-19.86-19.78-29.67-29.78-1.73-1.76-2.63-1.99-4.49-.08-9.79,10.02-19.78,19.85-29.62,29.83-1.39,1.41-2.76,2.02-4.74,2-10.34-.09-20.67-.04-31.12-.04.18-1.48,1.3-2.01,2.04-2.75,12.94-13,25.83-26.05,38.93-38.89,2.46-2.41,2.13-3.55-.12-5.77-12.99-12.79-25.81-25.74-38.69-38.65-.78-.78-1.52-1.59-2.77-2.9h-.01Z"/>
        <path class="cls-3" d="M133.8,44.59c0,13.68-.06,27.37.05,41.05.02,2.52-.39,3.57-3.26,3.46-6.37-.25-12.75-.14-19.12-.04-1.91.03-2.74-.2-2.74-2.5.09-28.05.08-56.1.01-84.15,0-2.01.63-2.42,2.49-2.39,6.6.11,13.21.15,19.81-.02,2.32-.06,2.81.69,2.8,2.87-.09,13.91-.05,27.82-.05,41.73h0Z"/>
        <path class="cls-1" d="M149.64,61.49c0-8.31.07-16.62-.04-24.93-.03-2.14.4-2.98,2.77-2.92,6.47.17,12.96.13,19.44.02,1.97-.03,2.79.31,2.78,2.56-.09,16.85-.08,33.7,0,50.55,0,1.77-.44,2.32-2.26,2.29-6.82-.11-13.64-.11-20.46,0-1.82.03-2.27-.52-2.25-2.29.09-8.42.04-16.85.04-25.28h-.01Z"/>
        <path class="cls-1" d="M162.06,21.42c-3.4,0-6.81-.1-10.21.04-1.86.08-2.27-.59-2.24-2.33.1-5.68.1-11.37,0-17.05-.03-1.69.54-2.08,2.13-2.06,6.92.08,13.85.08,20.77,0,1.67-.02,2.09.52,2.07,2.12-.09,5.8-.08,11.59,0,17.39.02,1.52-.49,1.95-1.95,1.91-3.52-.09-7.04-.03-10.55-.03h-.02Z"/>
        <path class="cls-1" d="M235.02,33.93c-5.51-.61-11.14-.33-16.71-.16-2.48.07-2.97-.72-2.94-3.05.13-9.34,0-18.69.1-28.03.02-2.01-.34-2.75-2.56-2.69-6.59.17-13.2.18-19.79,0-2.35-.07-2.79.73-2.78,2.88.08,13.9.04,27.8.04,41.7h.01c0,13.79.08,27.57-.07,41.36-.03,2.65.74,3.16,3.23,3.14,13.08-.13,26.17-.05,39.25-.08,1.58-.01,3.2-.08,4.73-.42,11.84-2.61,19.64-12.55,20.52-26.03.93-14.32-9.11-27.07-23.03-28.62ZM227.9,67.16c-3.68.88-7.45.28-11.17.41-1.37.05-1.31-.93-1.31-1.86v-5.1c0-4.79,2.38-7.18,7.14-7.18,6.44,0,8.96,1.32,10.08,5.3,1.05,3.74-1,7.53-4.74,8.43Z"/>
      </g>
    </g>
  </g>
</svg>