<?xml version="1.0" encoding="UTF-8"?>
<svg id="Layer_2" data-name="Layer 2" xmlns="http://www.w3.org/2000/svg" viewBox="0 0 3231.69 1086.38">
  <defs>
    <style>
      .cls-1 {
        fill: #3c668f;
      }

      .cls-1, .cls-2, .cls-3, .cls-4 {
        stroke-width: 0px;
      }

      .cls-2 {
        fill: #3d6095;
      }

      .cls-5 {
        stroke-width: 2.08px;
      }

      .cls-5, .cls-6, .cls-7, .cls-8 {
        stroke: #fff;
      }

      .cls-5, .cls-8 {
        fill: #fff;
      }

      .cls-6 {
        stroke-linejoin: round;
      }

      .cls-6, .cls-7 {
        fill: none;
        stroke-linecap: round;
        stroke-width: 12.47px;
      }

      .cls-9 {
        fill: #000;
        stroke: #000;
        stroke-width: 37.4px;
      }

      .cls-7 {
        stroke-linejoin: bevel;
      }

      .cls-3 {
        fill: #1b1b1b;
      }

      .cls-4 {
        fill: #3a5e94;
      }

      .cls-8 {
        stroke-width: 4.16px;
      }
    </style>
  </defs>
  <g id="Layer_2-2" data-name="Layer 2">
    <g id="Layer_1-2" data-name="Layer 1-2">
      <g id="Layer_3" data-name="Layer 3">
        <path class="cls-9" d="M800.31,804.23c7.26-60.69,5.11-69.58,50.32-59.74l11.47,1c34.74,1.58,80.21-5.58,106.9-18,57.47-26.68,91.58-71.21,34.9-59.53-129.32,26.68-138.21-17.11-138.21-17.11,136.53-202.58,193.63-459.8,144.37-522.75-134.37-171.69-367.01-90.53-370.9-88.42l-1.26.21c-25.53-5.32-54.16-8.47-86.26-9-58.53-.95-102.9,15.32-136.58,40.9,0,0-414.95-170.95-395.69,215,4.11,82.11,117.69,621.27,253.16,458.43,49.53-59.53,97.37-109.9,97.37-109.9,23.74,15.79,52.21,23.84,82.05,20.95l2.32-1.95c-.74,7.37-.42,14.63.95,23.21-34.9,39-24.63,45.84-94.42,60.21-70.58,14.53-29.11,40.47-2.05,47.21,32.84,8.21,108.74,19.84,160.11-52l-2.05,8.21c13.68,10.95,12.79,78.74,14.68,127.16,1.95,48.42,5.21,93.58,15.05,120.27,9.89,26.63,21.53,95.26,113.21,75.58,76.63-16.42,135.21-40.05,140.58-259.95"/>
        <path class="cls-1" d="M1003.89,667.96c-129.32,26.68-138.21-17.11-138.21-17.11,136.53-202.63,193.63-459.8,144.37-522.75-134.37-171.69-367.01-90.48-370.9-88.37l-1.26.21c-25.53-5.32-54.16-8.47-86.26-9-58.53-.95-102.9,15.32-136.58,40.9,0,0-414.95-170.95-395.69,215,4.11,82.11,117.69,621.27,253.16,458.43,49.53-59.53,97.37-109.9,97.37-109.9,23.74,15.79,52.21,23.84,82.05,20.95l2.32-1.95c-.74,7.37-.37,14.63.95,23.21-34.9,39-24.63,45.84-94.42,60.21-70.58,14.53-29.11,40.47-2.05,47.21,32.84,8.21,108.79,19.84,160.11-52l-2.05,8.21c13.68,10.95,23.26,71.26,21.68,125.9-1.63,54.63-2.68,92.16,8.11,121.48,10.79,29.32,21.53,95.26,113.21,75.58,76.63-16.42,116.37-59,121.9-129.95,3.89-50.47,12.79-43,13.37-88.11l7.11-21.37c8.21-68.42,1.32-90.48,48.53-80.21l11.47,1c34.74,1.58,80.21-5.58,106.95-18,57.47-26.68,91.58-71.21,34.9-59.53h0l-.11-.05Z"/>
        <path class="cls-6" d="M524.31,707.17c-3.58,127.32.89,255.48,13.37,286.64,12.47,31.16,39.16,91.74,130.84,72.11,76.63-16.42,104.53-48.21,116.63-118.37,8.89-51.63,26.11-195,28.32-224.37"/>
        <path class="cls-6" d="M414.41,69.01S-.86-100.73,18.4,285.27c4.11,82.11,117.69,621.33,253.16,458.43,49.53-59.58,94.26-106.26,94.26-106.26"/>
        <path class="cls-6" d="M638.68,38.06c-14.37,4.53,231-89.69,370.43,88.48,49.26,62.95-7.84,320.11-144.37,522.75"/>
        <path class="cls-7" d="M864.73,649.28s8.89,43.79,138.21,17.11c56.69-11.68,22.58,32.84-34.9,59.53-47.16,21.9-152.9,27.47-154.63-2.74-4.42-78.05,55.63-54.32,51.32-73.9-3.89-17.63-30.79-34.9-48.58-78-15.53-37.63-212.85-326.11,54.74-283.27,9.79-2.05-69.79-254.53-320.22-258.64-250.37-4.11-242.16,307.9-242.16,307.9"/>
        <path class="cls-6" d="M454.25,675.96c-34.9,39-24.63,45.84-94.42,60.21-70.58,14.53-29.11,40.47-2.05,47.21,32.84,8.21,108.79,19.84,160.11-52,15.63-21.9-.11-56.79-21.58-65.69-10.37-4.32-24.26-9.68-42.05,10.26h0Z"/>
        <path class="cls-6" d="M451.94,675.28c-3.53-22.95,7.53-50.21,19.37-82.11,17.79-47.9,58.84-95.79,26-247.69-24.47-113.21-188.69-23.58-188.79-8.21-.11,15.37,7.42,77.79-2.74,150.53-13.26,94.9,60.37,175.16,145.21,166.95"/>
        <path class="cls-8" d="M412.88,334.96c-.74,5.26,9.58,19.21,23.05,21.11,13.47,1.89,25-9.05,25.68-14.32.74-5.26-9.58-11-23.11-12.89-13.47-1.89-25,.84-25.68,6.11h.05Z"/>
        <path class="cls-5" d="M822.73,324.27c.74,5.26-9.58,19.21-23.05,21.11-13.47,1.89-25-9.05-25.74-14.32s9.63-11,23.11-12.89c13.47-1.89,25,.84,25.74,6.11h-.05Z"/>
        <path class="cls-6" d="M870.89,288.01c2.21,41.11-8.84,69.11-10.26,112.9-2.05,63.63,30.32,136.48-18.47,209.37"/>
      </g>
      <g>
        <path class="cls-4" d="M2485.24,676.84c-40.61-.45-75.27-3.92-106.28-23.76-30.26-19.35-39.22-49.12-42.14-82.33-.75-8.7,3.62-11.69,10.57-10.2,8.37,1.83,22.38-7.7,24.36,7.88,4.11,32.65,16.14,59.28,48.79,71.43,40.91,15.2,82.56,15.8,123.16-.56,24.21-9.75,35.34-33.51,32.95-62.42-2.24-27.12-12.7-41.76-40.2-49.01-39.11-10.31-78.86-18.12-118.23-27.53-56.74-13.56-78.04-44.72-69.97-101.68,4.11-29.06,19.61-49.8,47.48-59.25,50.02-16.96,100.64-18.19,150.62.07,34.14,12.51,52.22,38.36,55.4,74.45.56,6.39,2.88,15.58-8.26,14.57-9.38-.86-24.24,7.21-26.41-9.19-3.88-29.66-17.89-50.92-46.66-59.02-39.19-11.02-79.12-12.51-116.03,7.4-21.14,11.43-25.03,33.73-22.82,56.15,2.05,20.84,13.26,35.08,33.66,41.95,41.39,13.93,84.57,20.4,126.86,30.71,70.79,17.26,81.62,68.14,62.91,122.9-13.9,40.72-52.07,50.69-90.44,55.96-11.32,1.57-22.9,1.16-29.25,1.46l-.07.04Z"/>
        <path class="cls-2" d="M2989.03,502.31c0-44.34-.97-88.76.63-133.03.45-12.1-13.45-34.48,17.15-34.22,29.32.26,15.73,21.74,15.91,32.95,1.23,83.34,1.2,166.72.26,250.06-.19,18.01,4.67,23.35,22.86,22.94,55.81-1.16,111.66-.45,167.47-.41,8.93,0,18.16-2.32,18.38,12.81.19,14.46-6.65,15.95-18.16,15.91-68.85-.15-137.66-.19-206.51.56-14.2.15-18.45-4.59-18.27-18.49.67-49.68.26-99.4.26-149.13v.04Z"/>
        <path class="cls-3" d="M1486.48,598.77c14.49-3.96,25.78-4.93,29.03,15.39,1.64,10.12,11.09,18.19,22.34,21.14,24.73,6.54,49.5,7.92,74.41.41,16.25-4.89,24.09-16.4,23.39-32.46-.71-16.06-11.84-23.98-26.86-26.75-27.76-5.12-55.59-9.97-83.34-15.2-22.04-4.18-32.46-18.53-33.7-40.2-1.34-23.95,9.04-39.82,30.97-47.67,29.77-10.65,60.22-10.27,90.25-2.91,19.5,4.78,34.18,17.03,38.59,38.1,1.23,5.86,7.43,14.49-4.11,16.14-7.21,1.01-15.69,4.26-20.4-7.99-13.3-34.82-75.31-46.7-102.43-20.51-16.62,16.06-10.5,40.72,12.44,45.95,24.54,5.57,49.68,8.63,74.41,13.37,35.6,6.76,49.8,21.29,49.24,49.42-.56,28.13-18.83,46.99-51.55,51.36-22,2.91-44.27,3.66-66.38.52-36.31-5.12-51.07-20.4-56.37-58.05l.07-.07Z"/>
        <path class="cls-3" d="M1709.65,561.82c0-13.78-.04-27.53,0-41.32.07-16.06,5.08-35.56-23.24-30.33-7.06,1.31-8.37-4.56-8.33-10.57.07-6.09,3.81-8.67,8.74-7.73,26.97,5.16,22.9-13.37,22.71-29.1-.07-5.34.15-10.72,0-16.06-.22-8.7-.97-16.44,12.36-16.21,14.38.22,10.53,9.68,11.09,17.37.22,3.06.37,6.16,0,9.19-2.88,22.97-1.12,41.54,30.37,34.52,7.14-1.61,11.36,1.31,11.21,9.75-.15,9.04-5.83,10.5-12.14,9-30.56-7.21-30.56,11.13-29.66,32.95,1.2,28.24.78,56.59.15,84.91-.41,19.39,8.14,28.28,27.34,27.98,5.79-.07,14.16-4.86,14.38,7.73.19,11.62-7.4,11.77-15.02,12.4-33.06,2.8-49.2-11.39-49.91-44.04-.34-16.81-.07-33.66-.07-50.51v.07Z"/>
        <path class="cls-3" d="M2029.64,501c12.96-29.55,36.24-34.41,61.3-35.94,9.53-.6,16.06.26,15.91,12.81-.11,12.07-6.2,10.53-14.64,10.39-37.8-.75-56,16.14-61.38,52.97-4.45,30.52-1.91,61.08-3.06,91.6-.3,8.22,6.24,21.03-11.99,20.43-18.12-.6-10.98-13.56-11.09-21.48-.67-46.66-.56-93.35-.34-140.01.04-8.82-4.71-20.73,12.55-20.51,16.81.22,8.85,12.29,10.83,19.65.49,1.87.71,3.85,1.83,10.05l.07.04Z"/>
        <path class="cls-4" d="M2948.9,664.62c-8.37-6.69-16.06-14.27-24.8-20.4-8.82-6.2-10.72-11.06-2.02-19.39,34.48-33.1,43.56-75.76,44.12-126.15-.3-22.04-3.06-48.41-13.22-73.74-41.91-104.34-163.32-114.5-239.68-82.89-111.21,46.06-113.94,201.01-61.41,269.9,51.7,67.84,123.95,76.47,198.47,57.83,34.59-8.67,57.04-5.6,78.63,19.54,9.71,11.32,16.18,7.99,25.36-1.76,11.43-12.18,2.47-16.59-5.38-22.86l-.07-.07ZM2719.95,631.98c-46.28-26.63-64.29-70.34-66.38-121.03-2.24-54.5,10.24-105.16,59.92-135.72,49.05-30.15,102.17-31.94,152.75-3.25,49.61,28.13,66.2,75.5,66.46,112.74-.04,137.43-111.36,205.65-212.78,147.26h.04Z"/>
        <path class="cls-3" d="M1956.87,470.78c-6.35.3-12.29.04-12.36,9.26-.04,5.68,2.17,11.88-2.02,17.26-45.91-39.93-105.83-43-141.88-7.4-30.78,30.41-32.31,100.49-2.91,133.51,31.75,35.71,98.32,34.97,146.77-3.14,0,11.8.37,22.23-.07,32.57-1.34,32.76-17.18,51.85-47.82,58.16-40.2,8.29-71.76-2.32-84.01-31.23-5.6-13.3-14.68-10.12-22.11-8.26-8.37,2.13-2.28,10.24-1.2,15.09,2.32,10.57,7.51,19.87,16.18,27.01,31.12,25.51,113.94,21.82,142.25-6.39,10.72-10.68,18.38-23.95,18.72-38.36,1.49-62.68,1.31-125.4,1.91-188.09.07-8.37-4.22-10.39-11.47-10.01h.04ZM1873.72,630.67c-49.5-.41-73.33-25.48-72.25-76.17.9-43.93,28.39-70.15,73.07-69.74,45.05.41,70.72,27.76,70.04,74.64-.64,45.39-26.67,71.57-70.86,71.24v.04Z"/>
        <path class="cls-3" d="M1190.47,376.31c-41.32-.93-82.71.56-124.02-.41-15.05-.37-17.63,5.34-17.37,18.68.78,39.78.3,79.61.3,119.43s.41,82.71-.26,124.02c-.19,12.22,3.81,15.54,15.73,15.54,12.63,0,13-6.39,12.85-15.8-.45-28.32.34-56.67-.71-84.95-.52-14.01,3.74-18.6,18.01-18.3,32.91.67,65.9,1.01,98.7-1.01,43.78-2.65,70.6-34.89,69.89-80.73-.75-47.03-27.12-75.38-73.11-76.43v-.04ZM1198.36,509.75c-36.35,6.61-73.22,2.84-109.86,3.66-7.51.15-11.32-2.73-11.28-10.65.11-31.34.22-62.72-.11-94.06-.11-9.6,4.93-11.47,12.96-11.36,15.28.26,30.59.07,53.42.07,12.36.67,32.35.64,52,3.06,25.29,3.1,38.29,21.63,39.71,53.27,1.31,28.99-12.89,51.66-36.83,56h0Z"/>
        <path class="cls-3" d="M2150.71,566.83c45.16,1.01,90.33.37,135.53.34,8.29,0,16.32,1.83,16.06-12.14-.78-38.07-24.54-73.67-60.07-83.79-63.99-18.23-143.34,6.43-132.5,107.36,5.12,47.67,39.11,77.36,92.57,80.99,48.08,3.25,83.86-21.41,93.91-64.66-14.39-1.07-23.78,2.37-28.17,10.31-16.29,29.55-39.37,39.78-77.22,34.26-29.18-4.26-48.71-23.46-56.18-53.01-3.85-15.28-.19-20.02,16.06-19.65h0ZM2194.23,483.75c30.89-4.37,61.15,10.5,75.42,37.06,12.74,23.76,9,30.33-17.11,30.33h-118.57c9.04-44.53,25.63-62.53,60.26-67.43v.04Z"/>
        <path class="cls-3" d="M1465.9,556.63c-2.17-59.13-40.98-93.88-102.43-91.71-59.32,2.09-94.62,41.28-91.9,101.98,2.69,60.33,39.3,94.62,98.7,92.46,63.84-2.32,97.99-39,95.63-102.73ZM1366.98,639.75c-45.35-.22-71.09-27.91-71.28-76.69-.22-49.38,26.71-78.45,72.55-78.26,47.74.19,73.18,26.75,73.63,77.03.49,50.36-26.26,78.19-74.9,77.96v-.04Z"/>
      </g>
    </g>
  </g>
</svg>