<?xml version="1.0" encoding="UTF-8"?>
<svg id="Layer_2" data-name="Layer 2" xmlns="http://www.w3.org/2000/svg" viewBox="0 0 286.83 287">
  <defs>
    <style>
      .cls-1 {
        fill: #fee05b;
      }

      .cls-1, .cls-2, .cls-3, .cls-4, .cls-5, .cls-6, .cls-7, .cls-8, .cls-9, .cls-10, .cls-11, .cls-12, .cls-13, .cls-14, .cls-15, .cls-16, .cls-17, .cls-18, .cls-19 {
        stroke-width: 0px;
      }

      .cls-2 {
        fill: #407dae;
      }

      .cls-3 {
        fill: #36709f;
      }

      .cls-4 {
        fill: #fedd56;
      }

      .cls-5 {
        fill: #4280b0;
      }

      .cls-6 {
        fill: #3873a4;
      }

      .cls-7 {
        fill: #fee672;
      }

      .cls-8 {
        fill: #fedb4e;
      }

      .cls-9 {
        fill: #fee56a;
      }

      .cls-10 {
        fill: #3b76a7;
      }

      .cls-11 {
        fill: #ffd541;
        fill-rule: evenodd;
      }

      .cls-12 {
        fill: #4382b4;
      }

      .cls-13 {
        fill: #3f7aab;
      }

      .cls-14 {
        fill: #4685b7;
      }

      .cls-15 {
        fill: #ffd845;
      }

      .cls-16 {
        fill: #336c9b;
      }

      .cls-17 {
        fill: #fee264;
      }

      .cls-18 {
        fill: #4887ba;
      }

      .cls-19 {
        fill: #4a8bbe;
      }
    </style>
  </defs>
  <g id="Layer_1-2" data-name="Layer 1">
    <g>
      <path class="cls-19" d="M110.31,2.41c-1.18.19-3.11.53-4.29.77-1.17.24-3.17.68-4.44.99-1.27.3-3.33.86-4.6,1.26-1.27.38-3.19,1.05-4.29,1.48s-2.78,1.16-3.73,1.65c-.95.47-2.57,1.41-3.57,2.06-1.3.86-2.38,1.76-3.75,3.09-1.06,1.05-2.29,2.44-2.71,3.08-.44.64-1.16,1.89-1.6,2.75-.43.86-1.05,2.31-1.35,3.22-.32.91-.75,2.5-.97,3.53-.21,1.04-.51,2.84-.67,4.01-.21,1.63-.27,3.8-.32,9.47-.03,4.04-.02,7.34.06,7.32.06,0,8.72-10.01,19.24-22.23,10.52-12.22,19.21-22.37,19.3-22.54.13-.22.13-.3,0-.28-.1.02-1.14.17-2.32.38ZM44.83,73.2c-1.05.06-2.68.24-3.65.38-.97.14-2.57.44-3.57.66-1,.22-2.71.68-3.81,1.02-1.1.35-2.81.99-3.81,1.41-1,.42-2.6,1.19-3.57,1.71-.97.53-2.4,1.38-3.17,1.92-.78.52-1.89,1.3-2.46,1.74-.57.44-1.71,1.41-2.54,2.15-.83.74-2.16,2.07-2.94,2.98-.79.9-1.86,2.2-2.38,2.89-.51.69-1.35,1.89-1.84,2.67-.49.79-1.33,2.23-1.86,3.22-.52.99-1.33,2.69-1.78,3.77s-1.1,2.84-1.44,3.93c-.37,1.08-1,3.38-1.41,5.11-.43,1.73-1.03,4.3-1.33,5.73-.3,1.43-.81,3.93-1.11,5.58-.3,1.65-.73,4.23-.95,5.73-.21,1.51-.48,3.53-.57,4.48-.11.94-.17,1.85-.14,2.01.05.19,8.11-9.06,25.53-29.3,14-16.28,25.49-29.68,25.53-29.79.03-.14-.51-.19-2.38-.17-1.32.02-3.27.09-4.32.16Z"/>
      <path class="cls-11" d="M285.56,160.05c.06.08.03.66-.05,1.3-.08.63-.3,1.99-.51,3.03-.21,1.04-.52,2.56-.71,3.38-.18.82-.65,2.65-1.05,4.08-.4,1.43-1.19,4.01-1.76,5.73-.57,1.73-1.59,4.63-2.29,6.44-.68,1.81-1.71,4.37-2.29,5.66-.57,1.3-1.57,3.35-2.21,4.56-.63,1.21-1.57,2.87-2.08,3.69-.52.82-1.48,2.2-2.14,3.06-.65.86-1.79,2.2-2.54,2.97s-1.89,1.82-2.54,2.34c-.65.52-1.67,1.26-2.27,1.63-.59.36-1.73,1.01-2.52,1.4-.81.41-2.3,1.01-3.3,1.33-1,.33-2.57.74-3.49.91-.92.19-2.46.39-3.41.49-1.06.09-8.97.16-20.13.16-10.1,0-18.4-.05-18.45-.11-.03-.08,16.51-11.85,36.78-26.17,20.27-14.33,36.91-25.98,36.96-25.89ZM199.13,220.86h13.25v13.72c0,8.58-.06,14.31-.18,15.35-.08.91-.3,2.39-.48,3.3-.19.91-.59,2.39-.89,3.3-.3.91-.89,2.36-1.3,3.22-.41.86-1.16,2.2-1.67,2.98-.51.79-1.4,2.01-1.98,2.75-.57.74-1.71,1.99-2.51,2.78-.81.8-2.21,2.04-3.09,2.75-.9.71-2.6,1.9-3.78,2.67-1.18.77-3.46,2.06-5.08,2.86-1.62.8-4,1.9-5.32,2.42-1.3.52-3.35,1.27-4.52,1.65-1.17.39-3.14.99-4.37,1.35-1.22.35-3.51.94-5.08,1.34-1.57.39-4.25.99-5.95,1.34-1.7.35-4.27.8-5.71,1.02-1.44.22-3.91.53-5.48.71-1.57.17-4.03.39-5.48.49-1.44.08-4.37.16-6.51.16s-5.06-.08-6.51-.16c-1.44-.09-3.87-.3-5.4-.47-1.52-.16-3.71-.44-4.84-.61-1.13-.17-3-.5-4.13-.71-1.13-.22-2.75-.53-3.57-.72-.83-.17-2.57-.58-3.89-.88-1.3-.31-2.48-.64-2.59-.75-.16-.14,9.25-6.86,43.42-31l43.62-30.84ZM177.46,239.19c-.57.22-1.52.69-2.13,1.05-.59.35-1.56,1.1-2.14,1.67-.57.57-1.41,1.56-1.84,2.2s-1.02,1.78-1.3,2.5c-.27.74-.59,1.84-.7,2.43-.11.68-.16,1.82-.11,2.91.06,1.37.19,2.15.52,3.14.22.74.67,1.81.98,2.36.3.57.92,1.48,1.38,2.04.44.55,1.27,1.38,1.84,1.85.57.46,1.57,1.1,2.22,1.45.65.33,1.68.75,2.3.94.78.25,1.68.38,3.02.44,1.46.06,2.19.02,3.17-.19.7-.16,1.84-.53,2.54-.86.7-.31,1.62-.82,2.06-1.11.43-.3,1.11-.82,1.49-1.16.38-.35,1-1.02,1.37-1.51.36-.47.92-1.32,1.24-1.89.3-.55.76-1.62,1-2.36.41-1.23.44-1.52.44-3.85s-.02-2.56-.51-4.01c-.29-.82-.86-2.04-1.27-2.72-.41-.69-1.21-1.71-1.78-2.29-.57-.58-1.54-1.38-2.14-1.77-.62-.39-1.65-.93-2.3-1.19-.65-.27-1.84-.58-2.62-.72-.79-.14-1.83-.24-2.3-.24-.48.02-1.44.13-2.14.25-.7.13-1.73.41-2.3.64Z"/>
      <path class="cls-16" d="M210.16,54.93c-1.1,1.27-10.84,12.6-21.65,25.17-10.83,12.57-26.49,30.78-34.83,40.45-8.32,9.68-15.08,17.64-15,17.72.06.06,9.73.09,21.48.06,19.13-.05,21.51-.08,22.86-.31.83-.16,2.3-.47,3.25-.72.95-.25,2.46-.72,3.33-1.04s2.33-.96,3.25-1.4c.92-.46,2.24-1.18,2.94-1.6.7-.42,1.87-1.24,2.62-1.79.75-.55,2.16-1.79,3.16-2.75.98-.94,2.25-2.29,2.83-2.98.57-.69,1.52-1.99,2.13-2.91.62-.91,1.57-2.58,2.13-3.69.56-1.12,1.33-2.97,1.71-4.08.38-1.12.86-2.72,1.05-3.53.19-.82.46-2.17.6-2.99.24-1.33.27-4.24.32-28.59.03-14.91,0-27.15-.08-27.21-.06-.06-1.02.93-2.1,2.2Z"/>
      <path class="cls-1" d="M250.85,123.35c-15.91,11.25-62.21,43.96-102.9,72.69l-73.97,52.24c.13,1.59.27,2.72.4,3.54.13.82.44,2.23.71,3.14.27.91.67,2.11.89,2.67.22.57.65,1.49.94,2.09.4.75.6,1.02.75.94.13-.08,14.87-10.48,32.8-23.14,17.92-12.66,32.65-23,32.73-22.97.08.02.14-.5.14-1.15v-1.18c2.86,0,3.46-.06,3.41-.16-.05-.08,19.37-13.89,43.15-30.67,23.76-16.78,54.45-38.46,68.18-48.15,13.72-9.71,25.03-17.61,25.11-17.56.1.05.16.03.16-.03,0-.08-.25-1.23-.56-2.56-.3-1.34-.67-2.89-.81-3.46-.13-.57-.57-2.22-.97-3.69-.4-1.46-.79-2.76-.9-2.88-.1-.11-.21-.19-.25-.19-.05.02-13.1,9.22-29,20.47Z"/>
      <path class="cls-8" d="M226.7,170.37c-32.32,22.84-58.78,41.58-58.81,41.66-.02.06,4.78.13,10.64.16,7.08.02,10.65-.02,10.6-.13-.05-.08,21.86-15.63,48.66-34.56,26.8-18.92,48.8-34.37,48.89-34.33.11.05.13-.69.08-2.15-.05-1.24-.19-3.55-.33-5.15-.13-1.6-.33-3.79-.48-4.87-.13-1.08-.29-2.01-.36-2.06-.06-.06-26.56,18.59-58.88,41.43ZM145.23,227.9c-5.46,3.86-20.78,14.69-34.05,24.05-13.27,9.38-24.51,17.31-24.97,17.64l-.83.6c2.4,1.87,3.89,2.91,4.84,3.54.95.61,2.54,1.56,3.49,2.07.95.53,2.03,1.1,2.38,1.26l.63.31c.49-.55,16.1-11.63,35-24.96,18.91-13.35,36.51-25.76,39.13-27.62,2.62-1.84,4.94-3.49,5.16-3.64.38-.28.17-.3-10.24-.28l-10.64.02-9.92,7.02Z"/>
      <path class="cls-9" d="M218.97,115.95c-.9,2.47-1.38,3.72-1.65,4.37-.29.64-.94,1.99-1.48,2.98-.52.99-1.4,2.48-1.94,3.3-.52.82-1.29,1.92-1.67,2.43-.4.52-1.19,1.51-1.78,2.2-.59.69-1.62,1.84-2.32,2.53-.68.71-1.84,1.81-2.59,2.43-.75.64-1.92,1.6-2.62,2.12-.7.52-1.78,1.27-2.38,1.65-.6.39-1.54.97-2.06,1.29-.52.3-1.92,1.02-3.1,1.57-1.17.57-2.86,1.27-3.73,1.57-.87.31-2.1.71-2.7.9-.6.17-1.73.47-2.51.63-.76.17-2.08.42-2.92.55-.86.14-3.13.3-5.05.35-2.56.08-3.56.16-3.73.31-.13.11-22.81,16.15-50.4,35.63-27.59,19.48-50.21,35.44-50.29,35.47-.06.02-.1,3.41-.08,7.54l.05,7.49c155.87-110.08,201.19-142.05,201.27-142.07.08-.02-.3-.82-.84-1.76-.56-.96-1.48-2.4-2.05-3.22-.59-.82-1.49-2-2-2.59-.52-.61-1.24-1.4-1.6-1.78l-.64-.68-49.21,34.77Z"/>
      <path class="cls-6" d="M196.33,25.08c-3.98,4.63-13.7,15.93-21.59,25.09-7.87,9.16-17.59,20.44-21.57,25.06-3.99,4.62-13.22,15.36-20.56,23.88-7.33,8.52-18.07,20.99-23.86,27.73-5.81,6.74-10.7,12.41-10.89,12.6l-.33.36c.62-.09,1.68-.3,2.78-.52,1.1-.24,2.56-.49,3.25-.6.73-.09,4.13-.2,7.97-.24,3.81-.03,6.7-.12,6.67-.2-.02-.08,20.84-24.4,46.35-54.04,25.53-29.64,46.46-53.87,46.56-53.82.08.05.16-.02.16-.11,0-.11-.25-.97-.57-1.93-.32-.94-1.03-2.69-1.6-3.85-.56-1.16-1.49-2.83-2.06-3.69-.57-.86-1.51-2.15-2.1-2.87-.57-.71-1.13-1.29-1.21-1.29-.1.02-3.41,3.82-7.4,8.45ZM50.65,194.28c-11.68,13.6-14.76,17.27-14.6,17.42.11.09,1.08.25,2.16.35,1.06.09,5.22.17,9.24.17,4.81,0,7.27-.05,7.22-.16-.05-.09,2.32-2.94,5.24-6.33,2.94-3.38,5.38-6.14,5.44-6.13.06.02.11-5.06.11-11.28s0-11.3,0-11.28c0,0-6.67,7.76-14.81,17.23Z"/>
      <path class="cls-15" d="M237.91,177.42c-26.88,18.96-48.83,34.56-48.78,34.64.05.11,4.02.16,11.43.16,6.24,0,11.32-.05,11.27-.13-.03-.06,16.48-11.8,36.72-26.09,20.22-14.3,36.89-26,37.02-26.02.16-.02.27-.3.35-.88.06-.47.22-1.87.35-3.13.13-1.26.32-3.47.41-4.95.1-1.48.16-3.9.16-5.39-.02-1.48-.03-2.7-.05-2.7-.02,0-22.02,15.52-48.88,34.48ZM153.25,237.23c-12.75,9-30.64,21.63-39.75,28.07-9.13,6.44-16.6,11.81-16.64,11.92-.03.11.35.36.86.6.51.22,1.78.75,2.83,1.19,1.05.44,3.37,1.27,5.16,1.85,1.79.6,3.83,1.23,4.52,1.4.7.17,1.41.36,1.59.44.24.08.29.06.19-.08-.08-.12,13.51-9.8,43.11-30.7,23.76-16.76,43.39-30.63,43.61-30.79.4-.28.18-.3-10.95-.28h-11.35l-23.18,16.37Z"/>
      <path class="cls-3" d="M164.6,84.15c-25.49,29.61-46.35,53.92-46.35,54,0,.11,3.52.17,10.19.2,8.11.03,10.21,0,10.22-.16,0-.11,6.79-8.09,15.08-17.72,8.29-9.63,23.54-27.34,33.88-39.35,10.33-12,20.08-23.31,21.65-25.14,1.57-1.81,2.9-3.28,2.98-3.25.06.02.13-3.41.13-7.62s-.08-8.44-.16-9.39c-.1-.94-.32-2.53-.52-3.5-.19-.99-.43-1.79-.56-1.84-.11-.03-20.07,23.03-46.54,53.78ZM59.94,205.7c-2.94,3.41-5.32,6.28-5.27,6.36.05.09,2.02.16,5.4.16h5.32c0-9.87-.02-12.73-.05-12.73s-2.46,2.8-5.4,6.21Z"/>
      <path class="cls-17" d="M174.62,162.29l-100.52,71.04c-.11,11.52-.11,14.86-.06,14.86s33.27-23.46,73.86-52.11c40.57-28.66,86.86-61.35,102.87-72.66,15.98-11.3,29.16-20.52,29.24-20.47.1.05.16.03.16-.05,0-.06-.35-1.13-.78-2.39-.43-1.26-1.08-3.02-1.44-3.93-.36-.91-1.06-2.48-1.56-3.5-.51-1.02-.98-1.84-1.08-1.84s-45.4,31.97-100.69,71.04Z"/>
      <path class="cls-4" d="M267.7,126.41c-8.38,5.94-39.05,27.6-68.15,48.15-29.08,20.53-52.86,37.42-52.81,37.5.05.11,3.76.16,10.64.16,6,0,10.54-.06,10.53-.14-.03-.08,26.41-18.82,58.75-41.66,32.34-22.84,58.86-41.52,58.94-41.49.06.02.08-.24.03-.55-.05-.33-.27-1.73-.48-3.11-.22-1.38-.68-4.04-1.05-5.89-.35-1.85-.73-3.47-.83-3.58-.1-.11-.21-.19-.25-.19-.05.02-6.94,4.89-15.32,10.81ZM110.69,237.32c-17.81,12.6-32.57,23.03-32.8,23.2l-.43.31c.9,1.48,1.52,2.39,1.97,3,.43.6.94,1.26,1.11,1.46.17.2.63.74,1.02,1.18.38.44,1.1,1.19,1.59,1.68.49.49,1.19,1.13,1.56,1.45l.68.58c39.18-27.68,54.88-38.76,60.15-42.48l9.57-6.77-11.78-.08c.03-4.96-.03-6.3-.11-6.33-.1-.05-14.73,10.21-32.53,22.8Z"/>
      <path class="cls-7" d="M220.76,90.58c-.06,15.73-.1,17.72-.33,19.13-.16.86-.43,2.2-.6,2.98-.17.79-.43,1.76-.56,2.2-.14.42-.21.8-.16.82.05.03,11.1-7.71,24.54-17.2,13.43-9.47,24.43-17.28,24.45-17.36,0-.06-.67-.66-1.46-1.32-.81-.66-2.08-1.59-2.83-2.07-.75-.47-1.89-1.13-2.54-1.46-.65-.33-1.9-.88-2.78-1.21-.87-.35-2.33-.8-3.25-1.02-.92-.2-2.41-.52-3.33-.66-1.48-.24-3.38-.28-16.37-.33l-14.72-.06-.06,17.56ZM106.26,146.96c-.35.03-1.21.14-1.9.22-.7.09-1.95.31-2.78.47-.83.17-2.29.57-3.25.88-.95.31-2.49.9-3.41,1.3-.92.41-2.44,1.19-3.38,1.74-.95.57-2.46,1.56-3.33,2.21-.89.66-2.25,1.79-3.03,2.51-.78.72-2.02,2.03-2.75,2.89-.73.86-1.78,2.25-2.33,3.06-.56.82-1.4,2.2-1.87,3.06-.48.86-1.13,2.17-1.44,2.91-.32.74-.81,2.07-1.11,2.98-.3.91-.73,2.53-.95,3.61-.22,1.08-.48,2.73-.57,3.69-.11,1.12-.17,8.45-.17,20.69,0,15.1.05,18.96.21,18.92.11-.03,22.81-16.02,50.46-35.54,27.65-19.53,50.27-35.55,50.29-35.62,0-.06-15.3-.09-34-.09-18.72.02-34.31.06-34.65.08Z"/>
      <path class="cls-10" d="M168.39,36.63c-13.54,15.74-24.76,28.75-24.92,28.89-.29.27-.3.55-.3,3.9v3.61c-6.1,0-6.29.02-6.48.31-.1.17-19.35,22.56-42.77,49.77-23.41,27.19-47.94,55.66-54.48,63.26-6.54,7.6-13.05,15.16-14.45,16.78-1.41,1.63-2.57,3.05-2.6,3.14-.03.11.46.53,1.11.94.63.42,2.02,1.18,3.06,1.68s2.76,1.21,3.81,1.54c1.05.35,2.64.79,3.52.96.9.19,1.75.33,1.87.33s.22-.08.19-.17c-.02-.08,6.6-7.89,14.73-17.33,8.7-10.12,14.81-17.09,14.87-17,.06.09.13-.11.13-.46s.14-1.45.32-2.43c.16-.99.49-2.51.71-3.38.22-.86.67-2.31.98-3.22.3-.91.94-2.47,1.38-3.46.44-.99,1.24-2.55,1.76-3.46.51-.91,1.4-2.33,1.95-3.14.56-.82,1.56-2.17,2.22-2.99.67-.82,2.13-2.42,3.27-3.55,1.14-1.13,2.76-2.58,3.59-3.24.83-.66,2.19-1.65,3.02-2.2.83-.55,2.25-1.43,3.17-1.93.92-.52,2.52-1.32,3.57-1.78,1.05-.47,2.79-1.13,3.89-1.49,1.1-.36,2-.71,2.02-.79.03-.06.14-.06.24,0,.13.08.16.06.1-.03-.06-.08,4.56-5.56,10.24-12.17,5.7-6.61,16.32-18.95,23.61-27.41,7.29-8.47,16.94-19.67,21.43-24.9,4.51-5.23,14.18-16.46,21.51-24.98,7.33-8.51,16.83-19.54,21.1-24.51,4.27-4.96,7.84-9.06,7.92-9.11.08-.05-.63-.85-1.59-1.79-.94-.94-2.29-2.17-2.98-2.72-.7-.55-1.87-1.41-2.62-1.92-.75-.5-1.83-1.21-2.41-1.56l-1.08-.64-24.62,28.62Z"/>
      <path class="cls-13" d="M175.98,11.41c-3.62,4.21-15.34,17.83-26.03,30.27-10.71,12.44-19.43,22.67-19.4,22.75.05.06,2.91.11,6.35.11h6.27c0,.85.06,1.08.14,1.07.1-.03,11.18-12.84,24.62-28.48,13.46-15.63,24.64-28.59,24.83-28.78l.33-.36c-4.06-1.92-6.06-2.76-7.06-3.11-1-.35-2.19-.74-2.65-.86l-.82-.24-6.57,7.64ZM122.63,73.25c-.05.14-8.3,9.77-18.32,21.41-10.02,11.64-34.32,39.87-53.99,62.71-32.03,37.22-35.75,41.58-35.59,41.87.1.17.81,1.02,1.57,1.89.76.86,2.02,2.12,2.81,2.81.78.69,1.81,1.52,2.25,1.85l.84.6c.46-.55,6.02-6.99,12.64-14.69,6.64-7.68,26.22-30.45,43.56-50.59,17.33-20.12,37.56-43.63,44.97-52.22,7.4-8.61,13.45-15.69,13.45-15.76s-3.17-.13-7.05-.13c-6.13,0-7.06.03-7.14.24Z"/>
      <path class="cls-18" d="M126.9.48c-.95.06-3.21.27-5,.46-1.79.17-4.54.49-6.11.69-1.78.24-2.92.47-3.02.6-.08.11-8.79,10.24-19.37,22.51-10.56,12.25-19.26,22.31-19.32,22.34-.06.02-.13,3.96-.13,8.75v8.72c1.24,0,1.57-.06,1.56-.16-.03-.08,4.17-5.06,9.32-11.06,5.16-5.99,9.43-10.86,9.52-10.79.08.05-.16-.36-.54-.93-.4-.57-.95-1.51-1.24-2.12-.29-.6-.67-1.67-.84-2.36-.24-.91-.32-1.76-.32-3.06s.1-2.2.32-3.14c.19-.74.6-1.9.95-2.59.35-.69,1-1.74,1.46-2.36.46-.6,1.29-1.45,1.83-1.89.52-.42,1.38-1.04,1.9-1.34.51-.3,1.38-.71,1.95-.91.57-.2,1.56-.47,2.17-.6.63-.13,1.63-.22,2.22-.22s1.51.08,2.03.16c.52.09,1.3.28,1.75.42.43.13,1.29.49,1.9.79l1.11.55c.49-.61,4.81-5.64,9.92-11.56,5.11-5.92,9.3-10.86,9.33-10.93.02-.09-.32-.14-.79-.14-.46.02-1.64.09-2.59.17ZM51.51,73.26c-.05.13-11.43,13.4-25.27,29.49C12.4,118.85.9,132.16.7,132.33c-.33.3-.37.53-.56,3.46-.14,2.14-.17,4.97-.11,8.88.05,3.16.16,5.92.22,6.17.06.24.17.41.22.39.06-.03,3.86-4.4,8.43-9.71,4.57-5.31,19.64-22.81,33.48-38.88,13.83-16.07,25.21-29.31,25.27-29.43.1-.14-1.56-.19-7.97-.19-7.03,0-8.1.03-8.18.24Z"/>
      <path class="cls-14" d="M132.61.15c-1.87.11-2.25.17-2.4.41-.11.16-4.35,5.12-9.45,11.04-5.09,5.92-9.38,10.9-9.51,11.06-.22.27-.19.31.24.63.25.17.79.61,1.19.94.4.35,1.05,1.02,1.48,1.49.41.49,1.11,1.59,1.54,2.45.43.86.89,2.03,1.02,2.59.13.57.27,1.21.32,1.45.1.41.36.13,3.79-3.85,2.05-2.34,8.33-9.65,13.99-16.21,5.64-6.57,10.25-11.99,10.25-12.07,0-.06-2.3-.09-5.11-.08-2.83,0-6.13.08-7.35.14ZM84.8,53.36c-5.18,6.02-9.37,11-9.33,11.08.05.06,3.37.11,7.38.11,4.81,0,7.27-.05,7.22-.16-.05-.09,3.25-4.02,7.32-8.75l7.41-8.61c-2.51-.17-3.46-.36-4.49-.71-.83-.27-1.97-.75-2.54-1.08-.57-.33-1.59-1.1-2.27-1.73-.67-.61-1.24-1.12-1.27-1.1-.02,0-4.25,4.93-9.43,10.95ZM52.75,90.59c-8.3,9.65-23.41,27.19-33.56,38.99C9.05,141.38.62,151.12.48,151.23c-.24.19-.24.39.03,2.83.16,1.45.49,4.01.75,5.69.25,1.68.59,3.76.75,4.6.16.83.32,1.52.37,1.52s12.94-14.93,28.65-33.16c15.72-18.26,33.67-39.09,39.88-46.31,6.22-7.23,11.32-13.18,11.32-13.24,0-.08-3.24-.13-7.18-.13l-7.19.02-15.1,17.55Z"/>
      <path class="cls-5" d="M130.44,32.35c-15.1,17.53-27.45,31.92-27.46,32-.03.06,3.08.13,6.9.16,4.08.02,6.92-.03,6.91-.11-.03-.08,11.99-14.12,26.7-31.22,14.72-17.09,26.84-31.17,26.95-31.28.16-.16.13-.22-.16-.28-.21-.03-1.68-.22-3.3-.39-1.62-.16-4.17-.41-5.67-.55-1.51-.13-2.91-.24-3.1-.22-.29,0-6.67,7.32-27.78,31.89ZM94.91,73.55c-.22.28-10.25,11.96-22.3,25.95-12.05,14-32.19,37.39-44.77,52l-22.87,26.55c.46,1.82.87,3.27,1.22,4.4.37,1.13,1.08,3.16,1.62,4.51.54,1.37,1.03,2.47,1.1,2.43.06-.02,1.21-1.3,2.56-2.86,1.33-1.56,23.84-27.7,50-58.1,26.16-30.38,47.58-55.28,47.58-55.33s-3.09-.08-6.86-.06h-6.87l-.4.5Z"/>
      <path class="cls-2" d="M170.19,2.21c-.27.28-12.41,14.37-26.99,31.31-14.59,16.94-26.48,30.84-26.45,30.9.03.08,3.17.13,6.97.13s6.87-.05,6.83-.13c-.03-.06,8.87-10.49,19.79-23.2,10.94-12.71,22.64-26.31,26.03-30.24,3.91-4.54,6.08-7.18,5.95-7.24-.11-.06-1.02-.28-2.02-.5-1-.22-3.22-.61-4.92-.86-1.7-.27-3.46-.52-3.9-.58-.78-.09-.84-.08-1.3.42ZM81.26,105.44c-15.32,17.8-37.78,43.89-49.91,57.99-12.13,14.09-22.14,25.75-22.26,25.89-.19.25-.06.58,1.06,2.75.7,1.37,1.95,3.49,2.78,4.71l1.49,2.25c1.56-1.76,17.46-20.23,36.35-42.18,18.89-21.95,42.77-49.68,53.05-61.63,10.29-11.94,18.73-21.82,18.78-21.95.06-.2-.75-.24-6.71-.22h-6.78l-27.86,32.39Z"/>
      <path class="cls-12" d="M145.11.07c-.02.08-.48.68-1.03,1.32-.56.64-6.83,7.93-13.94,16.18l-12.92,15c-.17,3.44-.32,4.26-.63,5.26-.24.74-.68,1.82-1.02,2.42-.32.6-.97,1.56-1.46,2.12-.48.57-1.3,1.38-1.83,1.79-.51.41-1.48,1.02-2.13,1.35-.65.33-1.59.74-2.06.88-.48.16-1.41.36-2.08.46l-1.21.17c-11.48,13.34-14.78,17.27-14.73,17.36.05.09,2.38.16,6.51.16,3.54,0,6.41-.06,6.38-.13-.02-.06,12.3-14.45,27.38-31.97C145.44,14.93,157.76.57,157.73.53c-.02-.05-1-.14-2.18-.24-1.17-.08-4-.2-6.29-.25-2.46-.06-4.14-.05-4.16.03ZM81.97,73.47c-.17.24-5.43,6.36-11.67,13.62-6.25,7.26-23.95,27.84-39.35,45.72-15.38,17.89-28.15,32.66-28.34,32.83l-.35.31c1.03,5,1.59,7.57,1.9,8.95.32,1.38.63,2.65.71,2.83.1.27,5.78-6.25,34.4-39.51,18.86-21.9,39.13-45.47,45.07-52.36,5.94-6.9,10.81-12.6,10.83-12.68.03-.09-2.33-.16-6.43-.16l-6.46.02-.32.42Z"/>
    </g>
  </g>
</svg>