<?xml version="1.0" encoding="UTF-8"?>
<svg id="Layer_2" data-name="Layer 2" xmlns="http://www.w3.org/2000/svg" viewBox="0 0 290 287">
  <defs>
    <style>
      .cls-1 {
        fill: #ffffff;
        stroke-width: 0px;
      }
    </style>
  </defs>
  <g id="Layer_1-2" data-name="Layer 1">
    <g>
      <path class="cls-1" d="M42.47,167.17s-5.35-26.32,22.95-58.2c28.31-31.88,49.55-43.47,72.48-49.51l-.04.02.09-.02s-18.02,10.39-18.02,26.08c0,4.56.73,7.69,1.75,9.78,1.35,2.78,3.49,3.72,5.4,3.73,1.62,0,2.56-.65,4.61-1.43v85.01s.22,1.37,1.46,2.99c1.79,2.34,4.6,5.19,9.89,5.21,9.02-.06,20.36-10.14,20.36-10.14v-68.83c0-7-5.06-15.46-10.43-18.36,0,0,.73-.05,1.92-.05,3.54,0,11.14.4,15.38,3.6,1.18-1.35,20.16-22.61,53.95-29.15l-.02.02.09-.02s-18.69,21.78-24.54,32.57c-1.04.06-1.19,20.49-1.02,40.9.17,19.7.64,39.39.92,40.75,0,0,1.99,2.93,7.07,2.96,5.73.03,15.38-3.64,30.51-19.38,0,0-.4.9-1.2,2.48-4.34,8.57-20.45,37.32-49.07,54.03h0s0,0,0,0l-18.56-15.54-.47-.39-20.25,21.24h-.03s0,0,0,0c0,0-46.15-3.86-65.43-31.39l.09.03-.02-.03s2.92,1.12,6.21,1.19c3.86.07,7.91-1.33,7.91-7.71v-64.72c0-3.31-2.3-7.01-7.35-7-4.54.01-11.06,3.03-19.95,12.07-18.79,19.08-26.59,37.19-26.59,37.19v-.07s-.04.07-.04.07ZM145,276.89c36,0,69.85-13.88,95.31-39.07,25.46-25.2,39.48-58.69,39.48-94.32s-14.02-69.13-39.48-94.32c-25.46-25.19-59.31-39.07-95.31-39.07s-69.85,13.88-95.31,39.07c-25.46,25.19-39.48,58.69-39.48,94.32s14.02,69.13,39.48,94.32c25.46,25.19,59.31,39.07,95.31,39.07Z"/>
      <path class="cls-1" d="M145,3.97c77.87,0,140.99,62.47,140.99,139.53s-63.12,139.53-140.99,139.53S4.01,220.56,4.01,143.5,67.13,3.97,145,3.97ZM145,287c38.73,0,75.14-14.93,102.53-42.03,27.39-27.1,42.47-63.14,42.47-101.47s-15.08-74.37-42.47-101.47C220.14,14.93,183.73,0,145,0S69.86,14.93,42.47,42.03C15.08,69.13,0,105.17,0,143.5s15.08,74.37,42.47,101.47c27.39,27.1,63.8,42.03,102.53,42.03Z"/>
    </g>
  </g>
</svg>