<?xml version="1.0" encoding="UTF-8"?>
<svg id="Layer_2" data-name="Layer 2" xmlns="http://www.w3.org/2000/svg" viewBox="0 0 250.95 250.91">
  <defs>
    <style>
      .cls-1 {
        fill: #3a3a3a;
      }

      .cls-1, .cls-2 {
        stroke-width: 0px;
      }

      .cls-2 {
        fill: #fefefe;
      }
    </style>
  </defs>
  <g id="Layer_2-2" data-name="Layer 2">
    <g>
      <path class="cls-1" d="M250.95,125.5c-.11,69.44-56.15,125.45-125.47,125.41C56.1,250.87-.1,194.48,0,125.34.1,56.09,56.45-.19,125.57,0c69.48.19,125.49,56.26,125.38,125.5Z"/>
      <path class="cls-2" d="M247.52,125.48c0,67.39-54.68,122.02-122.11,122-67.37-.02-121.96-54.72-121.94-122.18C3.49,57.96,58.23,3.39,125.71,3.43c67.22.04,121.81,54.75,121.81,122.05Z"/>
      <path class="cls-1" d="M242.15,125.39c.08,64.34-52.11,116.6-116.56,116.71-64.36.12-116.75-52.23-116.75-116.66,0-64.39,52.22-116.61,116.63-116.65,64.37-.04,116.61,52.16,116.68,116.59Z"/>
      <path class="cls-2" d="M204.99,145.63c-.69,1.34-1.35,2.7-2.07,4.02-8.85,16.11-20.16,30.11-35.23,40.85-1.55,1.11-3.21,2.07-4.77,3.17-.78.55-1.32.51-2.07-.14-4.87-4.18-9.79-8.29-14.67-12.47-.65-.56-.97-.58-1.58.07-5.22,5.59-10.5,11.13-15.71,16.73-.74.79-1.4,1.11-2.51.95-15.86-2.24-30.93-6.63-44.12-16.14-3.81-2.75-7.17-5.99-10-9.76-.25-.33-.59-.61-.68-1.19,1.15.22,2.25.44,3.36.62.54.09,1.1.15,1.65.16,4.75.09,7.06-2.05,7.07-6.81.04-18.75.03-37.49,0-56.24,0-4.49-3.58-7.15-8.21-6.2-4.17.85-7.58,3.16-10.72,5.86-7.59,6.53-13.87,14.22-19.51,22.45-3.01,4.38-5.71,8.94-8.01,13.73-.07.14-.16.28-.52.42-.08-1.32-.23-2.64-.23-3.96,0-8.78,2.25-17.03,5.89-24.95,3.89-8.45,9.24-15.9,15.42-22.81,8.52-9.52,17.55-18.5,27.92-26.04,9.6-6.98,20.06-12.18,31.51-15.37.39-.11.76-.36,1.29-.06-1.92,1.35-3.74,2.71-5.41,4.27-4.32,4.05-7.85,8.62-8.96,14.62-.74,4.03-.54,8.07,1.12,11.88,1.39,3.17,4.13,4.08,7.26,2.6.26-.12.52-.25.79-.39.29.55.16,1.06.16,1.54,0,23.76.01,47.52,0,71.28,0,.97.21,1.81.7,2.65,2.88,4.9,7.96,6.93,13.57,5.29,5.23-1.53,9.62-4.57,13.82-7.93.55-.44.42-.98.42-1.5,0-12.5,0-24.99,0-37.49,0-6.93.06-13.86-.02-20.79-.08-6.84-3.15-12.19-8.49-16.33-.13-.1-.28-.2-.41-.3-.02-.01,0-.07.02-.22,4.8,0,9.57.19,13.84,2.82.59.36.79.09,1.13-.26,10.77-11.17,23.74-18.67,38.56-23.07,2.31-.69,4.64-1.29,7.04-1.69.18.6-.3.81-.53,1.1-6.13,7.45-12.15,14.97-17.61,22.94-2.05,2.99-3.21,6.06-3.29,9.78-.32,14.45-.2,28.9,0,43.35.1,7.18.18,14.36.53,21.54.05.96.44,1.57,1.19,2.09,2.59,1.8,5.41,1.81,8.31,1.09,5.11-1.27,9.31-4.22,13.36-7.42,3.26-2.59,6.25-5.49,9.43-8.33Z"/>
    </g>
  </g>
</svg>