<?xml version="1.0" encoding="UTF-8"?>
<svg id="Layer_2" data-name="Layer 2" xmlns="http://www.w3.org/2000/svg" viewBox="0 0 195.16 200">
  <defs>
    <style>
      .cls-1 {
        fill: #636466;
      }

      .cls-1, .cls-2, .cls-3, .cls-4, .cls-5, .cls-6, .cls-7, .cls-8, .cls-9, .cls-10, .cls-11, .cls-12, .cls-13, .cls-14 {
        stroke-width: 0px;
      }

      .cls-2 {
        fill: #818285;
      }

      .cls-3 {
        fill: #262323;
      }

      .cls-4 {
        fill: #272324;
      }

      .cls-5 {
        fill: #717376;
      }

      .cls-6 {
        fill: #575759;
      }

      .cls-7 {
        fill: #a6a8ab;
      }

      .cls-8 {
        fill: #252122;
      }

      .cls-9 {
        fill: #cbccce;
      }

      .cls-10 {
        fill: #383738;
      }

      .cls-11 {
        fill: #262324;
      }

      .cls-12 {
        fill: #505153;
      }

      .cls-13 {
        fill: #fff;
      }

      .cls-14 {
        fill: #6f7072;
      }
    </style>
  </defs>
  <g id="Layer_1-2" data-name="Layer 1">
    <g>
      <path class="cls-3" d="M.17,154.31c2.08-.01,4.17-.01,6.25-.05.44,0,.56.18.57.57.01.78.06,1.57.06,2.35.03,4.09.04,8.18.1,12.27.03,2.28,1.08,3.24,3.36,3.4,3.01.2,6.01.07,9.01-.05,2-.08,2.94-.99,3.1-3.01.36-4.41.12-8.82.19-13.24.01-.73-.23-1.67.13-2.12.38-.47,1.37-.13,2.09-.14,1.33-.02,2.66.03,3.98-.02.67-.03.86.28.87.84,0,.27,0,.54,0,.81,0,4.98.08,9.97-.15,14.95-.03.76-.08,1.52-.21,2.26-.51,2.79-1.96,4.17-5.14,4.7-5.7.95-11.41,1.1-17.14.25-.88-.13-1.77-.24-2.63-.47-2.95-.81-4.23-2.38-4.46-5.43-.01-.16-.02-.32-.03-.49-.1-.25-.03-.51-.05-.77-.04-.29.09-.59-.08-.87v-.49c.17-.34.04-.7.08-1.05,0-.33,0-.65,0-.98C.03,166.29.19,165.01,0,163.73v-.98c.18-.44.04-.9.08-1.35,0-.47,0-.95,0-1.42,0-.49,0-.98,0-1.47,0-.65,0-1.3,0-1.95.05-.75-.11-1.51.08-2.26Z"/>
      <path class="cls-11" d="M90.09,200c-.63-.38-1.37-.39-2.05-.62-1.51-.51-2.41-1.47-2.55-3.1-.18-2.16-.22-4.33,0-6.49.23-2.19,1.34-3.28,3.52-3.4,2.65-.15,5.3-.27,7.96-.11,1.08.06,2.17-.03,3.24.22,1.71.39,2.77,2.42,2.11,4.03-.11.26-.28.21-.45.21-.87,0-1.73,0-2.6,0-.29,0-.44-.08-.54-.36-.3-.89-1-1.24-1.87-1.29-1.84-.1-3.68-.1-5.52.02-1.16.08-1.83.64-2.01,1.77-.21,1.34-.31,2.69-.08,4.04.17,1,.73,1.63,1.71,1.81,2.26.4,4.53.26,6.79-.03.75-.1,1.28-1.12,1.09-1.84-.1-.37-.37-.25-.58-.25-1.35-.01-2.71-.02-4.06,0-.46,0-.59-.13-.6-.59-.04-1.82-.05-1.82,1.79-1.82,2.25,0,4.5.01,6.74-.01.5,0,.66.11.61.63-.13,1.27-.18,2.54-.3,3.8-.15,1.63-.82,2.39-2.41,2.87-.65.2-1.36.18-1.98.5h-7.97Z"/>
      <path class="cls-10" d="M0,163.73c.34.72.1,1.48.15,2.22.04.56,0,1.13,0,1.7-.06.06-.11.06-.16,0v-3.9Z"/>
      <path class="cls-2" d="M.17,154.31c-.01.75-.02,1.51-.03,2.26-.04.08-.09.08-.14,0C0,155.82,0,155.06,0,154.3c.06,0,.11,0,.17,0Z"/>
      <path class="cls-5" d="M0,156.58s.09,0,.14,0c0,.65,0,1.3,0,1.95-.04.08-.09.08-.14,0v-1.95Z"/>
      <path class="cls-1" d="M0,158.53s.09,0,.14,0c0,.49,0,.97,0,1.46-.04.08-.09.08-.14,0v-1.46Z"/>
      <path class="cls-12" d="M0,159.99s.1,0,.14,0c0,.49,0,.98.01,1.47-.05.08-.1.08-.16,0v-1.46Z"/>
      <path class="cls-10" d="M0,161.46c.05,0,.1,0,.16,0-.06.44.17.9-.16,1.31v-1.3Z"/>
      <path class="cls-6" d="M0,167.64c.05,0,.1,0,.16,0,0,.33,0,.65-.01.98-.05.06-.1.06-.14-.01v-.98Z"/>
      <path class="cls-14" d="M0,168.61s.1,0,.14.01c-.04.32.17.68-.14.97v-.98Z"/>
      <path class="cls-7" d="M0,170.08c.28.23.14.54.14.82-.05.06-.1.06-.14,0v-.81Z"/>
      <path class="cls-9" d="M0,170.89s.09,0,.14,0c0,.27,0,.54,0,.81-.05,0-.09,0-.14,0v-.81Z"/>
      <path class="cls-8" d="M97.29,0c40.67.02,73.6,32.95,73.6,73.62,0,40.67-32.86,73.55-73.59,73.63-40.62.08-73.74-33.05-73.62-73.66C23.79,32.81,56.62-.02,97.29,0Z"/>
      <path class="cls-11" d="M59.88,172.47v-1.06c0-5.42.01-10.84-.02-16.26,0-.65.18-.82.81-.8,1.81.04,3.63.03,5.45,0,.49,0,.65.13.65.63-.02,7.51-.02,15.01,0,22.52,0,.54-.2.62-.67.61-3.12-.02-6.23-.03-9.35,0-.56,0-.82-.27-1.11-.64-4.33-5.55-8.67-11.09-13.02-16.63-.15-.19-.24-.59-.56-.48-.31.11-.16.48-.16.72,0,5.42-.02,10.84,0,16.26,0,.65-.18.82-.81.8-1.79-.04-3.58-.03-5.36,0-.54,0-.68-.14-.68-.68.02-7.53.02-15.07,0-22.6,0-.52.15-.62.64-.62,3.2.02,6.39.03,9.59,0,.5,0,.72.25.97.58,4.4,5.7,8.8,11.4,13.2,17.1.09.12.19.24.42.53Z"/>
      <path class="cls-11" d="M118.81,178.15c-4.09,0-8.18,0-12.28.01-.58,0-.84-.07-.84-.77.03-7.45.03-14.91,0-22.36,0-.63.18-.74.77-.74,8.13.02,16.26.02,24.39,0,.64,0,.83.16.8.8-.05,1.19-.05,2.39,0,3.58.02.58-.16.72-.72.71-5.77-.02-11.54,0-17.32-.03-.75,0-.98.18-.92.93.07.89.06,1.79,0,2.68-.04.62.17.76.77.76,5.28-.02,10.57-.01,15.85-.01q1.28,0,1.28,1.25c0,.92-.04,1.85.01,2.76.04.62-.13.81-.78.8-5.39-.03-10.79,0-16.18-.04-.75,0-.98.19-.93.94.07.89.06,1.79,0,2.68-.04.66.19.8.81.8,5.83-.02,11.65,0,17.48-.04.82,0,1,.23.96,1-.07,1.16-.05,2.33,0,3.49.03.63-.15.82-.8.82-4.12-.03-8.24-.02-12.36-.02Z"/>
      <path class="cls-11" d="M171.74,166.19c0-3.71.01-7.42-.01-11.14,0-.6.13-.78.75-.76,1.87.05,3.74.04,5.61,0,.55-.01.66.17.65.68-.02,5.64,0,11.27-.03,16.91,0,.78.24.91.95.91,4.9-.03,9.81,0,14.71-.03.64,0,.81.16.79.79-.05,1.35-.03,2.71,0,4.06,0,.41-.03.62-.55.62-7.42-.02-14.85-.02-22.27,0-.55,0-.6-.21-.6-.66.02-3.79,0-7.59,0-11.38Z"/>
      <path class="cls-11" d="M63.94,192.84c0-2,.02-4.01-.01-6.01,0-.54.14-.68.67-.67,1.6.04,3.2.03,4.79,0,.49,0,.77.16,1.07.54,2.31,3.01,4.63,6,6.97,8.98.15.19.23.58.58.44.27-.11.14-.44.14-.67,0-2.84.02-5.69-.01-8.53,0-.62.15-.79.76-.76.86.06,1.73.03,2.6,0,.38-.01.51.1.51.5-.01,4.17-.01,8.34,0,12.52,0,.4-.13.49-.51.49-1.71-.02-3.41-.03-5.12,0-.49.01-.66-.3-.89-.59-2.26-2.87-4.52-5.75-6.78-8.62-.12-.15-.24-.3-.36-.44-.13-.16-.24-.39-.52-.27-.23.1-.16.32-.16.5,0,1,0,2,0,3.01,0,1.92-.02,3.85.01,5.77,0,.51-.14.65-.64.62-.84-.04-1.68-.05-2.52,0-.54.03-.62-.18-.61-.65.02-2.06,0-4.12,0-6.18Z"/>
      <path class="cls-11" d="M116.77,189.47c0,3.28-.02,6.34.02,9.39,0,.66-.19.83-.81.79-.81-.05-1.63-.04-2.44,0-.47.02-.6-.14-.6-.6.01-4.04.02-8.07,0-12.11,0-.55.2-.61.66-.6,1.6.02,3.2.03,4.8,0,.46,0,.73.15,1,.51,2.26,2.94,4.53,5.87,6.81,8.8.16.21.26.65.63.49.29-.12.13-.49.14-.74,0-2.76.02-5.53,0-8.29,0-.55.12-.77.71-.73.84.05,1.68.03,2.52,0,.38,0,.59.04.59.51-.02,4.12-.01,8.24,0,12.36,0,.37-.13.45-.47.45-1.71-.01-3.41-.02-5.12,0-.41,0-.56-.24-.76-.49-2.34-2.99-4.67-5.97-7.01-8.95-.16-.21-.34-.41-.64-.78Z"/>
      <path class="cls-11" d="M53.85,199.66c-2.25,0-4.5-.02-6.75.01-.58,0-.72-.17-.71-.73.02-4.04.02-8.07,0-12.11,0-.53.13-.68.67-.68,4.44.02,8.89.02,13.33,0,.5,0,.67.12.62.63-.06.7.22,1.61-.13,2.04-.37.45-1.32.13-2.01.14-2.63.02-5.26.02-7.88,0-.56,0-.73.13-.73.71.02,1.82,0,1.82,1.8,1.82,2.55,0,5.09.02,7.64-.01.57,0,.8.08.79.73-.03,2.07,0,2.07-2.04,2.07-2.49,0-4.98.02-7.48-.01-.58,0-.72.17-.71.73.02,1.78,0,1.78,1.75,1.78,2.87,0,5.74.01,8.61-.01.52,0,.73.11.68.66-.08.72.29,1.65-.14,2.11-.4.43-1.33.12-2.03.12-1.76.02-3.52,0-5.28,0Z"/>
      <path class="cls-11" d="M141.72,199.65c-2.22,0-4.44-.02-6.67.01-.59,0-.71-.18-.71-.73.02-3.96.02-7.91,0-11.87,0-.57.15-.72.72-.72,4.36.02,8.73.02,13.09,0,.55,0,.74.12.73.7-.01,2,.01,2.01-1.96,2.01-2.63,0-5.26.02-7.89-.02-.59,0-.71.17-.7.72.02,1.78,0,1.78,1.81,1.78,2.49,0,4.99.01,7.48-.01.52,0,.68.12.68.66,0,2.07.01,2.07-2.04,2.07-2.44,0-4.88.02-7.32-.01-.55,0-.68.16-.68.68,0,1.84-.02,1.84,1.78,1.84,2.79,0,5.58.01,8.37-.01.51,0,.74.1.69.66-.05.51-.05,1.03,0,1.54.06.61-.2.7-.74.69-2.22-.03-4.44-.01-6.67-.01Z"/>
      <path class="cls-4" d="M109.46,193c0,2-.02,4.01.01,6.01,0,.53-.13.7-.67.67-.86-.05-1.73-.03-2.6,0-.35,0-.47-.11-.47-.46,0-4.12,0-8.23,0-12.35,0-.38.12-.52.51-.51.87.02,1.73.04,2.6,0,.53-.03.63.16.62.64-.02,2-.01,4.01-.01,6.01Z"/>
      <path class="cls-11" d="M100.68,172.42c-.28-2.01-1.01-2.87-2.99-3.3-.35-.08-.68-.14-.92-.43,2.83-1.09,3.78-2.26,4-5.08.13-1.62.03-3.24-.25-4.85-.39-2.2-1.65-3.5-3.82-3.98-1.86-.41-3.74-.6-5.64-.6-5.31-.02-10.62-.02-15.93-.02-.81,0-1.62.05-2.44.06-.42,0-.52.19-.52.6.01,7.59.01,15.17,0,22.76,0,.5.18.56.61.56,1.9-.02,3.79-.02,5.69,0,.46,0,.6-.12.59-.58-.03-1.44-.01-2.87-.01-4.31,0-1.69,0-1.7,1.65-1.7,3.44,0,6.88-.02,10.31.32,1.76.18,2.46.84,2.67,2.57.13,1.07.2,2.16.27,3.24.02.32.09.48.46.48,1.98-.02,3.95-.02,5.93,0,.42,0,.49-.17.48-.53-.04-1.73.09-3.46-.15-5.19ZM93.69,163.3c-.01.27-.02.54-.04.81-.12,1.36-.82,2.08-2.19,2.1-1.92.04-3.84,0-5.76,0,0,.02,0,.03,0,.05-1.97,0-3.95-.02-5.92.01-.53,0-.69-.15-.68-.69.03-1.84.03-3.68,0-5.52,0-.49.12-.66.63-.65,3.49.03,6.98,0,10.47.05,2.97.05,3.66.85,3.5,3.82Z"/>
      <path class="cls-11" d="M168.37,177.4c-4.1-7.48-8.19-14.98-12.26-22.48-.26-.48-.53-.7-1.11-.69-2.46.04-4.93.04-7.39,0-.55,0-.81.2-1.05.65-4.04,7.49-8.1,14.96-12.15,22.45-.14.25-.35.48-.35.85,2.33,0,4.65,0,6.97,0,.38,0,.5-.2.65-.47.51-.98,1.07-1.94,1.53-2.95.26-.56.57-.77,1.22-.77,4.6.04,9.21.03,13.81,0,.54,0,.88.11,1.13.65.46,1,1.04,1.96,1.53,2.95.21.42.46.57.93.56,2.03-.03,4.06-.04,6.09,0,.74.01.8-.13.45-.77ZM155.86,168.87c-3.03,0-6.06,0-9.1,0-.3,0-.58,0-.35-.43,1.61-3.14,3.21-6.29,4.86-9.54,1.67,3.25,3.27,6.39,4.89,9.52.21.4.05.45-.3.45Z"/>
      <path class="cls-13" d="M165.7,73.69c.05-37.8-30.47-68.39-68.36-68.5-37.77-.1-68.51,30.61-68.5,68.45.01,37.78,30.49,68.29,68.36,68.43,37.67.15,68.44-30.57,68.49-68.39ZM143.61,86.02c-5.38,10.44-12.48,19.42-22.19,26.18-.75.52-1.56.97-2.31,1.51-.42.3-.68.2-1.03-.1-2.86-2.45-5.75-4.86-8.61-7.32-.46-.4-.67-.36-1.07.07-3.03,3.25-6.09,6.47-9.12,9.72-.45.48-.84.66-1.52.57-6.99-.94-13.72-2.74-20.05-5.9-4.71-2.36-8.86-5.42-12.02-9.7-.04-.06-.08-.12-.15-.25.91.14,1.76.28,2.61.41.57.09,1.14.02,1.7-.07,1.46-.24,2.46-1.28,2.67-2.78.08-.56.1-1.13.1-1.7,0-10.62-.05-21.25.03-31.87.03-3.47-2.44-4.93-5.43-4.05-2.15.63-3.98,1.84-5.62,3.31-6.6,5.89-11.83,12.84-15.86,20.7-.14.28-.27.56-.5,1.02-.37-2.69-.21-5.16.22-7.62,1.25-7.24,4.49-13.58,9.01-19.27,5.64-7.09,11.98-13.48,19.29-18.87,5.65-4.16,11.84-7.23,18.6-9.12.24-.07.48-.25.83-.06-1.74,1.17-3.3,2.5-4.68,4.02-3.38,3.72-4.8,7.96-3.47,12.94.17.63.42,1.23.8,1.76.82,1.13,2.04,1.52,3.37,1.06.43-.15.85-.32,1.34-.5v42.34c0,2.48,1.82,4.71,4.27,5.29,1.51.35,2.96.1,4.38-.42,2.66-.96,4.93-2.56,7.11-4.32.28-.23.35-.49.35-.84,0-11.57.05-23.14-.04-34.72-.03-3.9-1.93-7.01-5.15-9.49,3,.01,5.83.11,8.37,1.66.31.19.42.03.59-.15,6.68-6.89,14.73-11.43,23.97-13.91.96-.26,1.94-.46,3.14-.75-.75.92-1.36,1.65-1.96,2.39-3.38,4.17-6.72,8.35-9.65,12.86-.81,1.25-1.18,2.55-1.22,4.03-.37,12.52-.1,25.04.2,37.55.05,2.25,1,3.19,3.32,3.31,1.69.09,3.26-.41,4.77-1.12,3.38-1.6,6.16-4,8.84-6.54.61-.58,1.22-1.18,1.84-1.79.16.27,0,.39-.06.52Z"/>
    </g>
  </g>
</svg>