<?xml version="1.0" encoding="UTF-8"?>
<svg id="Layer_2" data-name="Layer 2" xmlns="http://www.w3.org/2000/svg" viewBox="0 0 191.95 191.92">
  <defs>
    <style>
      .cls-1 {
        fill: #3a3a3a;
      }

      .cls-1, .cls-2 {
        stroke-width: 0px;
      }

      .cls-2 {
        fill: #fefefe;
      }
    </style>
  </defs>
  <g id="Layer_2-2" data-name="Layer 2">
    <g>
      <path class="cls-1" d="M191.95,95.99c-.09,53.11-42.94,95.95-95.97,95.92C42.91,191.89-.08,148.75,0,95.87.08,42.9,43.18-.14,96.05,0c53.14.15,95.99,43.03,95.9,95.99Z"/>
      <path class="cls-2" d="M189.32,95.98c0,51.54-41.82,93.33-93.4,93.32-51.53-.01-93.29-41.85-93.27-93.45C2.67,44.33,44.54,2.59,96.15,2.62c51.41.03,93.17,41.87,93.17,93.35Z"/>
      <path class="cls-1" d="M185.21,95.91c.06,49.21-39.86,89.18-89.16,89.27-49.23.09-89.3-39.95-89.3-89.23,0-49.25,39.94-89.2,89.21-89.22,49.23-.03,89.19,39.9,89.25,89.18Z"/>
      <path class="cls-2" d="M156.79,111.39c-.53,1.03-1.03,2.06-1.59,3.07-6.77,12.32-15.42,23.03-26.95,31.24-1.19.85-2.46,1.58-3.65,2.42-.6.42-1.01.39-1.58-.1-3.72-3.2-7.49-6.34-11.22-9.54-.5-.43-.74-.45-1.21.05-3.99,4.28-8.03,8.51-12.02,12.8-.56.6-1.07.85-1.92.73-12.13-1.72-23.66-5.07-33.75-12.34-2.92-2.1-5.49-4.58-7.65-7.47-.19-.25-.45-.46-.52-.91.88.17,1.72.33,2.57.48.41.07.84.11,1.26.12,3.63.07,5.4-1.57,5.4-5.21.03-14.34.02-28.68,0-43.01,0-3.43-2.74-5.47-6.28-4.75-3.19.65-5.8,2.41-8.2,4.48-5.81,4.99-10.61,10.88-14.92,17.17-2.3,3.35-4.36,6.84-6.13,10.5-.05.11-.12.21-.4.32-.06-1.01-.18-2.02-.18-3.03,0-6.71,1.72-13.03,4.51-19.08,2.97-6.46,7.07-12.17,11.79-17.45,6.52-7.28,13.42-14.15,21.35-19.92,7.34-5.34,15.34-9.32,24.1-11.76.3-.08.58-.27.98-.05-1.46,1.03-2.86,2.08-4.14,3.27-3.31,3.1-6.01,6.6-6.85,11.18-.57,3.09-.42,6.17.86,9.08,1.06,2.42,3.16,3.12,5.55,1.99.2-.09.39-.19.61-.3.22.42.12.81.12,1.18,0,18.17,0,36.35,0,54.52,0,.74.16,1.39.54,2.02,2.21,3.75,6.09,5.3,10.38,4.04,4-1.17,7.36-3.49,10.57-6.07.42-.34.32-.75.32-1.15,0-9.56,0-19.12,0-28.68,0-5.3.05-10.6-.01-15.9-.06-5.23-2.41-9.32-6.49-12.49-.1-.08-.21-.15-.31-.23-.01,0,0-.06.02-.17,3.67,0,7.32.15,10.58,2.15.45.28.61.07.87-.2,8.24-8.54,18.16-14.28,29.49-17.65,1.77-.52,3.55-.99,5.38-1.29.14.46-.23.62-.41.84-4.69,5.7-9.3,11.45-13.47,17.55-1.57,2.29-2.45,4.63-2.52,7.48-.25,11.05-.15,22.11,0,33.16.08,5.49.14,10.99.41,16.48.04.74.34,1.2.91,1.6,1.98,1.37,4.14,1.39,6.35.84,3.91-.97,7.12-3.22,10.22-5.68,2.5-1.98,4.78-4.2,7.21-6.37Z"/>
    </g>
  </g>
</svg>