<?xml version="1.0" encoding="UTF-8"?>
<svg id="Layer_2" data-name="Layer 2" xmlns="http://www.w3.org/2000/svg" xmlns:xlink="http://www.w3.org/1999/xlink" viewBox="0 0 201.04 200">
  <defs>
    <style>
      .cls-1 {
        fill: #6c33af;
      }

      .cls-1, .cls-2, .cls-3, .cls-4, .cls-5 {
        stroke-width: 0px;
      }

      .cls-2 {
        fill: #b179f1;
      }

      .cls-3 {
        fill: #854cc7;
      }

      .cls-4 {
        fill: url(#linear-gradient);
        fill-rule: evenodd;
      }

      .cls-5 {
        fill: #52218a;
      }

      .cls-6 {
        opacity: .25;
      }
    </style>
    <linearGradient id="linear-gradient" x1="100.52" y1="694.25" x2="100.52" y2="894.25" gradientTransform="translate(0 -694.25)" gradientUnits="userSpaceOnUse">
      <stop offset="0" stop-color="#fff"/>
      <stop offset="1" stop-color="#fff" stop-opacity="0"/>
    </linearGradient>
  </defs>
  <g id="Layer_1-2" data-name="Layer 1">
    <g>
      <path class="cls-5" d="M29.05,157.38c-2.4,2.05-5.75,2.58-8.67,1.36l-15.22-6.39c-3.1-1.3-5.13-4.32-5.15-7.69V55.33c.02-3.36,2.05-6.39,5.15-7.69l15.22-6.28c2.92-1.22,6.27-.69,8.67,1.36l3.41,2.83c-2.08-1.49-4.97-1.02-6.46,1.06-.57.79-.87,1.74-.87,2.71v101.36c0,2.56,2.06,4.63,4.62,4.64.97,0,1.92-.3,2.71-.87l-3.41,2.93Z"/>
      <path class="cls-1" d="M5.15,152.36c-3.1-1.3-5.13-4.32-5.15-7.69v-.69c.03,2.67,2.22,4.81,4.89,4.79,1.32-.01,2.58-.57,3.49-1.54L138.22,3.67c3.77-3.75,9.49-4.72,14.28-2.43l41.42,19.94c4.35,2.09,7.12,6.5,7.12,11.33v.48c0-4.38-3.56-7.93-7.94-7.93-1.83,0-3.6.64-5.02,1.79L32.46,154.45l-3.41,2.93c-2.4,2.05-5.75,2.58-8.67,1.36l-15.22-6.39Z"/>
      <path class="cls-3" d="M5.15,47.65c-3.1,1.3-5.13,4.32-5.15,7.69v.69c.03-2.67,2.22-4.81,4.89-4.79,1.32.01,2.58.57,3.49,1.54l129.84,143.56c3.77,3.75,9.49,4.72,14.28,2.43l41.42-19.94c4.35-2.09,7.12-6.5,7.12-11.33v-.48c0,4.38-3.56,7.93-7.94,7.93-1.83,0-3.6-.64-5.02-1.79L32.46,45.55l-3.41-2.93c-2.42-2.02-5.77-2.5-8.67-1.26l-15.22,6.28Z"/>
      <path class="cls-2" d="M152.5,198.76c-4.8,2.29-10.51,1.32-14.28-2.43,2.89,2.87,7.56,2.85,10.42-.04,1.37-1.38,2.14-3.24,2.14-5.18V8.93c.01-4.07-3.28-7.38-7.35-7.4-1.95,0-3.83.76-5.22,2.14,3.77-3.75,9.49-4.72,14.28-2.43l41.42,19.92c4.35,2.09,7.12,6.5,7.12,11.33v135.03c0,4.83-2.77,9.24-7.12,11.33l-41.42,19.92Z"/>
      <g class="cls-6">
        <path class="cls-4" d="M144.27,199.69c2.77.63,5.67.31,8.23-.92l41.42-19.92c4.35-2.09,7.12-6.5,7.12-11.33V32.49c0-4.83-2.77-9.24-7.12-11.33L152.5,1.24c-2.93-1.41-6.29-1.63-9.38-.61-1.85.62-3.52,1.66-4.9,3.04l-66.76,73.84-38.99-31.96-3.41-2.93c-2.08-1.78-4.91-2.43-7.56-1.74-.38.08-.75.21-1.11.38l-15.22,6.39c-2.91,1.2-4.89,3.92-5.15,7.06v90.59c.26,3.13,2.25,5.86,5.15,7.06l15.22,6.28c.36.17.73.29,1.11.38,2.65.69,5.48.04,7.56-1.74l3.41-2.83,38.99-31.96,66.76,73.84c1.66,1.66,3.76,2.82,6.05,3.35ZM150.78,57.45l-51.91,42.55,51.91,42.55V57.45ZM25.13,71.25l25.99,28.75-25.99,28.75v-57.51Z"/>
      </g>
    </g>
  </g>
</svg>