<?xml version="1.0" encoding="UTF-8"?>
<svg id="Layer_2" data-name="Layer 2" xmlns="http://www.w3.org/2000/svg" viewBox="0 0 347.48 287">
  <defs>
    <style>
      .cls-1 {
        fill: #2b3050;
      }

      .cls-1, .cls-2, .cls-3, .cls-4, .cls-5, .cls-6, .cls-7, .cls-8 {
        stroke-width: 0px;
      }

      .cls-2 {
        fill: #89c154;
      }

      .cls-3 {
        fill: #83c8f1;
      }

      .cls-4 {
        fill: #fcd01d;
      }

      .cls-5 {
        fill: #e6f1fe;
      }

      .cls-6 {
        fill: #4aace6;
      }

      .cls-7 {
        fill: #f4536b;
      }

      .cls-8 {
        fill: #47556a;
      }
    </style>
  </defs>
  <g id="Layer_1-2" data-name="Layer 1">
    <g>
      <path class="cls-1" d="M173.17,286.99c-45.7,0-91.39,0-137.09,0-21.65,0-35.83-14.09-35.84-35.62C.23,179.65.55,107.93,0,36.22-.14,17.58,13.48-.29,36.6,0c30.21.38,60.42.09,90.63.09,61.44,0,122.87-.01,184.31,0,17.68,0,30.77,9.85,34.88,26.25.83,3.32,1.06,6.74,1.05,10.18-.12,34.77-.27,69.55-.32,104.32-.06,36.94.02,73.87-.03,110.81-.02,17.34-9.75,30.35-25.53,34.3-3.34.84-6.75,1.04-10.19,1.04-46.08-.02-92.16-.01-138.23-.01Z"/>
      <path class="cls-5" d="M173.54,71.09c54.33,0,108.66.04,163-.09,3.68,0,4.59.89,4.59,4.58-.13,58.52-.32,117.03.05,175.55.11,17.31-12.45,29.95-30.09,29.9-91.65-.23-183.31-.1-274.96-.11-15.76,0-26.87-8.73-29.44-23.14-.37-2.1-.35-4.29-.35-6.45-.02-58.64.01-117.29-.09-175.93,0-3.38.72-4.41,4.29-4.4,54.33.13,108.66.09,163,.09Z"/>
      <path class="cls-3" d="M173.16,64.89c-54.07,0-108.15-.05-162.22.1-3.99.01-4.81-1.13-4.68-4.85.28-8.49.05-17,.1-25.51.09-16.08,11.82-27.91,27.83-27.91,93.04-.03,186.08-.03,279.12,0,15.93,0,27.44,11.62,27.54,27.62.05,8.88-.14,17.77.09,26.65.08,3.22-.91,3.96-4.03,3.95-54.58-.1-109.16-.07-163.74-.07Z"/>
      <path class="cls-1" d="M91.46,176.06c-.2-45.01,36.71-82.23,81.76-82.43,45.41-.2,83.1,36.69,82.8,82.2-.33,48.45-38.95,81.96-81.05,82.29-46.39.36-83.29-36.06-83.5-82.07Z"/>
      <path class="cls-1" d="M87.88,50.94c-12.05,0-24.1.02-36.15,0-9.47-.02-16.43-6.54-16.38-15.3.05-8.61,6.93-15.1,16.17-15.11,24.22-.03,48.45-.03,72.67,0,9.04.01,16.13,6.82,16.05,15.28-.08,8.5-7.12,15.1-16.22,15.13-12.05.03-24.1,0-36.15,0Z"/>
      <path class="cls-1" d="M224.23,35.66c.02,8.47-6.71,15.26-15.12,15.25-8.21,0-15.32-7.18-15.21-15.33.11-8.11,7.01-14.98,15.1-15.04,8.45-.06,15.21,6.66,15.23,15.12Z"/>
      <path class="cls-1" d="M237.91,35.66c.02-8.48,6.84-15.22,15.3-15.11,8.12.11,15.03,7.12,14.98,15.21-.04,8.11-6.98,15.07-15.09,15.13-8.43.06-15.21-6.74-15.2-15.24Z"/>
      <path class="cls-1" d="M311.86,35.69c.01,8.46-6.73,15.24-15.13,15.21-8.21-.02-15.23-7.13-15.17-15.35.06-8.03,7.04-14.96,15.12-15,8.44-.04,15.18,6.67,15.19,15.14Z"/>
      <path class="cls-6" d="M115.26,178.97c4.81,0,9.63.06,14.44-.03,1.77-.03,2.39.56,2.49,2.37.49,9.35,1.27,18.68,3.51,27.8.49,1.98-.24,2.82-2.07,3.15-7.11,1.28-14.04,3.27-20.82,5.72-1.74.63-2.52.07-3.37-1.27-6.77-10.68-10.5-22.36-11.66-34.92-.2-2.13.44-2.92,2.66-2.86,4.94.14,9.88.04,14.82.04Z"/>
      <path class="cls-6" d="M249.6,182.02c-1.37,13.15-5.13,24.44-11.72,34.78-.76,1.19-1.39,1.76-3.02,1.19-6.93-2.4-14-4.4-21.2-5.85-1.76-.35-2.44-.87-1.96-3.02,2.02-9.03,3.35-18.18,3.35-27.45,0-2.63,1.29-2.75,3.3-2.74,9.13.06,18.25.15,27.38-.04,3.25-.07,4.52.87,3.87,3.12Z"/>
      <path class="cls-6" d="M232.42,172.87c-4.82,0-9.63-.08-14.45.04-2.08.05-2.89-.53-2.91-2.74-.08-9.27-1.34-18.42-3.36-27.45-.48-2.14.15-2.53,1.98-2.93,7.04-1.55,14.04-3.29,20.81-5.81,1.55-.58,2.46-.44,3.4,1.07,6.6,10.62,10.57,22.07,11.6,34.56.24,2.87-.86,3.4-3.4,3.31-4.56-.17-9.12-.05-13.68-.05Z"/>
      <path class="cls-6" d="M114.78,172.87c-4.82,0-9.65-.08-14.47.04-2,.05-2.71-.59-2.54-2.61,1.09-12.74,4.95-24.53,11.8-35.35.84-1.33,1.7-1.5,3.14-1.01,6.83,2.35,13.76,4.41,20.87,5.73,2.17.4,2.52,1.39,2.03,3.43-2.12,8.78-2.96,17.75-3.36,26.74-.12,2.6-1.03,3.16-3.38,3.09-4.69-.15-9.39-.04-14.09-.04Z"/>
      <path class="cls-6" d="M170.77,193.81c0,3.93-.06,7.86.03,11.79.04,1.8-.65,2.39-2.43,2.48-7.84.4-15.68.79-23.44,2.12-2.06.35-2.97-.35-3.39-2.35-1.85-8.69-2.74-17.49-3.31-26.34-.13-2.09.72-2.58,2.63-2.56,9.13.07,18.26.08,27.39,0,2.07-.02,2.6.81,2.55,2.7-.1,4.06-.03,8.11-.03,12.17Z"/>
      <path class="cls-6" d="M154.21,172.87c-4.31,0-8.63-.09-12.93.04-2.19.07-3.24-.4-3.06-2.91.64-8.72,1.48-17.4,3.31-25.96.42-1.96,1.26-2.75,3.36-2.39,7.75,1.34,15.58,1.88,23.43,2.12,2.13.07,2.49,1,2.48,2.81-.06,7.86-.1,15.72.02,23.58.03,2.25-.84,2.8-2.91,2.74-4.56-.12-9.13-.04-13.69-.04Z"/>
      <path class="cls-6" d="M193.15,178.97c4.32,0,8.64.12,12.95-.05,2.37-.09,3.04.71,2.96,3.03-.29,8.77-1.54,17.41-3.18,26.01-.37,1.91-1.33,2.52-3.18,2.23-7.9-1.26-15.88-1.7-23.85-2.14-1.46-.08-2-.69-1.99-2.1.02-8.25.05-16.5-.02-24.76-.02-1.98.98-2.27,2.61-2.25,4.57.06,9.14.02,13.71.02Z"/>
      <path class="cls-6" d="M193.08,172.87c-4.44,0-8.89-.07-13.33.03-2.02.05-2.97-.41-2.94-2.7.12-7.87.11-15.74,0-23.61-.03-2.18.76-2.75,2.85-2.85,7.47-.33,14.94-.69,22.32-2.04,2.25-.41,3.49.14,3.97,2.62,1.61,8.35,2.71,16.75,3.12,25.25.13,2.79-.83,3.46-3.42,3.34-4.18-.19-8.38-.05-12.56-.05Z"/>
      <path class="cls-6" d="M170.77,119.32c0,5.2-.08,10.4.04,15.59.05,2.1-.56,2.99-2.79,2.84-7.2-.5-14.4-.89-21.54-1.99-1.58-.24-2.77-.56-2.05-2.56,3.86-10.81,8.25-21.32,17.53-28.81,2.35-1.9,5.26-4.63,7.94-3.48,2.18.95.71,4.81.83,7.37.17,3.67.04,7.35.04,11.03Z"/>
      <path class="cls-6" d="M170.77,232.95c0,5.32-.06,10.64.03,15.95.04,2.44-.92,2.88-3,2.01-4.18-1.73-7.63-4.43-10.55-7.86-5.93-6.96-9.58-15.11-12.58-23.64-.82-2.34-.26-2.98,2.14-3.37,6.89-1.12,13.85-1.21,20.76-1.91,2.56-.26,3.3.81,3.23,3.25-.14,5.19-.04,10.38-.04,15.57Z"/>
      <path class="cls-6" d="M176.86,118.84c0-5.19.11-10.38-.04-15.56-.09-3,1.02-3.11,3.36-2.08,5.8,2.54,9.9,6.94,13.35,12.02,4.07,6,6.91,12.61,9.29,19.44.67,1.92.53,2.82-1.83,3.15-7.14,1-14.32,1.44-21.5,1.93-2.39.16-2.68-1.03-2.65-2.96.08-5.31.03-10.63.03-15.94Z"/>
      <path class="cls-6" d="M176.86,232.64c0-5.2.06-10.41-.03-15.61-.04-2.02.42-3.1,2.74-2.9,7.32.63,14.68.81,21.94,2.06,1.33.23,2.12.37,1.56,2.06-3.62,10.81-8.17,21.07-16.97,28.82-1.92,1.69-4.12,2.91-6.52,3.85-2.02.79-2.77.28-2.74-1.9.07-5.46.02-10.92.02-16.37Z"/>
      <path class="cls-6" d="M153.68,102.99c-7.22,8.72-11.91,18.61-15.24,29.2-.57,1.81-1.57,2.05-3.11,1.71-6.17-1.39-12.31-2.9-18.33-4.88-1.34-.44-2.51-.97-1.1-2.58,10.18-11.63,22.62-19.64,37.78-23.44Z"/>
      <path class="cls-6" d="M154.45,249.22c-5.21-.75-9.09-2.57-12.96-4.35-9.55-4.4-17.71-10.71-24.8-18.47-1.82-1.99-1.8-2.95.95-3.77,5.82-1.73,11.68-3.26,17.59-4.61,1.86-.42,2.75,0,3.3,1.87,1.54,5.22,3.63,10.25,6.1,15.1,2.47,4.85,5.6,9.29,9.82,14.22Z"/>
      <path class="cls-6" d="M192.59,102.47c6,1.17,10.6,3.18,15.11,5.41,8.96,4.44,16.58,10.6,23.33,17.96,2.05,2.24.96,2.79-1.12,3.34-5.74,1.53-11.48,3.05-17.2,4.62-2.29.63-3.32-.14-4.06-2.47-3.27-10.32-7.85-19.99-16.06-28.86Z"/>
      <path class="cls-6" d="M192.98,248.96c7.9-8.46,12.4-18.18,15.7-28.5.75-2.35,1.71-2.93,4.08-2.38,5.92,1.38,11.78,2.95,17.58,4.78,1.53.48,2.66.88,1.03,2.72-9.91,11.19-21.87,19.15-36.27,23.35-.46.13-1,.02-2.12.02Z"/>
      <path class="cls-8" d="M87.86,44.87c-11.93,0-23.86.04-35.79-.02-4.33-.02-8-1.45-9.75-5.85-2.37-5.96,1.96-12.28,8.64-12.35,9.9-.12,19.8-.03,29.7-.03,14.34,0,28.69-.04,43.03.02,6.64.03,10.02,3.43,9.91,9.7-.09,5.3-3.72,8.5-9.93,8.53-11.93.06-23.86.02-35.79.02Z"/>
      <path class="cls-7" d="M209.17,26.69c4.72-.03,8.91,4.15,8.95,8.95.04,4.78-4.08,9.06-8.8,9.13-4.96.07-9.25-4.21-9.17-9.16.08-4.84,4.17-8.88,9.02-8.92Z"/>
      <path class="cls-4" d="M244.03,35.56c.07-4.83,4.22-8.92,9.01-8.86,4.89.06,8.89,4.1,8.88,8.99,0,5.07-4.22,9.23-9.2,9.07-4.81-.15-8.76-4.33-8.7-9.19Z"/>
      <path class="cls-2" d="M305.75,35.7c-.05,4.83-4.18,9.07-8.85,9.08-4.96.01-9.24-4.32-9.12-9.23.12-4.85,4.23-8.87,9.09-8.87,4.7,0,8.93,4.29,8.88,9.02Z"/>
    </g>
  </g>
</svg>