<?xml version="1.0" encoding="UTF-8"?>
<svg id="Layer_2" data-name="Layer 2" xmlns="http://www.w3.org/2000/svg" viewBox="0 0 394.49 200">
  <defs>
    <style>
      .cls-1 {
        fill: #81dcf8;
      }

      .cls-1, .cls-2, .cls-3, .cls-4, .cls-5, .cls-6, .cls-7, .cls-8, .cls-9, .cls-10, .cls-11, .cls-12, .cls-13, .cls-14, .cls-15, .cls-16, .cls-17, .cls-18, .cls-19, .cls-20, .cls-21, .cls-22, .cls-23, .cls-24, .cls-25, .cls-26, .cls-27, .cls-28, .cls-29, .cls-30, .cls-31, .cls-32, .cls-33, .cls-34, .cls-35, .cls-36, .cls-37, .cls-38, .cls-39, .cls-40, .cls-41, .cls-42, .cls-43, .cls-44, .cls-45, .cls-46, .cls-47, .cls-48, .cls-49, .cls-50, .cls-51, .cls-52, .cls-53, .cls-54, .cls-55, .cls-56, .cls-57, .cls-58, .cls-59, .cls-60, .cls-61, .cls-62, .cls-63, .cls-64, .cls-65, .cls-66, .cls-67, .cls-68, .cls-69, .cls-70, .cls-71, .cls-72, .cls-73, .cls-74, .cls-75, .cls-76, .cls-77, .cls-78, .cls-79, .cls-80, .cls-81, .cls-82, .cls-83, .cls-84, .cls-85, .cls-86, .cls-87, .cls-88, .cls-89, .cls-90, .cls-91, .cls-92, .cls-93, .cls-94, .cls-95, .cls-96, .cls-97, .cls-98, .cls-99, .cls-100, .cls-101, .cls-102, .cls-103, .cls-104, .cls-105, .cls-106, .cls-107, .cls-108, .cls-109, .cls-110, .cls-111, .cls-112, .cls-113, .cls-114, .cls-115, .cls-116, .cls-117, .cls-118, .cls-119, .cls-120, .cls-121, .cls-122, .cls-123, .cls-124, .cls-125, .cls-126, .cls-127, .cls-128, .cls-129, .cls-130, .cls-131, .cls-132, .cls-133, .cls-134, .cls-135, .cls-136, .cls-137, .cls-138, .cls-139, .cls-140, .cls-141, .cls-142, .cls-143, .cls-144, .cls-145, .cls-146, .cls-147, .cls-148, .cls-149, .cls-150, .cls-151, .cls-152, .cls-153, .cls-154, .cls-155, .cls-156, .cls-157, .cls-158, .cls-159, .cls-160, .cls-161, .cls-162, .cls-163, .cls-164, .cls-165, .cls-166, .cls-167, .cls-168, .cls-169, .cls-170, .cls-171, .cls-172, .cls-173, .cls-174, .cls-175, .cls-176, .cls-177, .cls-178, .cls-179, .cls-180, .cls-181, .cls-182, .cls-183, .cls-184, .cls-185, .cls-186, .cls-187, .cls-188, .cls-189, .cls-190, .cls-191, .cls-192, .cls-193, .cls-194, .cls-195, .cls-196, .cls-197, .cls-198, .cls-199, .cls-200, .cls-201, .cls-202, .cls-203, .cls-204, .cls-205, .cls-206, .cls-207, .cls-208, .cls-209, .cls-210, .cls-211, .cls-212, .cls-213, .cls-214, .cls-215, .cls-216, .cls-217, .cls-218, .cls-219, .cls-220, .cls-221, .cls-222, .cls-223, .cls-224, .cls-225, .cls-226, .cls-227, .cls-228, .cls-229, .cls-230, .cls-231, .cls-232, .cls-233, .cls-234, .cls-235, .cls-236, .cls-237, .cls-238, .cls-239, .cls-240, .cls-241, .cls-242, .cls-243, .cls-244, .cls-245, .cls-246, .cls-247, .cls-248, .cls-249, .cls-250, .cls-251, .cls-252, .cls-253, .cls-254, .cls-255, .cls-256, .cls-257, .cls-258, .cls-259, .cls-260, .cls-261, .cls-262, .cls-263, .cls-264, .cls-265, .cls-266, .cls-267, .cls-268, .cls-269, .cls-270, .cls-271, .cls-272, .cls-273, .cls-274 {
        stroke-width: 0px;
      }

      .cls-2 {
        fill: #0084c4;
      }

      .cls-3 {
        fill: #a0dbf4;
      }

      .cls-4 {
        fill: #27afe7;
      }

      .cls-5 {
        fill: #84d0f0;
      }

      .cls-6 {
        fill: #1ac0f2;
      }

      .cls-7 {
        fill: #44c6ef;
      }

      .cls-8 {
        fill: #222;
      }

      .cls-9 {
        fill: #69c9ec;
      }

      .cls-10 {
        fill: #005ea0;
      }

      .cls-11 {
        fill: #2bafe7;
      }

      .cls-12 {
        fill: #0097d6;
      }

      .cls-13 {
        fill: #009bde;
      }

      .cls-14 {
        fill: #009bdc;
      }

      .cls-15 {
        fill: #0099d6;
      }

      .cls-16 {
        fill: #94e0f8;
      }

      .cls-17 {
        fill: #181818;
      }

      .cls-18 {
        fill: #39b9e9;
      }

      .cls-19 {
        fill: #006eae;
      }

      .cls-20 {
        fill: #040404;
      }

      .cls-21 {
        fill: #77cff0;
      }

      .cls-22 {
        fill: #7ed0ee;
      }

      .cls-23 {
        fill: #019fe2;
      }

      .cls-24 {
        fill: #5dd1f5;
      }

      .cls-25 {
        fill: #0061a0;
      }

      .cls-26 {
        fill: #4cbcea;
      }

      .cls-27 {
        fill: #01a5e1;
      }

      .cls-28 {
        fill: #a5ddf4;
      }

      .cls-29 {
        fill: #0061ae;
      }

      .cls-30 {
        fill: #13ace6;
      }

      .cls-31 {
        fill: #80d2f1;
      }

      .cls-32 {
        fill: #018ccd;
      }

      .cls-33 {
        fill: #006ea9;
      }

      .cls-34 {
        fill: #000;
      }

      .cls-35 {
        fill: #3ac2f0;
      }

      .cls-36 {
        fill: #41bcea;
      }

      .cls-37 {
        fill: #75cbef;
      }

      .cls-38 {
        fill: #005da4;
      }

      .cls-39 {
        fill: #0181c4;
      }

      .cls-40 {
        fill: #007bb8;
      }

      .cls-41 {
        fill: #8bd5f0;
      }

      .cls-42 {
        fill: #2fc6f3;
      }

      .cls-43 {
        fill: #006bab;
      }

      .cls-44 {
        fill: #0079b9;
      }

      .cls-45 {
        fill: #49cdf5;
      }

      .cls-46 {
        fill: #75d7f6;
      }

      .cls-47 {
        fill: #abe7fa;
      }

      .cls-48 {
        fill: #0061a3;
      }

      .cls-49 {
        fill: #0186c8;
      }

      .cls-50 {
        fill: #737373;
      }

      .cls-51 {
        fill: #0fbdf2;
      }

      .cls-52 {
        fill: #17a9e6;
      }

      .cls-53 {
        fill: #1face6;
      }

      .cls-54 {
        fill: #41b8ea;
      }

      .cls-55 {
        fill: #69d5f6;
      }

      .cls-56 {
        fill: #37c1ed;
      }

      .cls-57 {
        fill: #19b9ec;
      }

      .cls-58 {
        fill: #0064a5;
      }

      .cls-59 {
        fill: #007cc3;
      }

      .cls-60 {
        fill: #069ad8;
      }

      .cls-61 {
        fill: #005897;
      }

      .cls-62 {
        fill: #7ecef0;
      }

      .cls-63 {
        fill: #07a4dc;
      }

      .cls-64 {
        fill: #018acd;
      }

      .cls-65 {
        fill: #03b3ec;
      }

      .cls-66 {
        fill: #55c3ec;
      }

      .cls-67 {
        fill: #6dcbef;
      }

      .cls-68 {
        fill: #005c9d;
      }

      .cls-69 {
        fill: #2ebbec;
      }

      .cls-70 {
        fill: #00abe7;
      }

      .cls-71 {
        fill: #9fe4f9;
      }

      .cls-72 {
        fill: #75ccf0;
      }

      .cls-73 {
        fill: #0088cb;
      }

      .cls-74 {
        fill: #0098d9;
      }

      .cls-75 {
        fill: #1bade2;
      }

      .cls-76 {
        fill: #008ed2;
      }

      .cls-77 {
        fill: #2e2b2c;
      }

      .cls-78 {
        fill: #131313;
      }

      .cls-79 {
        fill: #00589a;
      }

      .cls-80 {
        fill: #95d7f2;
      }

      .cls-81 {
        fill: #09d;
      }

      .cls-82 {
        fill: #006eb3;
      }

      .cls-83 {
        fill: #0084c3;
      }

      .cls-84 {
        fill: #007abd;
      }

      .cls-85 {
        fill: #0eade2;
      }

      .cls-86 {
        fill: #0d0d0d;
      }

      .cls-87 {
        fill: #63c5ee;
      }

      .cls-88 {
        fill: #0179af;
      }

      .cls-89 {
        fill: #66bae3;
      }

      .cls-90 {
        fill: #0c0c0c;
      }

      .cls-91 {
        fill: #23afe3;
      }

      .cls-92 {
        fill: #05a2e3;
      }

      .cls-93 {
        fill: #aee0f5;
      }

      .cls-94 {
        fill: #29b4e8;
      }

      .cls-95 {
        fill: #0072b2;
      }

      .cls-96 {
        fill: #a8dff4;
      }

      .cls-97 {
        fill: #07a2dd;
      }

      .cls-98 {
        fill: #97daf3;
      }

      .cls-99 {
        fill: #101010;
      }

      .cls-100 {
        fill: #08a7e0;
      }

      .cls-101 {
        fill: #47c8f1;
      }

      .cls-102 {
        fill: #96d9f1;
      }

      .cls-103 {
        fill: #272324;
      }

      .cls-104 {
        fill: #0ea5e4;
      }

      .cls-105 {
        fill: #35b4e9;
      }

      .cls-106 {
        fill: #27b7ea;
      }

      .cls-107 {
        fill: #b3e2f6;
      }

      .cls-108 {
        fill: #0081c1;
      }

      .cls-109 {
        fill: #019ddc;
      }

      .cls-110 {
        fill: #0191d0;
      }

      .cls-111 {
        fill: #48caf3;
      }

      .cls-112 {
        fill: #1fb3e8;
      }

      .cls-113 {
        fill: #00a0e2;
      }

      .cls-114 {
        fill: #4cc0eb;
      }

      .cls-115 {
        fill: #01a3de;
      }

      .cls-116 {
        fill: #6ed6f6;
      }

      .cls-117 {
        fill: #02a5e4;
      }

      .cls-118 {
        fill: #01a0dd;
      }

      .cls-119 {
        fill: #036fb0;
      }

      .cls-120 {
        fill: #0585c3;
      }

      .cls-121 {
        fill: #47b4e1;
      }

      .cls-122 {
        fill: #0074b8;
      }

      .cls-123 {
        fill: #5cc6ed;
      }

      .cls-124 {
        fill: #5cc4ea;
      }

      .cls-125 {
        fill: #0391d2;
      }

      .cls-126 {
        fill: #31b6e9;
      }

      .cls-127 {
        fill: #1aaee7;
      }

      .cls-128 {
        fill: #0075b5;
      }

      .cls-129 {
        fill: #0a96d4;
      }

      .cls-130 {
        fill: #019ad8;
      }

      .cls-131 {
        fill: #0576b7;
      }

      .cls-132 {
        fill: #06a4df;
      }

      .cls-133 {
        fill: #005d96;
      }

      .cls-134 {
        fill: #0083c6;
      }

      .cls-135 {
        fill: #007bbf;
      }

      .cls-136 {
        fill: #0278bc;
      }

      .cls-137 {
        fill: #7accec;
      }

      .cls-138 {
        fill: #006ba5;
      }

      .cls-139 {
        fill: #080808;
      }

      .cls-140 {
        fill: #007dc0;
      }

      .cls-141 {
        fill: #0075b7;
      }

      .cls-142 {
        fill: #66c5ed;
      }

      .cls-143 {
        fill: #29bae9;
      }

      .cls-144 {
        fill: #81dbf8;
      }

      .cls-145 {
        fill: #282425;
      }

      .cls-146 {
        fill: #009edd;
      }

      .cls-147 {
        fill: #0198d7;
      }

      .cls-148 {
        fill: #3bb9e6;
      }

      .cls-149 {
        fill: #56d1f5;
      }

      .cls-150 {
        fill: #00a3e0;
      }

      .cls-151 {
        fill: #53c1e9;
      }

      .cls-152 {
        fill: #2eb4e5;
      }

      .cls-153 {
        fill: #02a7e3;
      }

      .cls-154 {
        fill: #007ebe;
      }

      .cls-155 {
        fill: #23b2e8;
      }

      .cls-156 {
        fill: #8dd4f1;
      }

      .cls-157 {
        fill: #70bee4;
      }

      .cls-158 {
        fill: #53cef4;
      }

      .cls-159 {
        fill: #007fbd;
      }

      .cls-160 {
        fill: #006dae;
      }

      .cls-161 {
        fill: #0095d4;
      }

      .cls-162 {
        fill: #015f9c;
      }

      .cls-163 {
        fill: #070707;
      }

      .cls-164 {
        fill: #0087c7;
      }

      .cls-165 {
        fill: #008fd2;
      }

      .cls-166 {
        fill: #73cced;
      }

      .cls-167 {
        fill: #08a8e5;
      }

      .cls-168 {
        fill: #005596;
      }

      .cls-169 {
        fill: #4dbdeb;
      }

      .cls-170 {
        fill: #3dcaf4;
      }

      .cls-171 {
        fill: #037bbb;
      }

      .cls-172 {
        fill: #24c3f3;
      }

      .cls-173 {
        fill: #008aca;
      }

      .cls-174 {
        fill: #42b8e9;
      }

      .cls-175 {
        fill: #019fdc;
      }

      .cls-176 {
        fill: #00aae4;
      }

      .cls-177 {
        fill: #0890cb;
      }

      .cls-178 {
        fill: #0190d2;
      }

      .cls-179 {
        fill: #0087c6;
      }

      .cls-180 {
        fill: #060606;
      }

      .cls-181 {
        fill: #242021;
      }

      .cls-182 {
        fill: #007fc2;
      }

      .cls-183 {
        fill: #07aee2;
      }

      .cls-184 {
        fill: #0fabe2;
      }

      .cls-185 {
        fill: #0071b3;
      }

      .cls-186 {
        fill: #005d9c;
      }

      .cls-187 {
        fill: #262223;
      }

      .cls-188 {
        fill: #018bcc;
      }

      .cls-189 {
        fill: #009edc;
      }

      .cls-190 {
        fill: #0090ce;
      }

      .cls-191 {
        fill: #171717;
      }

      .cls-192 {
        fill: #76d9f7;
      }

      .cls-193 {
        fill: #a9e6fa;
      }

      .cls-194 {
        fill: #005891;
      }

      .cls-195 {
        fill: #006bb5;
      }

      .cls-196 {
        fill: #009ee0;
      }

      .cls-197 {
        fill: #0061a7;
      }

      .cls-198 {
        fill: #b4e9fa;
      }

      .cls-199 {
        fill: #6dcbee;
      }

      .cls-200 {
        fill: #3ec5f1;
      }

      .cls-201 {
        fill: #25ade6;
      }

      .cls-202 {
        fill: #65c9ee;
      }

      .cls-203 {
        fill: #0a9bd4;
      }

      .cls-204 {
        fill: #00a2e2;
      }

      .cls-205 {
        fill: #007dbd;
      }

      .cls-206 {
        fill: #006dad;
      }

      .cls-207 {
        fill: #6dc8ee;
      }

      .cls-208 {
        fill: #019fde;
      }

      .cls-209 {
        fill: #59c1ed;
      }

      .cls-210 {
        fill: #0067ad;
      }

      .cls-211 {
        fill: #0799d7;
      }

      .cls-212 {
        fill: #9eddf4;
      }

      .cls-213 {
        fill: #00a8e2;
      }

      .cls-214 {
        fill: #111;
      }

      .cls-215 {
        fill: #80daf6;
      }

      .cls-216 {
        fill: #0093d5;
      }

      .cls-217 {
        fill: #0066a0;
      }

      .cls-218 {
        fill: #0077b9;
      }

      .cls-219 {
        fill: #60d2f5;
      }

      .cls-220 {
        fill: #00a7e3;
      }

      .cls-221 {
        fill: #0077b3;
      }

      .cls-222 {
        fill: #005799;
      }

      .cls-223 {
        fill: #0078ba;
      }

      .cls-224 {
        fill: #005b9c;
      }

      .cls-225 {
        fill: #12a9e1;
      }

      .cls-226 {
        fill: #231f20;
      }

      .cls-227 {
        fill: #2f2b2c;
      }

      .cls-228 {
        fill: #0062a7;
      }

      .cls-229 {
        fill: #beecfb;
      }

      .cls-230 {
        fill: #74d8f7;
      }

      .cls-231 {
        fill: #54ccf3;
      }

      .cls-232 {
        fill: #8bdef8;
      }

      .cls-233 {
        fill: #0065a6;
      }

      .cls-234 {
        fill: #00629b;
      }

      .cls-235 {
        fill: #0096d8;
      }

      .cls-236 {
        fill: #0076b5;
      }

      .cls-237 {
        fill: #17afe5;
      }

      .cls-238 {
        fill: #0073ae;
      }

      .cls-239 {
        fill: #0069aa;
      }

      .cls-240 {
        fill: #90d8f2;
      }

      .cls-241 {
        fill: #2db1e8;
      }

      .cls-242 {
        fill: #5cc2ec;
      }

      .cls-243 {
        fill: #58b7e2;
      }

      .cls-244 {
        fill: #0064a3;
      }

      .cls-245 {
        fill: #92e0f8;
      }

      .cls-246 {
        fill: #00aceb;
      }

      .cls-247 {
        fill: #04b0e7;
      }

      .cls-248 {
        fill: #007ab9;
      }

      .cls-249 {
        fill: #b5e9fa;
      }

      .cls-250 {
        fill: #37b4e8;
      }

      .cls-251 {
        fill: #00528a;
      }

      .cls-252 {
        fill: #0089cd;
      }

      .cls-253 {
        fill: #69cced;
      }

      .cls-254 {
        fill: #038bcd;
      }

      .cls-255 {
        fill: #413d3e;
      }

      .cls-256 {
        fill: #48bde8;
      }

      .cls-257 {
        fill: #191919;
      }

      .cls-258 {
        fill: #3fc7f3;
      }

      .cls-259 {
        fill: #00aae5;
      }

      .cls-260 {
        fill: #0284c8;
      }

      .cls-261 {
        fill: #029dda;
      }

      .cls-262 {
        fill: #45bfe8;
      }

      .cls-263 {
        fill: #0068a8;
      }

      .cls-264 {
        fill: #1fb5e7;
      }

      .cls-265 {
        fill: #c9effb;
      }

      .cls-266 {
        fill: #a7e0f5;
      }

      .cls-267 {
        fill: #0060a1;
      }

      .cls-268 {
        fill: #0a0a0a;
      }

      .cls-269 {
        fill: #030303;
      }

      .cls-270 {
        fill: #b4e4f6;
      }

      .cls-271 {
        fill: #89d6f2;
      }

      .cls-272 {
        fill: #65d3f5;
      }

      .cls-273 {
        fill: #0069a9;
      }

      .cls-274 {
        fill: #54bfeb;
      }
    </style>
  </defs>
  <g id="Layer_1-2" data-name="Layer 1">
    <g>
      <path class="cls-34" d="M166.73,20.1c-1.99,13.81-3.99,27.61-5.96,41.42-.17,1.16-.33,1.94-1.81,2.16-6.3.96-7.64.18-8.75-6-3.26-17.99-6.39-36-9.7-53.98-.49-2.67-.11-3.51,2.82-3.41,5.88.21,5.82.04,6.63,5.75,1.69,11.91,3.46,23.81,5.19,35.71.79.5-.73,2.29,1.2,2.15,1.99-13.82,3.98-27.64,5.94-41.47.17-1.19.38-1.91,1.85-2.11,6.45-.9,7.44-.27,8.47,6.11,1.85,11.53,3.8,23.04,5.01,34.67.12,1.16.44,2.29,1.13,3.42,1.26-8.62,2.51-17.24,3.78-25.86.74-5,1.61-9.99,2.19-15.01.29-2.47,1.05-3.47,3.78-3.37,5.81.21,5.89.05,4.92,5.5-3.27,18.37-6.64,36.72-9.86,55.09-.35,2-.82,2.83-3.07,2.83-6.5-.02-6.5.1-7.44-6.42-1.7-11.68-3.41-23.35-5.12-35.03-.79-.5.73-2.29-1.2-2.15Z"/>
      <path class="cls-226" d="M291.47,156.21c-.04-15.56,0-31.13-.18-46.69-.04-3.15,1.9-2.47,3.53-2.37,1.62.1,3.97-1.18,3.95,2.34-.11,19.06-.07,38.13-.02,57.19,0,1.72-.56,2.12-2.25,2.33-4.64.57-7.55-.85-10.19-5.12-9.53-15.43-19.59-30.54-29.9-46.46,0,2.2,0,3.66,0,5.13,0,14.36-.13,28.72.09,43.07.05,3.31-1.4,3.35-3.84,3.36-2.47.01-3.88-.1-3.84-3.37.18-18.46.14-36.92.03-55.38-.01-2.54.76-3.04,3.23-3.26,4.62-.42,7.25,1.14,9.73,5.22,9.33,15.32,19.17,30.34,28.82,45.47,1.68.29.99-.74.83-1.47Z"/>
      <path class="cls-226" d="M312.26,137.78c0-9.29.07-18.59-.05-27.88-.03-2.22.58-2.87,2.83-2.84,8.58.13,17.16.21,25.73-.03,3.1-.08,2.74,1.54,2.84,3.54.11,2.27-.16,3.49-3,3.38-6.03-.23-12.08.06-18.12-.13-2.5-.08-2.98.82-2.91,3.06.15,4.82.16,9.66,0,14.48-.07,2.19.48,2.91,2.77,2.84,5.55-.17,11.12.13,16.67-.13,3.23-.15,2.67,1.78,2.76,3.68.1,2.07-.09,3.35-2.82,3.24-5.55-.23-11.11,0-16.67-.11-1.93-.04-2.78.31-2.71,2.51.16,5.43.16,10.86,0,16.29-.06,2.16.72,2.57,2.68,2.53,6.76-.11,13.54.11,20.3-.11,3.12-.1,2.42,1.82,2.45,3.5.03,1.76.53,3.49-2.55,3.42-9.18-.22-18.36-.17-27.55-.02-2.45.04-2.71-.95-2.69-2.98.09-9.41.04-18.83.04-28.24Z"/>
      <path class="cls-34" d="M248.85.37c3.26,0,6.54.21,9.78-.06,3.34-.28,2.52,1.89,2.65,3.7.15,2.08-.09,3.39-2.81,3.19-3.6-.27-7.24,0-10.86-.1-1.71-.05-2.36.49-2.33,2.25.08,5.31.1,10.62,0,15.92-.04,1.82.66,2.29,2.31,2.17,1.56-.11,3.14-.02,4.71-.02,4.22,0,5.55,1.82,4.38,5.87-.19.65-.41,1.1-1.15,1.11-.6,0-1.21-.02-1.81.03-2.74.2-6.47-1.23-7.94.63-1.37,1.73-.44,5.3-.46,8.06-.03,5.91-.1,11.82.04,17.73.05,2.2-.53,2.87-2.8,2.86-6.32-.03-6.32.09-6.32-6.07,0-17.97.05-35.95-.06-53.92-.02-2.55.38-3.69,3.26-3.41,3.11.3,6.27.07,9.41.07Z"/>
      <path class="cls-181" d="M376.81,141.23c0,8.32-.15,16.64.08,24.95.09,3.17-1.68,2.85-3.63,2.76-1.88-.08-4.06.83-4.02-2.74.16-16.27,0-32.55.14-48.82.03-2.91-.84-3.72-3.65-3.55-3.85.23-7.74-.17-11.57.13-3.03.23-2.68-1.54-2.6-3.36.08-1.63-.79-3.59,2.38-3.55,12.67.15,25.34.16,38.01,0,3.1-.04,2.49,1.75,2.51,3.48.02,1.77.49,3.63-2.56,3.44-4.09-.26-8.21.06-12.3-.11-2.21-.09-2.87.55-2.84,2.8.14,8.19.05,16.39.05,24.59Z"/>
      <path class="cls-103" d="M269.49,82.36c-2.25,5.04-4.49,10.09-6.78,15.12-.37.83-.46,2.08-1.7,2.07-1.21-.01-1.32-1.21-1.7-2.06-2.23-4.89-4.44-9.79-7.47-14.61,0,4.58.05,9.16-.04,13.73-.02,1.12.81,2.99-1.45,2.97-2.25-.01-1.41-1.88-1.42-3-.08-5.91-.07-11.82,0-17.73.01-1.03-.71-2.57,1.19-2.89,1.75-.29,2.84.24,3.59,2.06,2.23,5.42,4.69,10.75,7.29,16.64,2.6-5.78,5-11.04,7.33-16.33.68-1.55,1.41-2.76,3.42-2.4,2.4.44,1.28,2.29,1.31,3.47.12,5.91.06,11.82.05,17.73,0,1.16.33,2.58-1.64,2.47-1.82-.1-1.23-1.5-1.24-2.43-.06-4.91-.03-9.81-.03-14.72-.23-.04-.47-.07-.7-.11Z"/>
      <path class="cls-176" d="M146.15,124.39c.23.96.46,1.93.69,2.89-5.57.94-10.93,3.6-16.8,2.03-1.52-.82-1.88-2.39-2.39-3.83-1.68-4.72-3.03-9.53-4.44-14.33-.09-.86.01-1.67.69-2.3,2.63-1.19,5.36-.73,8.07-.5.59.15,1.11.42,1.53.87.89,1.21,1.17,2.68,1.68,4.04.17.49.28,1,.37,1.52.16,1.01.52,1.96.84,2.92.28.82.56,1.64.75,2.49.52,2.57,2.22,3.34,4.65,3.27,1.49-.04,3.1-.3,4.34.93Z"/>
      <path class="cls-168" d="M23.03,170.62c-2.66.09-5.33.17-7.99.26-1.7.37-3.4.33-5.11.02-1.51-3.72-.37-7.11,1.26-10.45,5.56-1.69,11.12-3.31,17.05-2.61.75.36,1.07,1.04.82,1.76-1.41,3.99-2.54,8.16-6.02,11.02Z"/>
      <path class="cls-81" d="M153.5,151.02c.54-.9,1.08-1.8,1.63-2.7,1.04-1.51,2.51-2.62,3.73-3.96,1.19-1.01,2.02-2.33,2.95-3.56.7-.79,1.51-1.47,2.11-2.34.5-.76.78-1.65,1.49-2.26,1.02-.74,1.72-1.78,2.49-2.75.54-.43,1.1-.78,1.81-.34.44.59.47,1.26.35,1.95-.19.81-.47,1.59-.76,2.37-.46,1.03-.94,2.05-1.26,3.13-.43,1.22-.84,2.44-1.23,3.67-.25.77-.56,1.52-.89,2.26-.54,1.17-.9,2.41-1.44,3.57-.57,1.13-1.13,2.27-1.54,3.48-.44,1.04-1.13,1.95-1.63,2.95-.76,1.29-1.27,2.74-2.41,3.8-.59.44-1.22.75-1.98.43-2.35-2.44-3.62-5.37-3.92-8.73.1-.36.27-.68.51-.96Z"/>
      <path class="cls-20" d="M15.92,187.54c-.88,3.37-1.73,6.76-2.68,10.11-.26.92-.19,2.23-1.87,2.11-1.43-.1-1.32-1.11-1.55-2.01-1.14-4.43-2.33-8.84-3.38-13.28-.16-.67-1.23-1.96.57-2.23,1.4-.21,1.42.87,1.65,1.82.93,3.93,1.91,7.85,3.03,12.39,1.23-4.63,2.33-8.56,3.3-12.53.27-1.09.61-1.73,1.84-1.73,1.26,0,1.23.94,1.42,1.71.98,3.96,1.93,7.93,3.03,12.5,1.17-4.47,2.21-8.4,3.23-12.34.25-.95.39-2.03,1.75-1.8,1.91.32.54,1.56.38,2.17-1.13,4.42-2.4,8.81-3.65,13.2-.28,1-.35,2.2-1.93,2.11-1.38-.08-1.38-1.15-1.59-2.04-.81-3.39-1.57-6.79-2.35-10.19-.41-.67-.81-.68-1.18.03Z"/>
      <path class="cls-213" d="M64.61,115.85c-.32.91-.65,1.82-.97,2.73-1.58,2.83-2.55,6.04-5.15,8.25-.35.12-.71.16-1.08.14-2.93-.44-6.05.34-8.76-1.41-1.24-3.31,2.06-4.8,2.91-7.27,1.69-1.97,2.45-4.85,5.41-5.61,2.79.09,5.71-1.03,8.28.95.45.93-.19,1.55-.63,2.23Z"/>
      <path class="cls-258" d="M91.89,130.97c-1.93-5.7-3.27-11.54-4.29-17.46,2.39-1.72,4.73-.76,7.07.12.55.3.99.72,1.33,1.24,1.51,4.63,3.78,9.06,3.63,14.12-2.12,2.43-5.23,1.04-7.74,1.98Z"/>
      <path class="cls-77" d="M365.64,92.39c0-1.45,0-2.89,0-4.34,0-.48-.16-1.04.02-1.43,1.02-2.23-5.72-1.45-1.89-3.6,2.82-1.58,1.41-3.41,2.09-4.98,1.19-2.73,3.02-3.87,5.9-3.68,1.07.07,1.46.51,1.45,1.56-.02,1.14-.64.95-1.41.89-2.44-.2-3,1.35-3.18,3.39-.16,1.87.5,2.68,2.41,2.52.76-.06,1.41.23,1.42,1.2,0,1.25-.89,1.31-1.73,1.22-1.92-.2-2.14.86-2.1,2.41.08,3.25.04,6.5,0,9.75-.01,1.01.33,2.29-1.41,2.35-1.7.06-1.56-1.12-1.57-2.2-.02-1.69,0-3.37,0-5.06Z"/>
      <path class="cls-92" d="M48.37,159.02c-5.17,7.23-12.5,10.35-21.09,11.08-.09-1.81,1.59-1.95,2.61-2.54,3.78-2.19,6.53-5.26,8.44-9.14.52-1.05.85-2.19,1.55-3.16.53-.68,1.03-1.42,2.02-1.46,2.63,1.15,5.7,1.76,6.47,5.21Z"/>
      <path class="cls-254" d="M170.27,167.91c-.83.65-1.81.58-2.76.58-16.12,0-32.24.06-48.36-.06-4.98-.04-9.37-1.83-12.69-5.76-.86-1.85.67-1.94,1.72-2.16,1.6-.33,3.25-.32,4.89-.35,1.87.3,3.13,1.62,4.53,2.7,2.97,2.31,6.16,4.05,10.09,3.88,6.43.12,12.86-.1,19.29,0,2.41.13,4.82.1,7.23.02,2.83-.11,5.66.06,8.5.03,1.09-.08,2.17-.05,3.26-.01,1.48.2,3.13-.24,4.31,1.11Z"/>
      <path class="cls-38" d="M39.03,158.44c-1.92,5.9-6.8,8.82-11.75,11.67-1.37.56-2.8.68-4.26.51,2.06-4,4.24-7.95,5.8-12.19.11-1.14.63-1.82,1.89-1.66,2.63,1.27,5.81-.21,8.32,1.67Z"/>
      <path class="cls-77" d="M376.57,90.55c-.76-1.82,1.71-5.13-2.49-5.73-.18-.03-.26-.82-.38-1.26,2.8-.58,2.4-3.45,3.7-5.05.96-1.18,2.27-.67,2.1,1.19-.19,2,.2,3.34,2.66,3,.78-.11,1.4.24,1.42,1.19.02,1.24-.84,1.35-1.71,1.24-2-.26-2.48.69-2.37,2.5.13,2.16,0,4.34.04,6.52.04,1.8.37,3.49,2.76,3.33.94-.06,1.33.24,1.3,1.16-.03.72-.46.98-1.09,1.2-2.67.89-5.1-.52-5.7-3.36-.1-.47-.2-.95-.21-1.43-.03-1.45,0-2.9,0-4.51Z"/>
      <path class="cls-39" d="M62.94,78.04c2.4-.57,4.79-.1,7.18.06,1.91.89,5.06-.2,5.31,3.33-.2.3-.39.68-.72.78-7.47,2.23-14.99,4.11-22.89,3.6-1.78-2.01.28-2.75,1.36-3.52,2.93-2.1,6.31-3.26,9.75-4.25Z"/>
      <path class="cls-103" d="M341.2,85.71c-.48-.16-.91-.31-1.36-.45-1.9-.58-4.06-1.23-4.92,1.22-.86,2.44,1.55,2.88,3.08,3.66,3.82,1.94,5.04,4.18,3.67,6.99-1.21,2.49-6.37,3.88-9,2.43-1.37-.75-1.26-1.88-.8-3.18,1.63.37,3.05,1.49,4.83,1.19,1.16-.2,2.13-.66,2.43-1.83.28-1.09-.46-1.85-1.31-2.36-1.34-.8-2.84-1.35-4.1-2.26-2.37-1.71-2.73-4.96-.92-6.97,1.55-1.73,6.64-2.47,8.1-1.16.89.79.45,1.76.3,2.74Z"/>
      <path class="cls-180" d="M90.2,197.01c.91-3.13,1.71-5.75,2.41-8.39.24-.92.57-1.72,1.62-1.5,1.33.29.68,1.38.48,2.06-.89,2.99-1.89,5.95-2.85,8.92-.26.8-.45,1.59-1.58,1.66-1.22.07-1.31-.83-1.56-1.6-.77-2.35-1.52-4.71-2.53-7.86-1.1,3.15-1.99,5.55-2.77,7.99-.28.88-.53,1.57-1.65,1.46-.91-.09-1.16-.72-1.38-1.43-.94-3.1-1.9-6.2-2.81-9.32-.19-.65-.57-1.55.35-1.86.91-.31,1.52.15,1.78,1.21.68,2.76,1.47,5.49,2.35,8.74.85-2.69,1.44-4.89,2.25-7.01.43-1.11.09-3.01,2.01-2.95,1.66.05,1.34,1.8,1.72,2.81.79,2.11,1.33,4.32,2.15,7.08Z"/>
      <path class="cls-145" d="M297.98,85.81c-2.69-1.19-5.38-1.77-7.66.65-1.9,2.02-2.29,4.46-1.52,7.07.97,3.27,3.56,4.59,7.1,3.78.76-.17,1.77-1.55,2.29.15.41,1.36-.63,1.89-1.76,2.24-3.3,1.04-7.21-.04-9.18-2.59-2.19-2.84-2.35-7.64-.36-10.92,1.84-3.03,5.27-4.47,9.09-3.81,1.97.34,2.08.52,1.99,3.42Z"/>
      <path class="cls-117" d="M180.35,83.72c6.15-5.58,13.59-7.58,21.68-7.78.3.2.43.47.37.83-.19.67-.51,1.25-1.09,1.66-3.33,1.54-6.72,2.98-9.64,5.28-1.43.95-2.34,2.89-4.53,2.41-1.37-.53-2.82-.49-4.24-.7-1.04-.15-2.6.2-2.54-1.7Z"/>
      <path class="cls-187" d="M238.53,164.83c.06,2.87-2.1,5.1-4.9,5.08-2.66-.02-4.71-2.11-4.77-4.83-.06-2.89,2.08-5.12,4.89-5.08,2.64.04,4.72,2.14,4.78,4.83Z"/>
      <path class="cls-220" d="M129.66,128.72c5.86,1.01,11.35-2.27,17.19-1.45.07.48.14.96.21,1.44-.89,1.02-2.12.88-3.27.97q-3.91.32-3.34,4.23c.09.81,0,1.57-.52,2.23-2.21,1.27-4.68.73-7.03,1.05-1.67-.24-1.98-1.63-2.47-2.88-.31-1.03-.65-2.05-.97-3.09-.2-.86-.54-1.74.21-2.52Z"/>
      <path class="cls-163" d="M256.41,190.85c0-.72-.06-1.45.01-2.16.19-2.11-1.01-5.3.58-6.08,2.14-1.05,5.15-.35,7.79-.39.66,0,1.2.19,1.16.98-.04.76-.58.96-1.24.96-.72,0-1.47.13-2.16,0-3.63-.72-4.16,1.21-3.86,4.18.12,1.25.52,1.67,1.72,1.6,1.2-.07,2.41,0,3.61,0,.65,0,1.24.19,1.3.92.07.83-.58.89-1.2.91-.12,0-.25.03-.36,0-4.87-1.12-5.57,1.52-5.09,5.46.1.82.81,2.39-1.03,2.48-1.91.09-1.16-1.46-1.2-2.36-.1-2.16-.03-4.33-.03-6.5Z"/>
      <path class="cls-20" d="M367.5,193.32c0-1.32-.03-2.64,0-3.96.05-2.04.11-2.13,2.16-1.15,1.01.48,1.1-.46,1.62-.7,3.55-1.65,6.64-.04,7.02,3.87.22,2.26.07,4.56.07,6.84,0,.71.07,1.44-1,1.51-1.25.09-1.32-.67-1.31-1.59.02-1.56.02-3.12,0-4.68-.04-2.23-.04-4.7-3.17-4.53-2.87.15-3.15,2.44-3.1,4.75.03,1.56,0,3.12,0,4.68,0,.8-.16,1.37-1.16,1.38-1.04.02-1.15-.59-1.15-1.38,0-1.68,0-3.36,0-5.04Z"/>
      <path class="cls-145" d="M302.22,90.89c0-2.16.03-4.32-.01-6.47-.02-1.13.86-2.39,1.45-1.61,2.06,2.74,3.3-.19,4.89-.34,1.03-.1,2.24-.54,2.5,1.12.24,1.52-.47,1.66-1.83,1.64-2.96-.05-3.82,2.16-4.03,4.54-.23,2.62-.13,5.27-.17,7.91-.01.99,0,1.92-1.42,1.97-1.54.05-1.36-.98-1.37-1.91-.02-2.28,0-4.56,0-6.83Z"/>
      <path class="cls-216" d="M195.58,146.65c-.13.18-.31.26-.53.24-1.38.95-2.92,1.54-4.5,2.04-1.47.19-2.63-.24-3.33-1.62-.19-.53-.21-1.07-.11-1.61.41-1.5,1.45-2.66,2.15-4,.58-.97,1.05-2,1.55-3.02.59-1,.93-2.17,1.91-2.92.34-.11.68-.14,1.04-.09,1.63.84,4.08.39,4.62,2.94-.03,1.29-.67,2.32-1.4,3.32-1.49,1.27-1.45,2.99-1.39,4.72Z"/>
      <path class="cls-255" d="M281.66,91.15c0,2.28-.01,4.56,0,6.83,0,1.17-.44,1.76-1.71,1.71-1.16-.05-1.38-.75-1.38-1.67,0-4.56,0-9.11-.01-13.67,0-1.19.49-1.79,1.72-1.72,1.09.06,1.4.72,1.39,1.68-.01,2.28,0,4.56,0,6.83Z"/>
      <path class="cls-78" d="M189.71,199.84c-2.54-.08-3.23-1.73-3.38-3.65-.15-2.04,0-4.1-.08-6.15-.04-.84-.04-4.54.02-5.03.12-.9,1.15-1.55,1.37-1.24,1.19,1.71,2.35,3.37,4.36,4.2-.17.27-.36.79-.5.78-3.8-.32-2.72,2.49-2.63,4.35.09,1.89-1.26,4.67,2.3,5.05.66.07.84.61.62,1.01-.48.89-1.44.63-2.07.68Z"/>
      <path class="cls-214" d="M210.93,199.82c-2.55-.03-2.94-1.73-3.39-3.6-.63-2.63,1.64-5.93-1.81-7.9.98-1.52,1.89-3.1,3-4.53.26-.33,1.29-.17,1.26.67-.06,1.64.17,2.85,2.27,2.6.51-.06.86.4.87.94.01.84-.64.94-1.23.86-1.78-.25-2.26.86-1.8,2.12.86,2.39-2.48,6.37,2.64,7.2.13.02.33.71.22.96-.45,1-1.41.59-2.03.68Z"/>
      <path class="cls-104" d="M48.37,159.02c-1.55-2.45-4.48-3.08-6.49-4.91-.25-.21-.36-.48-.32-.81.3-1.05.86-2,1.3-2.99.29-.59.59-1.16,1.03-1.65.55-.46,1.13-.77,1.87-.45,1.52,1.09,3.03,2.18,4.68,3.09.83.46,2.1.76,1.68,2.24-.84,2.11-1.78,4.15-3.75,5.5Z"/>
      <path class="cls-211" d="M101.95,157.02c-1.3-1.49-2.29-3.16-2.8-5.09.37-2.23,2.22-1.62,3.57-1.76,1.5-.15,3.03-.12,4.52.28.62.19,1.15.53,1.6.99.97,1.18,1.79,2.47,2.47,3.83.45.91.65,1.79-.54,2.34-2.99.53-5.98,1.06-8.82-.59Z"/>
      <path class="cls-137" d="M82.4,77.97c5.17-1.21,10.43-.45,15.64-.51,3.76-.04,7.6-.94,11.32.46-.25.36-.59.62-.99.78-2.88.57-5.8.3-8.7.37-1.64-.1-3.3-.02-4.95-.09-2.05-.09-3.37.77-4.06,2.67-1.27,1.73-3.09,2.63-5.01,3.42-.38.08-.76.08-1.15.01-1.55-.52-2.69-1.48-3.17-3.09.55-3.31,3.2-3.26,5.59-3.57-1.43-.41-3.16,1.17-4.53-.45Z"/>
      <path class="cls-20" d="M244.29,190.31c-1.09-1.42-2.47-1.94-4.11-1.09-1.45.75-1.84,2.09-1.78,3.67.07,1.81.01,3.62.02,5.43,0,.77-.08,1.41-1.12,1.42-1.01,0-1.19-.55-1.19-1.37,0-3.38,0-6.76.03-10.14,0-.33.21-.66.33-.99,2.33.93,4.67-.24,6.96.03,1.43.17,2.61,1.34,3.01,2.94.47,3.12.55,6.25-.06,9.36-.47-.03-.94-.05-1.41-.08-1.01-3,.2-6.17-.67-9.19Z"/>
      <path class="cls-20" d="M181.83,199.57c-.47-.03-.94-.05-1.41-.08-1.01-3,.2-6.17-.67-9.19-1.09-1.42-2.47-1.94-4.11-1.09-1.45.75-1.84,2.09-1.78,3.67.07,1.81.01,3.62.02,5.43,0,.77-.08,1.41-1.12,1.42-1.01,0-1.19-.55-1.19-1.37,0-3.38,0-6.76.03-10.14,0-.33.21-.66.33-.99,2.33.93,4.67-.24,6.96.03,1.43.17,2.61,1.34,3.01,2.94.47,3.12.55,6.25-.06,9.36Z"/>
      <path class="cls-136" d="M108.57,78.17c.26-.08.53-.17.79-.25.68.06,1.35.12,2.03.18,1.14.26,2.42-.04,3.4.85,1.55,1.11,3.63,1.59,4.36,3.68.04.38-.03.74-.21,1.08-2.28,1.9-5.08.68-7.58,1.26-.36.06-.73.04-1.09-.02-2.1-1.28-3.99-2.82-5.49-4.79.47-2.19,2.49-1.39,3.8-1.98Z"/>
      <path class="cls-20" d="M342.22,199.81c-2.14-.15-3.02-1.41-3.09-3.34-.07-1.8.01-3.61-.07-5.42-.04-.82.52-1.94-1.04-2.22-1.7-.3-1.22-1.22-.17-1.75.71-.35,1.28-.56,1.22-1.46-.07-1.06.08-1.98,1.46-1.92,1.47.06.86,1.25.82,1.88-.14,2.58,3.22.46,3.2,2.37-.02,2.04-3.41-.13-3.02,1.74.59,2.85-2.62,6.92,2.42,8.52.2.06.44.65.36.88-.4,1.07-1.38.61-2.09.71Z"/>
      <path class="cls-90" d="M101.28,186.77c1.01.25,2.82-.04,2.77,1.38-.07,1.7-1.72.41-2.64.58-.87.16-1.77.18-2.07,1.1-.38,1.16.45,1.75,1.38,2.18.43.2.9.33,1.32.56,2.09,1.12,3.61,2.54,2.33,5.15-.96,1.96-4.8,2.95-6.71,1.8-.57-.34-.91-.77-.62-1.46.24-.6.7-.46,1.18-.37.81.16,1.63.4,2.45.41.93,0,1.61-.6,1.85-1.46.27-.94-.3-1.6-1.1-2.02-.63-.33-1.35-.52-1.96-.88-1.52-.88-2.89-1.96-2.35-3.99.54-2.02,2.17-2.74,4.18-2.98Z"/>
      <path class="cls-90" d="M149.92,198.04c1.5.24,2.96.15,3.33-1.44.39-1.7-1.22-2.09-2.39-2.62-2.13-.98-4-2.25-2.69-4.9,1.12-2.26,3.24-2.68,5.57-1.96.52.16,1.27.23,1.18,1.07-.09.84-.73.79-1.34.73-1.29-.12-3-.67-3.45.96-.53,1.92,1.46,2.07,2.68,2.71,2.1,1.1,3.6,2.56,2.29,5.16-.97,1.94-4.85,2.92-6.72,1.76-.56-.35-.97-.82-.57-1.46.7-1.12,1.45.04,2.11.01Z"/>
      <path class="cls-191" d="M291.37,199.49c-.61-.93-1.12-.85-2.19-.34-3.76,1.81-6.34.32-6.82-3.85-.24-2.14-.1-4.33-.14-6.49-.02-.9.06-1.75,1.24-1.78,1.19-.03,1.3.78,1.29,1.7-.02,1.69-.04,3.37,0,5.06.1,4.09,1.32,4.81,5.17,3.09,1.63.24,2.38.96,1.44,2.61Z"/>
      <path class="cls-253" d="M82.4,77.97h5.49c-2.31,1.67-5.56,1.24-6.12,4.39-.61.98-1.56,1.29-2.65,1.32-1.06-.09-1.86-.71-2.69-1.28-.59-.36-.89-.95-1.15-1.55-1.39-1.53-3.58-1.55-5.15-2.74,4.09-.05,8.18-.09,12.27-.14Z"/>
      <path class="cls-257" d="M299.27,188.71c1.45-1.71,3.23-2.35,5.41-1.6,2.31.8,2.87,2.76,3.01,4.85.13,2.03.05,4.07.06,6.1,0,.88-.04,1.68-1.27,1.69-1.24.01-1.27-.77-1.27-1.66,0-1.68.03-3.35,0-5.03-.08-4.06-1.21-4.82-5.1-3.47-.76.15-1.02-.16-.83-.9Z"/>
      <path class="cls-257" d="M37.46,188.71c1.45-1.71,3.23-2.35,5.41-1.6,2.31.8,2.87,2.76,3.01,4.85.13,2.03.05,4.07.06,6.1,0,.88-.04,1.68-1.27,1.69-1.24.01-1.27-.77-1.27-1.66,0-1.68.03-3.35,0-5.03-.08-4.06-1.21-4.82-5.1-3.47-.76.15-1.02-.16-.83-.9Z"/>
      <path class="cls-125" d="M101.95,157.02c3.18-.01,6.35-.02,9.53-.04,1.65.65,2.65,1.69,2.18,3.62-1.38.88-2.92.68-4.44.74-1.09.04-2.49-.44-2.77,1.33-2.03-1.46-3.45-3.41-4.51-5.65Z"/>
      <path class="cls-21" d="M162.21,126.49c.11-1.59.54-3.07,1.38-4.44,3.13.02,6.43-1.2,9.23,1.25.56,2.11.35,3.94-1.83,5.06-1.98.14-3.97.06-5.94-.12-1.14-.1-2.75.19-2.84-1.76Z"/>
      <path class="cls-245" d="M131.89,86.66c1.38,1.18,2.36,2.62,2.89,4.36-2.77,1.87-5.78,1.02-8.74.78-1.73-.59-2.56-2.09-3.51-3.48-.39-.83-.64-1.64.42-2.2,3.03-.69,6.04-.98,8.94.53Z"/>
      <path class="cls-55" d="M137.64,96.84c1.02,1.56,1.74,3.25,2.1,5.08-2.96.65-5.91.33-8.87-.05-.58-.19-1.06-.53-1.47-.97-.8-1.12-1.45-2.32-1.67-3.7.04-.63.16-1.21.91-1.39,3.02.2,6.17-.73,9,1.03Z"/>
      <path class="cls-156" d="M6.92,148.23c.39-2.08.94-4.11,2.23-5.85,2.19-.18,4.43-.69,6.26,1.11.4.74.48,1.54.38,2.37-.16,1.02-.5,1.97-1.04,2.86-.38.53-.91.85-1.53,1.04-2.27.17-4.7,1.01-6.31-1.53Z"/>
      <path class="cls-97" d="M107.87,151.19c-2.89.38-5.92-.82-8.72.75-1.16-1.51-1.85-3.23-2.2-5.09,2.62-1.85,5.5-.99,8.32-.8,2.12,1.08,3.34,2.62,2.6,5.14Z"/>
      <path class="cls-65" d="M146.15,124.39c-1.42,0-2.88-.18-4.27.03-3.51.53-5.41-.85-5.72-4.38,2.93-1.64,5.86-1.56,8.81-.04.83,1.35.91,2.9,1.19,4.39Z"/>
      <path class="cls-119" d="M170.27,167.91c-1.46-.04-2.92-.07-4.38-.11-.11-.37-.05-.8.26-.94,3.52-1.52,6.44-4.03,9.81-5.8.31-.13.64-.22.97-.29.5-.1,1.01-.1,1.51-.02,1,.43,2.43.26,2.62,1.84-3.24,2.49-6.49,4.98-10.8,5.3Z"/>
      <path class="cls-114" d="M167.13,110.57c.27-1.79.62-3.56,1.59-5.14,1.98.15,3.92.6,5.92.6,1.28,0,2.61.13,3.33,1.49.38,2,.31,3.83-1.93,4.77-2.85-1.21-6.22.27-8.91-1.72Z"/>
      <path class="cls-52" d="M52.12,153.53c-1.81-2.28-5.59-2.08-6.65-5.3-.81-1.16-.17-2.06.53-2.95.3-.21.64-.33,1.01-.36,2.82.61,5.42,1.59,7.16,4.09-.33,1.66-.91,3.21-2.04,4.51Z"/>
      <path class="cls-59" d="M153.5,151.02c0,.31,0,.62,0,.93-1.32,1.57-2.71,3.08-4.45,4.17-.94.59-1.89,1.69-3.19.6-1.02-1.96-1.96-3.93-1.56-6.24,2.54-2.88,5.41-2.08,8.32-.74.29.43.58.85.87,1.28Z"/>
      <path class="cls-178" d="M149.2,138.15c.01,1.58,1.55,2.7,1.32,4.35-2.33,1.77-5.34.44-7.79,1.71-.44.04-.8-.1-1.11-.42-.94-1.74-1.54-3.52-.66-5.49,2.71-1.81,5.46-1.72,8.23-.15Z"/>
      <path class="cls-198" d="M234.77,82.34c-.66,1.25-1.03,2.67-2.14,3.66-3.1.19-6.31,1.25-9.11-1.09-.4-.86-.38-1.72-.01-2.58.35-.61.84-1.06,1.49-1.33,2.34-.7,4.74-.51,7.12-.35,1.09.07,2.51-.03,2.65,1.68Z"/>
      <path class="cls-71" d="M230.49,89.67c-.43,1.59-1.06,3.07-2.26,4.25-2.41.37-4.81.7-7.14-.39-1.14-1.45-.35-2.78.27-4.13.4-.54.9-.95,1.54-1.18,1.64-.5,3.32-.5,4.99-.31,1.1.13,2.53,0,2.6,1.75Z"/>
      <path class="cls-8" d="M299.27,188.71c.28.3.55.6.83.9-1.48,2.44-.55,5.14-.84,7.7-.11.92.64,2.35-1.17,2.44-1.79.09-1.37-1.29-1.38-2.27-.04-2.75-.03-5.5,0-8.25,0-.8-.26-1.79.79-2.15,1.52-.53.94,1.35,1.78,1.64Z"/>
      <path class="cls-8" d="M37.46,188.71l.83.9c-1.48,2.44-.55,5.14-.84,7.7-.11.92.64,2.35-1.17,2.44-1.79.09-1.37-1.29-1.38-2.27-.04-2.75-.03-5.5,0-8.25,0-.8-.26-1.79.79-2.15,1.52-.53.94,1.35,1.78,1.64Z"/>
      <path class="cls-265" d="M225.34,75.88h12.43c.11,1.62-.59,2.66-1.51,3.6-3.42.46-6.83.49-10.24-.09-.53-.23-.93-.58-1.04-1.17.31-.75.06-1.59.36-2.34Z"/>
      <path class="cls-201" d="M62.94,78.04c-3.98,2.27-8.68,3.37-11.7,7.19-.16,1.15-1.01,1.66-1.92,2.13-1.41.35-2.28,2.02-3.99,1.66-.58-.44-.99-.95-.61-1.73,5.24-4.73,10.88-8.67,18.23-9.26Z"/>
      <path class="cls-193" d="M230.49,89.67c-2.54-1.65-5.37-.39-8.04-.79-.61-.53-.64-1.22-.54-1.95.2-.86.47-1.7,1.04-2.41.31-.22.63-.23.94,0,1.52,1.4,3.38.48,5.07.74,1.23.18,2.63-.44,3.66.75-.25,1.49-1.23,2.55-2.13,3.67Z"/>
      <path class="cls-36" d="M177.5,107.74c-1.54-1.42-3.42-.57-5.13-.71-1.44-.12-2.92.08-3.65-1.59.06-.75,0-1.54.66-2.11,3.02-1.61,6.12-1.28,9.25-.42,1.31,2,1.23,3.68-1.13,4.83Z"/>
      <path class="cls-126" d="M170.08,101.16c.15-1.6.59-3.1,1.53-4.43,3.13,0,6.46-1.23,9.13,1.53.53,1.52.06,2.67-1.3,3.49-3.17.56-6.35,1.33-9.36-.58Z"/>
      <path class="cls-67" d="M172.47,123.76c-1.33-1.46-3.07-.59-4.62-.82-1.43-.22-3.07.56-4.26-.88.14-.96-.02-2.01.84-2.75,4.49-2.09,7.94-1.47,9.55,1.72-.04,1.16.06,2.41-1.51,2.73Z"/>
      <path class="cls-37" d="M12.14,135.25c.44-2.17,1.55-4.03,2.73-5.85,1.9-1.07,3.7-1.45,5.07.8.39,2.35-.52,4.38-1.62,6.36-.28.29-.63.43-1.04.41-1.63-.8-3.66-.43-5.14-1.72Z"/>
      <path class="cls-107" d="M9.89,170.63c1.71.08,3.43.16,5.14.24-4.21,1.16-8.47.62-12.7.3-2-.15-2.9-1.19-1.96-3.4.59-1.38.57-3.02,1.53-4.3,1.51-.94,2.57-.43,3.35,1.01.77,1.73-1.74,3.6-.12,5.01,1.18,1.03,3.34-.1,4.77,1.13Z"/>
      <path class="cls-149" d="M130.37,101.19c3.12.3,6.34-.7,9.37.72.56.87.9,1.81.9,2.86-2.59,1.9-5.47,1-8.27.87-1.41-.37-2.08-1.4-2.43-2.71-.11-.64-.04-1.24.44-1.74Z"/>
      <path class="cls-57" d="M94.81,114.25c-2.39-.41-4.75-.99-7.21-.75-1.07-1.52-.87-3.37-1.32-5.05,2.32-.55,4.61-.42,6.89.25.89.53,1.28,1.42,1.64,2.32.28,1.07.87,2.15,0,3.22Z"/>
      <path class="cls-229" d="M225.37,78.73c3.62.44,7.36-.91,10.89.75-.19,1.11-.55,2.14-1.49,2.85-3.29-1.49-6.76-.35-10.12-.71-.92-1.25-.65-2.21.72-2.9Z"/>
      <path class="cls-247" d="M93.34,109.18c-2.35-.27-4.82.59-7.07-.73-.37-1.43-.74-2.86-1.12-4.29,1.61-1.53,3.5-1.1,5.38-.79,1.69.61,2.34,2.05,2.86,3.6.19.74.4,1.48-.06,2.21Z"/>
      <path class="cls-80" d="M6.92,148.23c2.12,1.25,4.46.63,6.7.79.85,1.13.15,2.12-.26,3.14-.68,1.22-1.46,2.32-3.07,2.34-1.17-.03-2.34-.09-3.46-.41-1.11-.32-1.98-.86-1.25-2.24,0-1.37.45-2.57,1.34-3.62Z"/>
      <path class="cls-260" d="M152.63,149.75c-1.79,0-3.58,0-5.37,0-1.1,0-2.23-.07-2.4,1.45-2.57-1.31-2.58-3.22-1.29-5.44,2.66-.99,5.29-1.25,7.83.36.41,1.21.82,2.42,1.23,3.63Z"/>
      <path class="cls-202" d="M173.18,121.56c.08-1.64-.67-2.34-2.35-2.27-2.13.09-4.27.02-6.4.02.1-1.6.5-3.11,1.4-4.46,2.88.93,6.08-.11,8.88,1.38,1,2.21.99,4.13-1.53,5.34Z"/>
      <path class="cls-147" d="M149.2,138.15c-2.64.38-5.43-.82-7.97.73-2.07-.5-1.37-1.93-1.08-3.22,1.68-2.64,4.33-3,8.3-1.13.66,1.12.96,2.32.75,3.62Z"/>
      <path class="cls-208" d="M84.05,99.74c-.3-.94-.61-1.89-.91-2.83-.27-.47-.43-.98-.44-1.53.47-1.71,1.45-2.88,3.31-3.12,1.3.49,1.72,1.72,2.33,2.79.63,1.63,1.92,3.02,1.8,4.92-.1.38-.34.64-.71.78-1.86.04-3.76.29-5.37-1Z"/>
      <path class="cls-35" d="M91.89,130.97c.28-1.92,1.79-1.38,2.99-1.53,1.45-.17,3.06.58,4.31-.75,2.49,1.08,2.53,2.77,1.19,4.8-2.69.97-5.35,1.13-7.93-.36-.64-.61-.56-1.4-.56-2.17Z"/>
      <path class="cls-64" d="M151.4,146.11c-2.67,0-5.33,0-8,0-1.61-.27-1.26-1.19-.72-2.17.45-2.21,2.24-1.31,3.51-1.42,1.43-.13,2.89-.03,4.33-.03.29,1.21.58,2.41.87,3.62Z"/>
      <path class="cls-155" d="M172.16,95.33c.33-1.29.75-2.53,1.74-3.49,3.06-.32,6.18-1.27,8.98.92.58,1.54.14,2.88-.84,4.11-.37.22-.77.28-1.19.18-1.63-.87-3.42-.53-5.15-.66-1.26-.09-2.6.06-3.55-1.08Z"/>
      <path class="cls-158" d="M83.18,95.43c-.01.49-.03.99-.04,1.48-1.28-1.21-2.12-.15-3.02.59-2.9.08-6.15,1.86-8.3-1.72-.01-.91.39-1.62,1.09-2.17.36-.22.74-.38,1.15-.47,2.44-.26,4.89-.36,7.33.06,1.18.27,1.53,1.21,1.78,2.23Z"/>
      <path class="cls-271" d="M169.48,132.94c-.44.33-.88.66-1.32.98-2.74.13-5.55.9-8.08-.86.11-1.6.52-3.1,1.42-4.44,2.88,1.05,6.17-.29,8.91,1.56.34.52.44,1.08.33,1.68-.2.62-.61.98-1.26,1.07Z"/>
      <path class="cls-5" d="M15.05,143.95c-1.63-1.78-4.3.35-5.89-1.56.11-1.33.51-2.55,1.43-3.55,1.85-1.28,3.78-1.27,5.76-.33,1.25,2.21,1.22,4.13-1.3,5.44Z"/>
      <path class="cls-127" d="M182.57,93.23c-1.51-1.38-3.35-.47-5.02-.72-1.22-.18-2.59.42-3.65-.66.39-1.24,1.01-2.32,2.03-3.15,1.87-.3,3.75-.18,5.61-.05,1.3.09,2.62.3,3,1.9-.09,1.31-.19,2.61-1.97,2.68Z"/>
      <path class="cls-20" d="M218.11,193.47c0,1.68-.01,3.36,0,5.04,0,.9-.38,1.28-1.29,1.22-.77-.05-1-.49-1-1.15,0-3.36,0-6.71,0-10.07,0-.76.13-1.43,1.12-1.46,1-.03,1.17.6,1.17,1.39,0,1.68,0,3.36,0,5.04Z"/>
      <path class="cls-16" d="M221,93.23c2.4.32,4.93-.72,7.23.69-.63,1.27-1.03,2.68-2.14,3.67-2.11.38-4.21.46-6.28-.29-.54-.34-.72-.86-.75-1.46.08-.95.36-1.83.96-2.59.32-.28.65-.28.98-.02Z"/>
      <path class="cls-31" d="M170.25,130.92c-1.76-1.47-3.84-.48-5.75-.73-1.22-.16-2.72.35-3.01-1.56.04-.78.02-1.58.72-2.14,1.41,1.43,3.2.54,4.81.78,1.37.21,2.94-.53,4.03.9.42.41.54.92.53,1.48-.17.71-.32,1.45-1.34,1.27Z"/>
      <path class="cls-167" d="M180.35,83.72c1.21,1.39,2.84.61,4.28.8,1.17.16,2.72-.49,3.02,1.46.35,1.53-.31,2.35-1.82,2.56-1.91-.06-3.83.03-5.72-.17-1.09-.12-2.53.07-2.63-1.69.66-1.27,1.66-2.22,2.87-2.96Z"/>
      <path class="cls-249" d="M118.72,82.37c-1.42-.98-2.84-1.95-4.26-2.93,2.89-1.54,5.78-.56,8.66,0,1.75.83,3.73,1.27,5,2.93-3.13,1.61-6.27,1.59-9.4,0Z"/>
      <path class="cls-20" d="M28.82,193.59c0-1.68,0-3.36,0-5.04,0-.73.03-1.45,1.05-1.5.98-.05,1.24.54,1.24,1.34.01,3.36,0,6.71.01,10.07,0,.88-.33,1.3-1.27,1.27-1.05-.04-1.04-.75-1.04-1.47,0-1.56,0-3.12,0-4.68Z"/>
      <path class="cls-20" d="M347.07,192.96c0-1.56,0-3.12,0-4.68,0-.88.44-1.29,1.35-1.22.8.07.94.6.94,1.24,0,3.36,0,6.71,0,10.07,0,.79-.12,1.39-1.15,1.37-1.01-.02-1.16-.6-1.15-1.39,0-1.8,0-3.6,0-5.4Z"/>
      <path class="cls-269" d="M129.65,190.35c-.98,2.43-.5,4.98-.63,7.49-.04.75.36,1.78-.99,1.88-1.61.13-1.28-1.04-1.29-1.93-.02-3.01-.03-6.02,0-9.03,0-.9-.2-2.17,1.47-1.41-.03,1.24,1.58,1.7,1.45,2.99Z"/>
      <path class="cls-139" d="M291.37,199.49c.4-1.36-.73-1.87-1.44-2.61,1.35-2.6.43-5.39.69-8.08.08-.8-.14-1.76,1.15-1.76.98,0,1.17.63,1.17,1.41,0,3.46.03,6.91-.03,10.37-.02,1.04-.78.97-1.53.68Z"/>
      <path class="cls-123" d="M174.72,116.43c-2.05,0-4.1-.02-6.15-.02-1.21,0-2.51.15-2.74-1.57,0-.8.02-1.6.69-2.18,3.11-.01,6.37-1.19,9.17,1.2.3,1.09.55,2.17-.97,2.58Z"/>
      <path class="cls-45" d="M131.77,104.83c2.96-.02,5.91-.04,8.87-.05.76,1.1,1.15,2.33,1.25,3.65-3,.61-5.99.41-8.98-.12-.81-.34-1.32-.95-1.58-1.78-.11-.64-.02-1.22.45-1.7Z"/>
      <path class="cls-66" d="M175.36,114.32c-1.39-1.47-3.19-.56-4.79-.81-1.37-.21-2.93.52-4.05-.86.06-.74-.03-1.52.61-2.09,2.1.01,4.2.03,6.3.04,1.17,0,2.43-.14,2.65,1.52.6,1.01.71,1.85-.72,2.19Z"/>
      <path class="cls-1" d="M125.49,91.03c3.1,0,6.19,0,9.29,0,.78.83,1.39,1.73,1.39,2.92-2.97,1.7-6,1.25-9.05.27-.87-.54-1.58-1.24-2-2.19-.12-.42,0-.75.37-1Z"/>
      <path class="cls-42" d="M134.66,113.54c-.92-1.04-1.11-2.36-1.38-3.65,3.15-.5,6.3-.93,9.28.74.26.96.52,1.93.78,2.89-2.89,1.68-5.78,1.53-8.68.02Z"/>
      <path class="cls-192" d="M126.75,93.22c3.05,1.43,6.28.43,9.42.73.5.96,1.53,1.64,1.47,2.89-3.14-.27-6.38.72-9.44-.71-.91-.15-1.47-.72-1.83-1.54-.11-.52-.03-.99.38-1.36Z"/>
      <path class="cls-144" d="M223.97,101.27c-.36,1.39-.93,2.66-2.07,3.6-1.52,1.09-3.14,1.12-4.83.49-.64-.31-.86-.86-.91-1.52.06-1.05.38-2.02.93-2.92.39-.52.89-.89,1.51-1.11,1.94-.09,4.21-1.34,5.36,1.47Z"/>
      <path class="cls-150" d="M139.78,133.8c-1.59-4.39-1.16-5.06,3.31-5.07,1.32,0,2.65,0,3.97,0,.73.85.73,1.87.69,2.9-2.35,1.83-5.63.28-7.97,2.17Z"/>
      <path class="cls-100" d="M105.7,146.84c-2.91,0-5.83,0-8.74.01-.7-.5-.74-1.26-.79-2.01-.13-1.87,1.38-1.68,2.46-1.84,1.79-.26,3.61-.09,5.41-.18,2,.74,2.51,2.1,1.67,4.02Z"/>
      <path class="cls-170" d="M142.56,110.63c-3.09-.32-6.28.69-9.28-.74-.23-.25-.46-.49-.7-.74-.49-.48-.42-.96,0-1.44,3.09.31,6.29-.69,9.3.73.23.73.45,1.46.68,2.19Z"/>
      <path class="cls-153" d="M84.05,99.74c1.91.11,3.9-.39,5.69.73,1.31.45,1.7,1.52,1.87,2.74-.04.34-.19.64-.43.88-2.01.02-4.02.05-6.03.07-.37-1.47-.74-2.95-1.11-4.42Z"/>
      <path class="cls-232" d="M223.97,101.27c-1.76-1.57-3.89-.46-5.81-.8-.9-1-.29-1.9.17-2.82.31-.44.72-.73,1.26-.8,2.16.33,4.48-.73,6.51.74-.27,1.48-1.21,2.57-2.13,3.68Z"/>
      <path class="cls-109" d="M139.78,133.8c-.13-1.71.74-2.26,2.34-2.19,1.87.08,3.75.02,5.63.02.63.87.78,1.86.7,2.9-1.87,0-3.74,0-5.61,0-1.09,0-2.17-.01-2.34,1.45-.24.25-.48.26-.72,0v-2.17Z"/>
      <path class="cls-24" d="M72.29,95.23c.15,1.7,1.4,1.58,2.61,1.63,1.75.07,3.57-.38,5.21.64-.31,1.05-1.08,1.7-1.96,2.25-2.22,1.31-4.53,1.33-6.9.51-1.57-1.19-.93-2.61-.41-4.03.32-.56.73-1.01,1.45-1.01Z"/>
      <path class="cls-69" d="M92.45,133.13c2.72-.02,5.45-.04,8.17-.06,1.73.31,1.35,1.48,1.05,2.61-2.73,2.03-5.54,1.68-8.4.32-.81-.8-.65-1.88-.83-2.87Z"/>
      <path class="cls-142" d="M17.84,123.49c.52-1.53,1.12-3.01,2.28-4.19,1.29-.16,2.58-.3,3.73.55.36.47.45,1,.41,1.58-.82,2.15-.91,4.71-3.26,6.04-1.27-1.15-3.11-1.84-3.15-3.97Z"/>
      <path class="cls-53" d="M54.16,149.01c-2.41-1.21-4.82-2.42-7.22-3.63-.73-.86-.25-1.66.11-2.47.59-.79.7-2.11,2.14-1.99,1.32,2.56,4.87,2.97,5.76,5.95.04.83-.25,1.53-.79,2.14Z"/>
      <path class="cls-230" d="M216.56,104.8c1.78.02,3.56.04,5.34.06-.74,1.86-1.46,3.73-2.97,5.15-1.74.1-3.55.35-4.35-1.81-.12-.57-.08-1.13.07-1.69.39-.85.71-1.78,1.92-1.71Z"/>
      <path class="cls-207" d="M17.84,123.49c.91,1.33,3.03,1.7,3,3.78.71,1.69.6,3.04-1.45,3.63-.79-2.66-3.05-.9-4.52-1.5.74-2.09,1.65-4.1,2.97-5.9Z"/>
      <path class="cls-274" d="M22.23,115.67c.78-2.2,2.06-4.08,3.6-5.81,1.19-.63,2.36-.97,3.33.37.35,2.85-1.12,4.7-3.37,6.13-1.29.29-2.53.36-3.56-.69Z"/>
      <path class="cls-63" d="M196.35,141.77l1.45-2.9c.92-1.98,1.01-4.54,3.72-5.27,1.03.55,1.89,1.19,1.46,2.56-1.12,2.38-2.62,4.51-4.37,6.47-.87.03-1.69-.1-2.26-.87Z"/>
      <path class="cls-3" d="M5.58,151.85c.16,1.48,1.23,1.51,2.36,1.52,1.05,0,2.19-.21,2.87.94.62,1.84-.36,2.79-1.91,3.43-1.75-.04-3.92,1.23-4.79-1.54.12-1.57.52-3.05,1.47-4.34Z"/>
      <path class="cls-30" d="M177.48,86.68c1.51,1.42,3.37.49,5.06.74,1.23.19,2.62-.44,3.66.73.43.68.01,1.22-.29,1.78-.51.56-.81,1.48-1.88,1.12-.33-1.97-1.9-1.27-3.08-1.45-1.67-.26-3.58.73-5.01-.9.28-.86.72-1.59,1.55-2.02Z"/>
      <path class="cls-4" d="M54.95,146.87c-1.85-2.04-5.52-2.25-5.82-5.83-.23-.29-.32-.61-.23-.97.42-.76.74-1.7,1.94-1.16.88,1.11,1.98,1.92,3.23,2.6,1.01.55,2.08,1.18,1.71,2.66-.1.95,0,1.97-.82,2.7Z"/>
      <path class="cls-96" d="M225.34,75.88c.11.47.82.93.01,1.4-.73,2.13-1.98,2.53-3.77,1.15-4.56-1.57-9.28-.42-13.91-.79-1.86-.15-3.89.42-5.45-1.15-.06-.18-.13-.37-.19-.55,7.77-.02,15.54-.04,23.31-.06Z"/>
      <path class="cls-47" d="M118.72,82.37c3.13,0,6.27,0,9.4,0,.98.47,1.73,1.17,2.17,2.17-2.77,1.82-5.81.87-8.76.84-1.38-.26-2.32-1.03-2.72-2.41-.03-.21-.06-.41-.09-.62Z"/>
      <path class="cls-62" d="M16.55,138.88c-1.99-.02-3.98-.03-5.96-.05.29-1.29.63-2.57,1.55-3.59,1.71.51,4.1-1.27,5.12,1.54.53.96.78,1.82-.71,2.1Z"/>
      <path class="cls-94" d="M172.16,95.33c2.17.02,4.34.05,6.52.07,1.1,0,2.26-.09,2.44,1.45.49.83.48,1.42-.7,1.45-1.62-1-3.43-.64-5.19-.74-1.24-.07-2.65.45-3.62-.83.18-.46.37-.93.55-1.39Z"/>
      <path class="cls-28" d="M4.11,156.19c1.57,1.51,3.54.47,5.29.83.25,2.1-.23,3.84-2.37,4.76-1.55-.04-3.11,0-4.35-1.18.11-1.59.5-3.09,1.43-4.41Z"/>
      <path class="cls-18" d="M170.08,101.16c3.19.01,6.38.03,9.57.04.7,1.04.28,1.7-.72,2.17-3.18-.01-6.36-.03-9.54-.04.07-.78.06-1.57.7-2.17Z"/>
      <path class="cls-105" d="M57.19,139.74c-.01.77-.03,1.53-.68,2.09-2.74.22-4.56-1.08-5.68-3.49-.28-1.2.1-2.21.9-3.09.31-.23.66-.33,1.04-.32,2.19.94,4.36,1.91,4.42,4.81Z"/>
      <path class="cls-250" d="M33.8,98.85c1.29-2.2,2.98-4.05,4.92-5.7.77-.35,1.47-.42,1.98.43-.28,3.56-2.42,5.75-5.43,7.28-1.04-.27-1.79-.75-1.46-2.02Z"/>
      <path class="cls-6" d="M135.45,117.85l-.73-2.89c3.14-.39,6.29-1.01,9.26.73.25.96.5,1.91.75,2.87-3.15.47-6.29.92-9.28-.71Z"/>
      <path class="cls-272" d="M70.87,99.74c2.43,0,4.85,0,7.28,0-.9.99-1.81,1.99-2.71,2.98-1.74,1.14-3.59,1.11-5.49.5-.39-.18-.68-.48-.86-.87-.07-1.32.03-2.53,1.78-2.62Z"/>
      <path class="cls-71" d="M120.92,84.54c3.13,0,6.25,0,9.37.01.53.7,1.06,1.41,1.6,2.11-3.09,0-6.19.02-9.28.02-1.24-.19-1.98-.76-1.69-2.15Z"/>
      <path class="cls-98" d="M165.88,136.66c-.5.71-.99,1.42-1.49,2.14-2.07.12-4.43,1.48-5.78-1.4.03-.79-.05-1.62.73-2.16,1.54-1.26,3.32-1.22,5.1-.79,1.09.26,2.13.72,1.44,2.21Z"/>
      <path class="cls-240" d="M165.88,136.66c-1.68-2.8-4.4-.78-6.54-1.42.03-.79-.04-1.62.73-2.17,2.68.39,5.54-.88,8.08.86-.42,1.19-1.05,2.21-2.27,2.73Z"/>
      <path class="cls-171" d="M186.91,156.91c-1.13,1.28-1.74,3.09-3.63,3.59-1.18-.19-2.46.53-3.57-.39-.23-.3-.32-.64-.28-1.01,1.28-2.08,2.73-3.94,5.4-4.26,1.18.2,2.27.49,2.09,2.06Z"/>
      <path class="cls-172" d="M143.97,115.7c-3.08-.32-6.26.69-9.26-.73-.02-.47-.04-.95-.06-1.42,2.89,0,5.78-.01,8.68-.02.21.73.42,1.45.64,2.18Z"/>
      <path class="cls-237" d="M95.4,142.71c-.69-.57-.64-1.39-.72-2.17-.14-1.79,1.31-1.77,2.39-1.9,1.77-.21,3.57-.26,5.34.13.45.12.85.33,1.21.62.56.84.57,1.68.02,2.53-2.63,1.51-5.47.77-8.25.79Z"/>
      <path class="cls-55" d="M215.2,107.71c.2,2.45,3.03.66,3.73,2.31-.4,1.41-1.06,2.66-2.13,3.69-1.27.08-2.54.09-3.68-.6-.94-.98-.45-1.99-.08-3,.28-.63.56-1.26.9-1.86.31-.42.66-.79,1.26-.53Z"/>
      <path class="cls-112" d="M102.8,139.59c-2.69.43-5.6-.98-8.12.95-.7-.61-.66-1.44-.69-2.25-.05-1.63,1.19-1.53,2.22-1.56,1.91-.05,3.82-.15,5.73.07,1.35.6,1.64,1.53.86,2.78Z"/>
      <path class="cls-72" d="M58.49,126.46c1.5-2.77,2.79-5.67,5.15-7.87-.76,3.2-1.34,6.46-2.84,9.44-1.34.32-2.34.13-2.31-1.57Z"/>
      <path class="cls-184" d="M95.4,142.71c2.52-1.92,5.43-.52,8.12-.95,1.23,0,1.19.61.73,1.45-1.31,1.3-2.96.52-4.44.72-1.25.17-2.68-.43-3.64.91-.69-.55-.69-1.35-.76-2.13Z"/>
      <path class="cls-120" d="M186.91,156.91c-.43-.92-1.15-1.38-2.16-1.38.07-2.76,2.16-3.82,4.17-4.96,1.15.01,2.58-.42,2.48,1.57-1.23,1.84-2.42,3.72-4.48,4.77Z"/>
      <path class="cls-51" d="M135.45,117.85c3.09.32,6.28-.71,9.28.71.08.48.16.95.24,1.43-2.94.01-5.87.03-8.81.04-.24-.73-.47-1.45-.71-2.18Z"/>
      <path class="cls-242" d="M22.23,115.67c1.27.01,2.54.02,3.81.04.61,2.11-.02,3.61-2.17,4.35-1.26-.21-2.7.47-3.75-.76.53-1.31,1.05-2.63,2.11-3.63Z"/>
      <path class="cls-174" d="M33.8,98.85c.3.76.8,1.33,1.58,1.63.11,2.79-1.33,4.55-3.78,5.63-1.06.02-1.9-.31-2.3-1.38,1.18-2.21,2.67-4.17,4.5-5.88Z"/>
      <path class="cls-54" d="M57.19,139.74c-1.01-1.95-2.87-3.06-4.43-4.47-.53-.92-.03-1.69.32-2.49.54-.67.92-1.66,2.1-1.1.99,1.92,3.9,2.96,2.7,5.88-.02.79-.07,1.58-.7,2.18Z"/>
      <path class="cls-215" d="M64.61,115.85c-.33-.68.38-1.04.51-1.58.48-.78-.16-1.67.24-2.45.55-1.48.76-3.1,1.83-4.37.31-.22.66-.37,1.03-.47,1.17-.17,2.33-.26,3.26.71-2.25,2.75-3.92,5.98-6.86,8.15Z"/>
      <path class="cls-212" d="M158.62,137.4c1.61,1.75,4.13-.21,5.78,1.4-.39.99-1.08,1.72-1.94,2.31-1.92.67-4.08,2.05-4.55-1.54.02-.8-.05-1.62.72-2.17Z"/>
      <path class="cls-26" d="M29.3,104.72l2.52.84c.88,1.58-.52,2.54-1.01,3.75-.52.64-.84,1.59-1.97,1.33-.78-1.1-1.98-.64-3.01-.78.94-1.86,1.93-3.69,3.47-5.14Z"/>
      <path class="cls-219" d="M212.99,112.78c1.3.18,2.81-.49,3.81.93-.56,1.49-1.19,2.94-2.35,4.08-1.23-.38-2.57-.58-3.31-1.85-.17-.49-.18-.98-.07-1.49.19-.66.51-1.25,1.01-1.74.31-.19.62-.17.91.06Z"/>
      <path class="cls-177" d="M191.39,152.14c-.7-1.27-1.94-.87-3.02-.95-.5-1.88,1.24-2.09,2.17-2.9,1.33-1.02,2.73-1.79,4.49-1.39-.44,2.29-2.13,3.71-3.65,5.25Z"/>
      <path class="cls-265" d="M123.12,79.45c-2.89,0-5.78,0-8.67,0-1.02-.45-2.04-.9-3.07-1.35,4.14-1.53,7.96-.28,11.73,1.35Z"/>
      <path class="cls-266" d="M157.9,139.57c.78,2.7,3.07.93,4.55,1.54-.86,1.34-1.66,2.72-3.08,3.57-1.07.08-2.16.24-2.96-.74.14-1.58.49-3.08,1.49-4.37Z"/>
      <path class="cls-11" d="M40.45,93.98c-.38-.68-1.05-.77-1.73-.84,1.79-2.16,3.72-4.18,5.99-5.85.27.53.53,1.06.8,1.59-.48,2.89-2.22,4.54-5.06,5.09Z"/>
      <path class="cls-93" d="M2.68,160.6c1.51,0,3.04-.13,4.41.73.4,1.89.08,3.38-2.12,3.83-.51-1.48-1.71-1.72-3.06-1.69.16-.98-.19-2.11.78-2.87Z"/>
      <path class="cls-106" d="M102.07,137.42c-2.68.4-5.54-.9-8.08.88-.68-.63-.7-1.46-.72-2.3,2.67-.44,5.5.81,8.07-.76,1.61.27,1.29,1.18.72,2.18Z"/>
      <path class="cls-203" d="M196.35,141.77c.86.01,1.76-.08,2.26.87-.7,1.57-1.7,2.92-3.03,4.01-1.92-1.98-1.26-3.54.78-4.89Z"/>
      <path class="cls-116" d="M69.44,102.65c2,.03,4,.06,6,.09-.31.89-.83,1.62-1.68,2.08-1.55,1-3.15,1.27-4.85.38-.99-1.09-.6-1.89.53-2.54Z"/>
      <path class="cls-46" d="M68.72,104.82c1.68,0,3.36,0,5.04-.01-.76.96-1.53,1.93-2.29,2.89-1.17,0-2.33,0-3.5,0-.54-.56-.64-1.21-.42-1.94.23-.52.62-.84,1.18-.95Z"/>
      <path class="cls-231" d="M211.57,115.66c.57,1.25,2.87.14,2.89,2.13-.35.8-.5,1.74-1.5,2.08-1.28,0-2.74.45-3.33-1.3-.04-1.42.09-2.74,1.94-2.91Z"/>
      <path class="cls-270" d="M156.41,143.94c1.02.11,2.18-.34,2.96.74-1.19,1.47-2.03,3.36-4.24,3.64-.67-1.78.58-3,1.28-4.38Z"/>
      <path class="cls-241" d="M51.29,138.11c1.06,2.2,3.36,2.65,5.23,3.72-.07.84-.02,1.71-.74,2.34-.55-1.49-1.97-1.88-3.2-2.47-1.23-.59-2.24-1.25-2-2.83-.17-.16-.24-.34-.22-.52.02-.19.06-.29.11-.29.28-.19.56-.17.81.05Z"/>
      <path class="cls-169" d="M57.89,137.56c-.05-1.21-.13-2.41-1.44-3-1.29-.58-1.6-1.64-1.51-2.92-.25-.67.14-.88.69-.97,1.38.54,2.9.87,3.62,2.39-1.05,1.32-.16,3.22-1.36,4.49Z"/>
      <path class="cls-209" d="M59.25,133.07c-1.15-.83-3-.51-3.61-2.2-.83-1.37.02-1.95,1.14-2.41,1.58.13,2.65.94,3.18,2.44.1.83-.22,1.53-.7,2.18Z"/>
      <path class="cls-85" d="M202.97,136.17l-1.55-2.37c-.42-1.5.35-2.31,1.63-2.83,1.06-.22,2.06-.2,2.85.69-1.06,1.45-1.4,3.37-2.93,4.52Z"/>
      <path class="cls-227" d="M279.95,78.62c-1.04-.23-1.71-.82-1.62-1.97.1-1.16.87-1.69,1.97-1.61,1.14.08,1.71.76,1.62,1.94-.09,1.21-.85,1.62-1.98,1.65Z"/>
      <path class="cls-101" d="M210.12,118.56c.6,1.19,2.15.34,2.85,1.32-.41.79-.83,1.59-1.24,2.38-1.22.77-2.38.94-3.37-.37-.37-1.62-.29-3,1.76-3.33Z"/>
      <path class="cls-264" d="M205.91,131.65c-1.01-.01-2.02-.02-3.03-.03-.32-1.97.13-3.59,2.06-4.55,1,.6,2.52.7,2.32,2.44-.45.71-.91,1.43-1.36,2.14Z"/>
      <path class="cls-56" d="M210.1,125.03c-.32.82-.54,1.72-1.47,2.11-1.11-.05-2.29.05-2.64-1.42-.04-1.46.33-2.66,1.95-3.06,1.05.49,3.01.16,2.16,2.37Z"/>
      <path class="cls-87" d="M59.96,130.89l-2.9-2.25c-.64-1.03-.19-1.65.78-2.08.22-.03.43-.06.65-.1.77.52,1.54,1.05,2.31,1.57,0,1.04-.24,2-.84,2.86Z"/>
      <path class="cls-8" d="M129.65,190.35c-.84-.83-1.88-1.55-1.45-2.99.68-.06.79,1.98,2.01.4.55-.71,2.02-2.02,2.85-.22.76,1.67-1.15,1.31-1.91,1.83-.49.34-1,.65-1.5.98Z"/>
      <path class="cls-131" d="M179.66,159.88c1.21.17,2.55-.43,3.61.62-.9.53-.97,1.92-2.2,2.1l-2.86-1.28c-.2-1.17.26-1.68,1.46-1.44Z"/>
      <path class="cls-143" d="M206.47,125.78c.72.45,1.44.9,2.16,1.35-.66.67-.37,1.89-1.36,2.38-.47-1-2.33-.63-2.21-2.23-.25-.24-.31-.52-.21-.85.4-.54.86-.96,1.61-.66Z"/>
      <path class="cls-8" d="M31.59,183.41c-.26,1.03-.7,1.61-1.49,1.6-1-.02-1.46-.74-1.34-1.67.1-.81.7-1.18,1.52-1.11.89.07.99.83,1.31,1.18Z"/>
      <path class="cls-17" d="M179.75,190.31c1.56,2.96.41,6.13.67,9.19-1.09-3-.01-6.16-.67-9.19Z"/>
      <path class="cls-17" d="M181.83,199.57c.02-3.12.04-6.24.06-9.36.82,3.13,1.19,6.25-.06,9.36Z"/>
      <path class="cls-17" d="M244.29,190.31c1.56,2.96.41,6.13.67,9.19-1.09-3-.01-6.16-.67-9.19Z"/>
      <path class="cls-17" d="M246.37,199.57c.02-3.12.04-6.24.06-9.36.82,3.13,1.19,6.25-.06,9.36Z"/>
      <path class="cls-7" d="M210.1,125.03c.11-1.56-1.72-1.14-2.17-2.14-.42-.83-.44-1.44.74-1.42.8,1.09,2.01.61,3.05.79-.3,1.07-.74,2.05-1.63,2.77Z"/>
      <path class="cls-268" d="M218.29,183.58c-.02.84-.58,1.43-1.27,1.44-.69,0-1.25-.6-1.27-1.43-.02-.86.48-1.32,1.28-1.34.82-.01,1.28.47,1.26,1.33Z"/>
      <path class="cls-268" d="M349.56,183.53c0,.84-.52,1.43-1.23,1.47-.72.04-1.25-.56-1.3-1.37-.06-.86.42-1.33,1.22-1.38.83-.05,1.29.42,1.31,1.28Z"/>
      <path class="cls-50" d="M15.92,187.54c-.22-.76-.07-1.67.71-1.65.98.03.56.99.47,1.62-.39,0-.79.02-1.18.03Z"/>
      <path class="cls-34" d="M230.98,16c-1.18-11.38-5.91-15.63-17.43-15.63-3.86,0-7.73.15-11.58-.06-2.28-.12-2.8.59-2.77,2.8.13,9.64.06,19.29.06,28.94v25.32c0,6.46,0,6.33,6.42,6.34,2.42,0,2.73-.92,2.7-2.97-.11-6.87-.04-13.75-.04-20.62q0-5.49,5.59-5.71c12.52-.5,18.29-6.72,17.07-18.42ZM220.32,24.58c-1.39,2.3-8.52,3.83-11.11,2.82-1.12-.44-.88-1.3-.89-2.08-.03-2.65-.01-5.3-.01-7.95,0-2.17.25-4.37-.06-6.49-.5-3.46,1.1-4.06,4.06-3.78,3.45.33,7.14.58,8.49,4.26,1.58,4.33,2.09,8.99-.48,13.22Z"/>
      <path class="cls-164" d="M129.66,128.72c.22.73.45,1.45.67,2.18-1.39,1.24-3.12,1.09-4.79,1.1-5.64.03-11.28.01-16.91.04-2.05.05-2.42-1.61-2.98-3.02-1.8-4.53-3.45-9.11-5.2-13.66-.25-1.44-2.08-2.91.08-4.3,7.77.04,15.55-.44,23.31.25,2.56,5.59,3.74,11.65,5.81,17.4Z"/>
      <path class="cls-83" d="M123.84,111.32c-.58.78-1.43.74-2.27.74-6.2,0-12.4-.02-18.59.01-1.11,0-2.12-.23-3.08-.74-.18-.12-.36-.25-.54-.37-.47-.66-.41-1.21.33-1.62,4.6-1.11,9.28-.31,13.92-.5,2.98-.12,5.98,0,8.97-.06.46-.02.87.11,1.23.38.01.72.02,1.43.03,2.15Z"/>
      <path class="cls-27" d="M123.81,109.17c-.23,0-.46-.01-.69-.02-.74-.77-.75-1.64-.36-2.56,2.94-2.21,5.97-1.81,9.04-.32.26.48.53.96.79,1.44,0,.48,0,.96,0,1.44-2.92,0-5.85.01-8.77.02Z"/>
      <path class="cls-222" d="M30.27,156.98c-.48.48-.96.97-1.45,1.45-5.92-.44-11.47,2.11-17.33,2.18-1.33-2.41-.62-4.47,1.11-6.35,5.24-1.93,10.8-2.26,16.24-3.2,1.07-.19,2.17.01,3.01.86.73,1.16.36,2.27-.13,3.38-.34.68-.75,1.31-1.46,1.68Z"/>
      <path class="cls-23" d="M12.75,154.76c-.88,1.85-1,3.87-1.26,5.85-.53,3.34-1.06,6.68-1.6,10.02-.47.03-.95.09-1.42.09q-6.11.08-3.5-5.56c1.17-1.02,1.57-2.46,2.12-3.83,1.35-1.13,1.34-2.98,2.31-4.31.78-.75,1.17-1.7,1.41-2.72.67-.88,1.33-1.76,2-2.64.97,1.05.86,2.08-.06,3.1Z"/>
      <path class="cls-228" d="M146.36,157.02c2.72-1.22,4.18-4.2,7.15-5.07.74,3.1,2.26,5.86,3.68,8.67.69.32,1.09.79.8,1.6-1.8,1.75-3.64,3.45-5.92,4.59-.52.15-1.04.14-1.56,0-3.01-1.88-6.08-3.7-6.92-7.57.41-1.37,1.37-2.06,2.76-2.22Z"/>
      <path class="cls-61" d="M157.91,162.06c-.24-.48-.48-.96-.72-1.44.47-.25.95-.51,1.42-.76,5.22-2.04,10.59-1.08,15.91-.67,1.1.09,1.92.93,2.18,2.12-3.42,2.47-6.86,4.89-10.81,6.49-.97,0-1.94,0-2.92-.01-2.77-.96-5.21-2.2-5.07-5.73Z"/>
      <path class="cls-95" d="M191.28,138.88c-.13,1.14-.52,2.15-1.46,2.88-6.45.8-12.93.37-19.39.22-1.22-.03-2.34-.52-3.04-1.65.07-1.15.49-2.15,1.36-2.92.77-.64,1.65-1,2.64-1.01,5.53-.08,11.06-.12,16.58.03,1.55.04,3.24.26,3.31,2.46Z"/>
      <path class="cls-263" d="M163.79,149.75c.48-1.21.96-2.42,1.43-3.63,1.13-.78,2.38-1.08,3.75-1.08,4.34.01,8.67-.07,13.01.04,1.95.05,3.91.29,4.73,2.54.03,2.06-.63,3.59-2.96,3.84-4.89-1.16-9.87-.43-14.8-.65-1.77-.08-3.67.36-5.16-1.07Z"/>
      <path class="cls-186" d="M176.7,161.31c-1.32-1.13-2.81-1.51-4.58-1.47-4.5.1-9.01.03-13.51.02.74-1.2,1.48-2.41,2.21-3.61.39-.68.98-1.11,1.74-1.08,5.74.21,11.5-.5,17.22.46,1.14.61,1.21,1.45.51,2.44-1.11,1.14-2.16,2.36-3.52,3.25h-.08Z"/>
      <path class="cls-244" d="M163.79,149.75c5.52,0,11.04,0,16.56,0,1.44,0,2.95-.19,3.7,1.5.75,1.77-.48,2.34-1.74,2.9-6.69.19-13.42,1.19-20.03-.78.5-1.2,1.01-2.41,1.51-3.61Z"/>
      <path class="cls-44" d="M169.48,132.94c.18-.23.36-.45.54-.68,1.04-.68,2.18-1.02,3.42-1.03,5.8-.07,11.6-.08,17.4.01,1.21.02,2.42.15,3.39,1.03.88,1.47.5,2.67-.8,3.67-.24,0-.47.01-.71.02-7,.73-14.02.25-21.03.25-.84,0-1.64-.31-2.22-.99,0-.76,0-1.53,0-2.29Z"/>
      <path class="cls-19" d="M167.39,140.33c6.06,1.49,12.22.35,18.32.73,1.38.09,2.92-.54,4.11.7-.17,1.54-1.23,2.56-2.14,3.66-5.62-.7-11.27-.31-16.91-.42-1.66-.03-3.4.23-4.79-1.06.47-1.21.94-2.41,1.42-3.62Z"/>
      <path class="cls-25" d="M162.28,153.36c5.46,0,10.93,0,16.39,0,1.32,0,2.64,0,3.96.01.67,2.03-.23,2.87-2.2,2.89-6.54,0-13.07,0-19.61,0-.04-1.23.97-1.93,1.46-2.9Z"/>
      <path class="cls-128" d="M169.48,135.23c6.5,0,13-.02,19.5.03,1.27,0,2.68-.48,3.74.71-.13,1.14-.52,2.15-1.45,2.9-.77-1.7-2.31-1.45-3.74-1.45-6.26,0-12.52-.01-18.79-.02.06-.79-.07-1.63.73-2.17Z"/>
      <path class="cls-43" d="M165.97,143.95c6,0,11.99,0,17.99,0,1.44,0,2.95-.2,3.71,1.48-.02.46-.03.92-.05,1.38-.47.5-.03,1.87-1.43,1.47-.52-2.22-2.33-2.13-4-2.14-5.66-.03-11.31-.01-16.97,0,.25-.72.5-1.45.75-2.17Z"/>
      <path class="cls-187" d="M353.51,82.36c-5.52-.11-8.72,2.99-8.87,8.61-.15,5.48,2.93,9,7.98,9.13,5.19.13,8.65-3.41,8.72-8.92.07-5.41-2.87-8.72-7.83-8.82ZM353.05,97.57c-3.3.02-5.43-2.4-5.48-6.23-.05-3.91,2.27-6.68,5.54-6.64,3.13.04,5.23,2.65,5.23,6.52,0,3.95-1.99,6.34-5.3,6.36Z"/>
      <path class="cls-187" d="M320.86,82.35c-5.49-.04-8.58,3.12-8.61,8.8-.02,5.57,3.02,8.94,8.09,8.95,5.14.01,8.65-3.71,8.59-9.12-.05-5.33-3.1-8.59-8.07-8.63ZM320.57,97.57c-3.32,0-5.37-2.37-5.4-6.25-.04-4.04,2.17-6.71,5.47-6.63,3.25.09,5.15,2.5,5.14,6.53-.01,4.1-1.86,6.35-5.21,6.35Z"/>
      <path class="cls-160" d="M56.36,113.51c-1.43,1.71-2.86,3.43-4.28,5.14-6.03.15-11.79,2-17.73,2.71-2.02.24-4.02.76-5.99-.21-.95-3.55,1.44-5.48,3.66-7.49,7.15-1.44,14.37-2.55,21.55-3.86,1.18-.22,2.38-.24,3.55.16.38.15.68.39.91.72.27,1.43-.9,2.01-1.67,2.82Z"/>
      <path class="cls-239" d="M28.17,120.76c6.14.1,12.03-1.66,18.04-2.47,1.9-.26,4.06-1.94,5.86.35-1.23,2.15-2.46,4.3-3.7,6.45-.32.25-.68.38-1.08.4-6.24.37-12.27,2.13-18.45,2.91-1.3.16-2.58.61-3.9.11-1.74-1.99.36-3.37.8-5.01.65-1.04,1.01-2.36,2.43-2.73Z"/>
      <path class="cls-204" d="M47.72,125.15c.22-.02.44-.04.66-.06,3.05,1.19,6.46-.02,9.46,1.47-.26.69-.52,1.39-.78,2.08-.84.51-1.35,1.23-1.42,2.23-.23.26-.47.52-.7.78-.46.48-.93.97-1.39,1.45-3.13,1.61-6.28,1.45-9.45.15-1.37-3.84,1.36-5.86,3.62-8.09Z"/>
      <path class="cls-183" d="M56.36,113.51c0-1.06.56-1.73,1.49-2.15,2.72-.36,5.47-.99,8.01.7-.11.79,0,1.64-.74,2.22-2.8-1.59-5.85-.36-8.76-.77Z"/>
      <path class="cls-259" d="M101.32,114.97c2.18,5.55,4.37,11.1,6.55,16.66,1.28.79,1.41,2.25,2.01,3.43.43,1.13,1.1,2.15,1.35,3.36.03.58-.12,1.09-.6,1.46-2.4.65-4.8,1.28-7.11-.28-.24,0-.48,0-.72,0-.03-.8.12-1.65-.73-2.17-.02-.8.12-1.65-.72-2.18-.03-.79.11-1.65-.72-2.17-.08-1.59-.42-3.1-1.44-4.38-1.24-4.57-2.47-9.14-3.71-13.71,1.94-1.59,3.89-1.18,5.84-.02Z"/>
      <path class="cls-115" d="M101.32,114.97c-1.95,0-3.89,0-5.84.01-.23-.24-.45-.49-.67-.73-.23-.97-.47-1.94-.7-2.92,1.93-1.54,3.85-1.13,5.77.01,0,0,.02-.01.02-.01.48,1.21.95,2.42,1.43,3.63Z"/>
      <path class="cls-210" d="M30.99,155.53c.24-.97.49-1.93.73-2.9.32-.33.69-.57,1.11-.74,2.12-.54,4.28-.37,6.42-.23,1.1.07,2.51-.02,2.63,1.7,0,.25,0,.49,0,.74-.45.49-.9.97-1.36,1.46-3.18,1.4-6.37,1.84-9.54-.03Z"/>
      <path class="cls-197" d="M30.99,155.53c3.18.01,6.36.02,9.54.03-.5.96-1,1.92-1.5,2.88-2.89-.69-6.25,1.47-8.76-1.46.02-.59.14-1.13.72-1.45Z"/>
      <path class="cls-246" d="M113.66,160.61c-.73-1.21-1.45-2.41-2.18-3.62-.85-1.75-2.56-3.02-2.88-5.08,1.72-2.53,4.5-1.52,6.81-2.06.99.12,1.64.71,2.16,1.5.51.84,1,1.69,1.56,2.5.71,1.18,1.46,2.35,2.29,3.46.68.86,1.49,1.59,2.28,2.35,1.82,2.36,4.71,3.69,6.16,6.41-.61,1.51-1.7,1.67-3.06,1.11-3.42,1.52-5.68-1.2-8.23-2.45-1.86-.92-3.29-2.71-4.91-4.12Z"/>
      <path class="cls-195" d="M126.8,167.18c1.16-.07,2.33-.12,2.81-1.49,4.19-1.06,8.01-2.91,11.57-5.34.39-.29.78-.58,1.17-.86.55-.33,1.08-.75,1.77-.34,1.11,3.38,4.23,4.95,6.53,7.25-.68,1.79-2.54.57-3.59,1.4-5.75.02-11.5.06-17.25.05-1.03,0-2.19.34-3.02-.67Z"/>
      <path class="cls-195" d="M157.91,162.06c.97,2.55,3.04,4.12,5.07,5.73-2.9,0-5.81.01-8.71.02-.66-.56-1.91-.21-2.16-1.4,1.78-1.66,3.35-3.57,5.8-4.34Z"/>
      <path class="cls-29" d="M152.11,166.4c.72.47,1.44.94,2.16,1.4-2.4,0-4.8,0-7.2,0,1.2-.47,2.4-.93,3.6-1.4.48,0,.97,0,1.45,0Z"/>
      <path class="cls-86" d="M59.56,181.27c-1.13-.08-1.42.62-1.4,1.6.02,1.55,0,3.1,0,5.03-1.34-.44-2.23-.9-3.16-1.02-2.41-.31-4.26.77-5.42,2.81-1.48,2.59-1.44,5.28.14,7.86,1.21,1.98,3.08,2.5,5.29,2.28,1.5-.15,2.84-2.12,4.6-.18.49.54,1.02-.56,1.02-1.33,0-5.17,0-10.34,0-15.51,0-.79-.13-1.47-1.08-1.53ZM54.51,198.07c-2.72-.08-3.52-2.23-3.48-4.54.04-2.37.57-4.69,3.65-4.74,3.18-.04,3.52,2.22,3.5,4.71.04,2.51-.69,4.65-3.66,4.57Z"/>
      <path class="cls-86" d="M321.37,181.27c-1.13-.08-1.43.6-1.41,1.59.02,1.55,0,3.1,0,5.04-1.33-.44-2.22-.89-3.15-1.02-2.41-.31-4.26.77-5.42,2.8-1.48,2.59-1.44,5.28.13,7.86,1.21,1.98,3.07,2.5,5.29,2.29,1.5-.15,2.84-2.15,4.6-.18.48.54,1.03-.55,1.03-1.33,0-5.17,0-10.34,0-15.51,0-.78-.12-1.47-1.07-1.54ZM316.56,198.06c-2.94.08-3.78-2.19-3.73-4.65.05-2.38.67-4.65,3.75-4.63,2.94.02,3.4,2.08,3.39,4.72.08,2.19-.44,4.48-3.42,4.56Z"/>
      <path class="cls-140" d="M49.16,86.71c.7-.49,1.39-.99,2.09-1.48,8.2-.41,16.29-1.45,24.04-4.39.47.32.94.64,1.41.96.67.85,1.33,1.74,2.58,1.73,1.61.51,2.46,1.67,2.76,3.27-.16,1-.87,1.41-1.76,1.61-1.69-1.54-3.44-.92-5.19-.11-8.33.68-16.42,2.77-24.66,3.95-1.43.2-2.84.64-4.29.11-1.47-.86-.63-1.76-.03-2.65.81-1.21,1.82-2.22,3.06-2.99Z"/>
      <path class="cls-32" d="M202.22,76.5c5.79-.01,11.59-.06,17.38,0,1.11.01,2.9-.78,2.87,1.54-.38,1.65-.98,3.21-1.79,4.7-.38.67-.81,1.3-1.54,1.65-.38.17-.78.28-1.19.34-5,.33-10,.14-14.99.13-1.44,0-2.86-.19-4.07-1.08-1.64-3,.09-4.53,2.52-5.76.02-.63.21-1.17.8-1.5Z"/>
      <path class="cls-14" d="M185.47,89.6c.24-.48.48-.97.73-1.45.49-.72.97-1.44,1.46-2.17,1.21-.97,2.42-1.94,3.62-2.9,2,.89,4.67-.3,6.24,1.98.07,2.77-.77,5.06-3.43,6.37-2.91-.43-6.19.88-8.61-1.82Z"/>
      <path class="cls-12" d="M197.08,85.26c-.94-1.13-2.23-.64-3.38-.72-1.09-.07-2.26.1-2.42-1.46,3.02-2.41,6.24-4.43,10.15-5.08-1.74,1.26-2.1,3.29-2.89,5.08.31,1.25.14,2.19-1.45,2.18Z"/>
      <path class="cls-20" d="M124.38,186.67c-.38-3.39-3.27-4.88-8.03-4.76-3.89.1-2.67,2.73-2.79,4.75-.08,1.44-.02,2.88-.02,4.32,0,2.16-.05,4.32.02,6.48.03.93-.56,2.41,1.32,2.24,1.58-.14.97-1.46.92-2.24-.18-2.89-.26-5.12,3.93-5.06,3.1.04,4.96-2.89,4.64-5.73ZM117.78,191.03c-3.43.1-1.21-2.6-2.02-3.72.49-1.42-1.04-3.74,2.1-3.55,2.34.14,4.05.88,4.09,3.46.04,2.71-1.68,3.74-4.18,3.81Z"/>
      <path class="cls-154" d="M110.7,138.17c-.86-.78-1.27-1.78-1.38-2.92-.69-1.25.15-2.07,1.09-2.12,6.9-.43,13.85-1.62,20.67.67.48.97.97,1.93,1.45,2.9.21.47.13.89-.25,1.24-.84.77-1.88,1.13-2.98,1.17-5.43.19-10.87.16-16.3.02-.87-.02-1.62-.43-2.3-.96Z"/>
      <path class="cls-2" d="M131.08,133.8c-6.21,0-12.42-.02-18.63.02-1.2,0-2.78-.56-3.12,1.43-.97-1.01-1.15-2.34-1.45-3.62,1.19-1.25,2.72-.69,4.09-.7,6.12-.06,12.24-.02,18.36-.02.25.97.5,1.93.75,2.9Z"/>
      <path class="cls-150" d="M132.49,137.43c.01-.24.03-.49.04-.73,2.31-1.28,4.83-.52,7.25-.73.24,0,.48,0,.72,0,.1,1-.33,2.14.73,2.9.24,1.69.49,3.38.73,5.07-1.38,2.96-3.84,1.41-5.93,1.42-1.2-.42-1.88-1.36-2.42-2.44-.37-.81-.6-1.68-.89-2.52-.25-.98-.75-1.94-.23-2.98Z"/>
      <path class="cls-99" d="M139,193.87c1.56-.09,3.13-.05,4.7-.02,1.11.02,1.79-.21,1.8-1.57.04-3.67-3.45-6.29-6.94-5.13-3.06,1.02-4.66,3.93-4.11,7.5.52,3.44,2.59,5.19,6.5,5.23.3-.02.9-.02,1.5-.12.9-.15,2.26-.07,1.96-1.42-.28-1.27-1.39-.35-2.12-.27-1.61.17-3.14.08-4.41-1.06-.74-.67-1.34-1.53-1.05-2.53.33-1.13,1.42-.57,2.17-.61ZM140.14,188.59c1.67.02,2.97,1.05,2.85,2.57-.14,1.75-1.93.54-2.99,1.01-.9-.65-2.96.92-2.96-1.21,0-1.47,1.47-2.39,3.1-2.37Z"/>
      <path class="cls-268" d="M69.73,186.8c-3.58-.06-6.33,2.66-6.48,6.41-.15,3.8,2.42,6.61,6.07,6.66,3.68.04,6.41-2.61,6.53-6.32.12-3.67-2.61-6.68-6.12-6.74ZM69.49,198.05c-2.77-.02-3.79-2.11-3.78-4.69,0-2.59,1.04-4.34,3.53-4.65,3.34.16,4.07,2.29,4.11,4.7.05,2.53-1.07,4.67-3.86,4.64Z"/>
      <path class="cls-268" d="M273.22,186.8c-3.58.13-6.2,2.97-6.18,6.71.02,3.79,2.69,6.45,6.38,6.35,3.63-.1,6.29-2.93,6.22-6.63-.07-3.73-2.9-6.56-6.42-6.44ZM273.13,198.05c-2.75-.14-3.71-2.28-3.62-4.84.09-2.56,1.08-4.39,4.05-4.48,2.94.29,3.6,2.44,3.58,4.84-.02,2.54-1.21,4.63-4,4.49Z"/>
      <path class="cls-163" d="M358.68,186.8c-3.53-.05-6.31,2.74-6.41,6.46-.11,3.82,2.43,6.57,6.1,6.59,3.76.03,6.3-2.51,6.37-6.37.07-3.87-2.43-6.64-6.05-6.69ZM358.62,198.07c-2.85.1-3.98-2.1-3.98-4.58,0-2.38.77-4.63,3.79-4.73,3.09-.1,3.6,2.19,4.04,4.18-.13,2.89-1.06,5.03-3.84,5.13Z"/>
      <path class="cls-163" d="M227.06,186.8c-3.56.07-6.16,2.87-6.18,6.65-.01,3.88,2.52,6.48,6.24,6.41,3.68-.07,6.24-2.76,6.23-6.55-.01-3.77-2.73-6.58-6.29-6.51ZM227.11,198.07c-2.79.02-3.93-2.07-3.89-4.63.03-2.47.85-4.59,3.83-4.67,3.09-.08,3.55,2.27,4.02,4.52-.28,2.53-1.14,4.76-3.96,4.78Z"/>
      <path class="cls-139" d="M334.78,190.88c-.17-2.33-1.66-3.76-3.94-4.01-1.79-.2-3.7-.15-4.71,2.11q5.32-.38,6.58,2.61c-1.93.22-3.86.36-5.53,1.33-1.65.94-2.31,2.41-1.89,4.26.44,1.95,1.88,2.62,3.75,2.69,1.69.06,3.24-1.75,5.12-.22.55.45.75-.59.74-1.18-.03-2.52.07-5.06-.11-7.57ZM332.69,195.17c-.07,1.91-1.25,2.83-2.99,2.96-1.41.11-2.31-.68-2.2-2.19.17-2.38,2.3-2.03,3.24-2.51,2.06-.3,1.98.76,1.94,1.74Z"/>
      <path class="cls-268" d="M203.46,194.97c0-1.2.12-2.42-.02-3.61-.46-3.76-3.55-5.5-7.12-4.11-.67.26-1.58.37-1.41,1.3.3,1.63,1.27.21,1.92.29.83.09,1.69-.1,2.51.02,1.1.16,1.69,1.08,1.76,2.03.1,1.42-1.19.71-1.85.89-1.39.37-2.86.52-4.03,1.47-1.2.97-1.84,2.24-1.51,3.8.3,1.4,1.28,2.25,2.64,2.7,2.22.73,4.36-1.74,6.67-.12.38.27.5-.59.51-1.05,0-1.2,0-2.41,0-3.61-.02,0-.04,0-.06,0ZM198.24,198.15c-1.41.1-2.32-.76-2.23-2.15.15-2.2,2.08-2.25,3.55-2.65,1.33-.18,1.84.38,1.76,1.59-.12,1.96-1.18,3.07-3.09,3.21Z"/>
      <path class="cls-90" d="M163.7,193.87c.53-.2,1.19-.03,1.8-.03,3.52-.02,4.21-1.11,2.59-4.2-1.3-2.49-3.38-3.32-6.06-2.51-3.22.98-4.91,4.41-4.1,8.2.73,3.4,3.78,5.13,7.89,4.44.89-.15,2.28-.05,2.02-1.41-.25-1.25-1.36-.37-2.11-.22-.6,0-1.21.06-1.8-.01-1.97-.23-3.83-1.17-3.71-3.22.13-2.24,2.31-.59,3.48-1.04ZM163.37,188.52c1.78-.05,3.27,1.04,3.07,2.73-.22,1.85-2.17.42-3.21.99-1-.5-2.84.82-2.96-.91-.11-1.64,1.36-2.76,3.1-2.81Z"/>
      <path class="cls-74" d="M193.43,135.95c.25-.96.5-1.91.75-2.87.43-.97.31-2.12.96-3.02.51-.95.97-1.91,1.43-2.89.27-.57.54-1.15.8-1.73.46-.86.66-1.99,1.98-2.01,1.8,1.26,4.45.97,5.76,3.14,0,.24-.02.48-.04.71-.73,1.45-1.45,2.89-2.18,4.34-.48.72-.97,1.45-1.46,2.17-1.21,1.69-2.42,3.38-3.62,5.07-.49-2.41-3.53-1.02-4.37-2.92Z"/>
      <path class="cls-76" d="M186.19,148.27c.48-.49.95-.98,1.43-1.47.55,1.32,1.66,1.56,2.93,1.48-.72.97-1.45,1.93-2.17,2.9-1.21,1.45-2.42,2.89-3.63,4.34-2.41.21-3.11,2.8-5.07,3.63-.22-.17-.3-.34-.23-.52.06-.18.13-.27.2-.27.26-.7.53-1.41.79-2.11,1.14-.65,2.03-1.5,2.2-2.89.9-.43,1.37-1.14,1.42-2.14,1.24-.6,1.57-1.87,2.14-2.96Z"/>
      <path class="cls-135" d="M46.26,145.42c-.26.94-.53,1.87-.79,2.81-.45.28-.9.57-1.36.85-2.97-1.04-6.53.64-9.15-1.99-.32-1.2.1-2.11,1.06-2.83.39-.22.8-.37,1.24-.46,2.01-.32,4.04-.27,6.05-.12,1.17.09,2.79-.2,2.95,1.74Z"/>
      <path class="cls-122" d="M35.35,146.84c1.54,1.38,3.4.55,5.11.69,1.43.12,2.91-.1,3.65,1.55-.24.47-.49.93-.73,1.39-3.24,1.55-6.46,1.71-9.67-.11-.54-1.68-.52-3.1,1.64-3.53Z"/>
      <path class="cls-82" d="M33.9,149.73c3.05,1.61,6.34.3,9.48.75-.19,1.12-.57,2.15-1.49,2.89-3.04-1.61-6.31-.32-9.44-.73-.7-1.56-.41-2.62,1.45-2.9Z"/>
      <path class="cls-70" d="M115.86,150.46c-2.31,1.06-4.99.22-7.26,1.45-.24-.24-.48-.48-.73-.72-.72-1.45-1.45-2.9-2.17-4.35-.31-1.28-.47-2.61-1.45-3.62-.01-.6-.14-1.14-.73-1.45,0-.72,0-1.45,0-2.17,2.41,0,4.82,0,7.23,0,.51.06.89.34,1.2.72.6.92,1.04,1.93,1.5,2.93.39,1.16.79,2.32,1.43,3.38.43.85,1.04,1.59,1.37,2.5.09.51.03.97-.39,1.33Z"/>
      <path class="cls-133" d="M108.57,78.17c-1.03.93-2.73.66-3.54,1.98-2.61,1.9-5.76,2.84-8.43,4.63-.8.67-1.96.92-2.61,2.37,6.46.08,12.74.11,19.02-.06,1.74.68,2.4,2.03,2.34,3.81-.24.38-.56.65-.97.82-7.91.74-15.83.49-23.74.14-1.04-.26-1.85-.88-2.53-1.68-.72-1.94-3.63-2.83-2.7-5.57,1.45-.98,2.9-1.97,4.35-2.95,2.66-2.56,6.29-2.58,9.53-3.61,3.1.04,6.19.07,9.29.11Z"/>
      <path class="cls-162" d="M85.4,84.62c.04,2.21,2.95,2.76,2.9,5.02.21,1.67-.73,2.31-2.21,2.49-2.57-.86-3.48-2.93-3.95-5.34,0-1.77,1.38-1.87,2.61-2.17.22-.03.43-.02.65,0Z"/>
      <path class="cls-199" d="M99.28,78.06c-3.01,1.65-6.32,2.48-9.53,3.61.33-3.2,2.25-4.06,5.19-3.68,1.42.19,2.89.06,4.34.07Z"/>
      <path class="cls-262" d="M84.75,84.61c-.78.66-1.56,1.32-2.34,1.98-.16.38-.37.4-.64.1-1-.91-1.4-2.38-2.77-2.94-.5-.14-.54-.36-.12-.66.96-.25,1.93-.49,2.89-.74.99.75,1.99,1.5,2.98,2.26Z"/>
      <path class="cls-194" d="M112.94,87.45c-1.95,1.44-4.18.61-6.26.66-4.91.14-9.83.04-15.02.04.77-2.52,3.06-3.05,4.61-4.35,3.35-.23,6.69-.53,10.06-.37,1.36.06,2.61.4,3.77,1.07.23-.01.46-.02.7-.02,1.34.53,2.47,1.21,2.14,2.95Z"/>
      <path class="cls-182" d="M112.94,87.45c-.71-.98-1.43-1.97-2.14-2.95,1.3-1.25,2.92-.48,4.39-.68,1.23-.17,2.64.44,3.62-.83.7.52,1.4,1.03,2.1,1.55.56.72,1.13,1.43,1.69,2.15.21.48.42.96.63,1.43-2.38,1.91-5.7.34-8.1,2.19-.73-.95-1.46-1.91-2.19-2.86Z"/>
      <path class="cls-251" d="M110.1,84.51c-4.6-.38-9.29.87-13.83-.7,2.93-1.18,5.33-3.65,8.76-3.66,2.11.97,3.8,2.43,5.08,4.37Z"/>
      <path class="cls-39" d="M78.88,83.09c.03.22.07.44.12.66-1.38.06-2.16-.57-2.31-1.95.73.43,1.46.86,2.19,1.29Z"/>
      <path class="cls-113" d="M178.93,103.37c.24-.72.48-1.45.72-2.17.52-.9.84-1.85.77-2.9.57-.32.69-.86.7-1.45.23-.01.46-.02.69-.02,2.99-.43,5.98-.86,8.8.71.61,3.9-2.35,6.39-3.74,9.51-2.97,5.78-6.68,11.12-10.09,16.64-.75,1.04-1.45,2.11-2.3,3.07-.6.7-1.04,1.54-1.7,2.21-.5.41-1.01.77-1.7.49-.01-.43-.02-.86-.03-1.28.89-1.34,1.29-2.83,1.41-4.41.72-.57.69-1.39.71-2.19,1.09-1.54,1.39-3.31,1.54-5.13.72-.55.62-1.35.65-2.11.74-.56.7-1.39.72-2.19.97-1.31,1.34-2.81,1.42-4.4,1.04-1.27.99-2.9,1.43-4.36Z"/>
      <path class="cls-49" d="M115.13,90.31c-.16-1.79.83-2.22,2.4-2.17,1.9.06,3.8,0,5.7-.02.75.97,1.51,1.94,2.26,2.91-.03.23-.02.46,0,.68-2.47,1.95-5.4.71-8.09,1.18-.39.07-.78.06-1.17-.01-.87-.31-1.11-1-1.09-1.84,0-.25-.01-.49-.02-.74Z"/>
      <path class="cls-110" d="M126.97,94.59c.41.51.82,1.02,1.23,1.53.05.47.09.94.14,1.41-2.64,1.95-5.74.7-8.59,1.22-.45-.02-.86-.16-1.23-.41-.86-1.36-1.7-2.72-.14-4.16,2.91-.84,5.79-1.13,8.59.41Z"/>
      <path class="cls-161" d="M119.47,98.3c2.84-1.57,5.93-.32,8.86-.77.76.83,1.2,1.81,1.3,2.93-2.46,1.81-5.36.62-8,1.18-.39.04-.77,0-1.15-.1-.76-.33-1.13-.98-1.4-1.71-.12-.57-.03-1.09.39-1.53Z"/>
      <path class="cls-130" d="M120.91,101.23c2.79-1.59,5.83-.37,8.73-.76.24.24.49.48.73.72,0,.47.02.94.02,1.41-.3,2.05-2.01,1.69-3.31,1.8-1.77.14-3.57.23-5.32-.36-1.26-.64-1.65-1.55-.86-2.81Z"/>
      <path class="cls-10" d="M36.77,144.66c-.23,0-.46,0-.69,0-7.02,2.5-14.22,3.96-21.71,3.62.21-.72.41-1.43.62-2.15,1.35-1.79.95-4.63,3.44-5.74,5.61-1.2,11.32-1.86,16.94-3.04,1.29-.27,2.62-.28,3.89.23.57.28.85.75.9,1.37-.06,1.14-.82,1.96-1.31,2.9-.56,1.03-1.13,2.05-2.07,2.8Z"/>
      <path class="cls-224" d="M14.36,148.28c7.24-1.21,14.48-2.41,21.71-3.62-.24.72-.49,1.45-.73,2.17-.93.74-1.32,1.75-1.45,2.89-.93.74-1.32,1.76-1.45,2.9-.24,0-.48,0-.72,0-2.92-1.86-5.71.16-8.53.38-3.5.27-6.96,1.13-10.44,1.74.02-1.03.04-2.06.06-3.1.27-.88.55-1.76.82-2.64.25-.25.49-.49.74-.74Z"/>
      <path class="cls-129" d="M18.01,141.05c-1.12,1.63-1.46,3.72-3.02,5.09.02-.73.04-1.46.07-2.18.94-1.56,1.28-3.3,1.51-5.07.71-.54.67-1.33.71-2.1.2-.06.4-.1.6-.13.87-.42,1.36.11,1.83.72.52,1.72-.39,2.78-1.69,3.67Z"/>
      <path class="cls-252" d="M179.64,158.37c.01.26.02.52.03.79,0,.24,0,.48,0,.72-.49.48-.97.96-1.46,1.44-.48,0-.95,0-1.43.01.65-1.27,1.69-2.18,2.86-2.96Z"/>
      <path class="cls-134" d="M36.77,144.66c.16-1.13.55-2.15,1.47-2.9,2.24-.6,4.53-.35,6.79-.23,1.09.06,2.53-.07,2.64,1.68-.25.72-.49,1.45-.74,2.17-.23,0-.46.02-.68.04-3.05-1.66-6.34-.32-9.49-.76Z"/>
      <path class="cls-146" d="M135.46,144.66c2.16-.31,4.47.73,6.5-.72.24,0,.48,0,.72,0,.03.79-.12,1.64.72,2.17.16,1.78.48,3.52,1.46,5.07.5,1.94,1,3.89,1.5,5.83-.74.71-1.49,1.42-2.23,2.13-.44.21-.88.42-1.33.63-1.15-.71-1.44-2.03-2.18-3.03-.44-.82-.85-1.65-1.39-2.41-.79-1.15-1.39-2.41-2.05-3.64-.35-.69-.67-1.4-1.02-2.1-.45-1.01-1.1-1.95-1.14-3.11.05-.33.2-.6.44-.83Z"/>
      <path class="cls-102" d="M220.18,82.34c.35-1.65,1.22-3.04,2.3-4.3,1.45,1.65,1.99-.22,2.88-.75,0,.48.01.96.02,1.45-.51.9-.85,1.84-.72,2.9-.24.24-.48.49-.72.73-1.26.92-2.51,1.12-3.75-.03Z"/>
      <path class="cls-41" d="M220.18,82.34c1.25,0,2.5.02,3.75.03,0,.72-.02,1.44-.03,2.15-.23,0-.47.01-.7.02-1.52.82-3,1.49-3.75-.9.25-.43.49-.87.74-1.3Z"/>
      <path class="cls-9" d="M221,93.23c-.23,0-.46.01-.68.01-1.76,1.3-3.63,1.22-5.55.43-1.46-1.7-.64-3.03.7-4.28,2.09-.06,4.19-.36,6.26.21-.24,1.21-.48,2.41-.72,3.62Z"/>
      <path class="cls-166" d="M221.72,89.61c-1.93.86-3.86,1.32-5.79,0-.96-2.11.17-3.41,1.77-4.52,1.28,1.44,2.99,1.65,4.78,1.62,0,.73-.02,1.45-.03,2.18-.25.24-.49.48-.74.73Z"/>
      <path class="cls-118" d="M49.16,86.71c-1.22,1.69-2.44,3.37-3.66,5.06-.43,2.14-2.1,3.58-3.08,5.4-.99,1.45-1.99,2.89-2.77,4.46-1.17,1.92-2.34,3.84-3.76,5.6-.55.8-.99,1.69-1.87,2.22-1.28.35-2.54.28-3.75-.29.52-1.2,1.04-2.4,1.56-3.6,1.67-1.36,2.54-3.28,3.57-5.09,1.85-2.04,3.84-3.97,5.06-6.49,1.96-1.43,3.64-3.13,5.06-5.09,1.34-.52,1.94-2.28,3.65-2.18Z"/>
      <path class="cls-22" d="M222.48,86.7c-1.74.53-4.13,3.24-4.34-1.3-.66-.92.24-1.16.69-1.59.2-.06.4-.11.61-.17.99,1.4,2.47.72,3.75.89-.04.79.13,1.64-.71,2.17Z"/>
      <path class="cls-60" d="M19.38,137.42c-.5-.25-1.01-.51-1.51-.76.51-1.92,1.02-3.84,1.53-5.76.93-1.03,1.15-2.34,1.45-3.63.97-1.92,1.94-3.84,2.91-5.76.92.76,1.99,1.31,2.86,2.15-.68,1.45-1.37,2.91-2.05,4.36.3,2.6-1.61,4.37-2.45,6.55-.83,1.03-1.31,2.4-2.73,2.86Z"/>
      <path class="cls-175" d="M121.64,103.37c2.91-.4,5.96.83,8.76-.77.46.74.92,1.49,1.37,2.23,0,.48.02.96.02,1.43-2.89.39-5.92-.82-8.7.76-.3.21-.61.22-.93.03-.63-.64-.97-1.41-1.08-2.3-.01-.54.15-1.01.56-1.38Z"/>
      <path class="cls-15" d="M99.88,111.35c-1.92,0-3.85,0-5.77-.01-.25-.72-.51-1.44-.77-2.15-.22-.49-.45-.98-.67-1.48,1.7-1.3,3.52-1.13,5.39-.48.95.64,1.51,1.45,1.13,2.65.23.49.46.98.69,1.47Z"/>
      <path class="cls-190" d="M98.42,107.72c-1.92,0-3.83,0-5.75-.01-.5-1.2-.99-2.41-1.49-3.61,0-.24.01-.49.02-.73,1.33-1.2,2.87-.97,4.43-.68.73.22,1.29.69,1.72,1.3.6,1.02,1.25,2.03,1.29,3.28-.07.15-.15.3-.22.45Z"/>
      <path class="cls-88" d="M81.77,86.69c.21-.05.42-.09.64-.1,1.07,1.85,1.88,3.89,3.71,5.2.16.16.21.33.15.49-.06.16-.11.24-.16.24-1.28.66-2.24,1.65-2.93,2.9-.45-.5-.9-1-1.35-1.51-.86-.62-1.11-1.6-1.52-2.49-.33-.78-.66-1.56-.53-2.43.1-.33.28-.61.53-.84.48-.49.97-.97,1.45-1.46Z"/>
      <path class="cls-154" d="M89.76,99.74c-.72-1.45-1.44-2.9-2.17-4.35,1.11-1.07,2.47-.94,3.84-.81.38.07.74.2,1.09.38,1.1.83,1.76,1.99,2.34,3.21.23.78.45,1.56-.47,2.08-1.63.59-3.2.67-4.63-.51Z"/>
      <path class="cls-218" d="M91.93,95.39c-1.45,0-2.89,0-4.34,0-.49-.96-.99-1.91-1.48-2.87,0-.24,0-.49,0-.73.95-.49,1.69-1.2,2.18-2.16.49.47.97.94,1.46,1.41.78.6,1.78.97,2.18,1.99.35.78.71,1.57,0,2.35Z"/>
      <path class="cls-179" d="M89.76,99.74c1.68,0,3.36,0,5.05.01.48.06.84.32,1.13.7.41.65.74,1.34.75,2.13-.05.31-.19.57-.42.78-1.69,0-3.37,0-5.06,0-.49-.96-.98-1.93-1.47-2.89,0-.24.01-.49.02-.73Z"/>
      <path class="cls-196" d="M190.55,98.3c-2.69-1.83-6.04.32-8.73-1.46.25-1.2.51-2.4.76-3.6.48-.73.96-1.45,1.45-2.18.48-.48.96-.97,1.45-1.45,2.74,1.45,6-.16,8.71,1.46.17,3.11-.58,5.75-3.63,7.24Z"/>
      <path class="cls-223" d="M39,101.2c.72-1.61,1.64-3.09,2.88-4.35,1.12-.78,2.42-1.03,3.73-1.29,7.45-1.44,14.94-2.73,22.43-3.97,1.71-.28,3.58-1.02,5.13.59.35.6.38,1.19-.1,1.74-.25.44-.5.88-.76,1.31-.25.24-.49.48-.74.72-.54,1.12-1.17,2.12-2.65,2.02-8.14.52-16.06,2.52-24.09,3.76-1.98.31-4.01,1.03-5.82-.53Z"/>
      <path class="cls-39" d="M73.05,93.92c0-.47.01-.94.02-1.41.19-2.13,1.08-3.87,2.9-5.07,1.97-2.86,3.18-1.2,4.35.72,0,.25-.01.51-.02.76-.71.82-1.67,1.31-2.52,1.95-1.27,1.13-2.45,2.38-4.07,3.04h-.32s-.32,0-.32,0Z"/>
      <path class="cls-111" d="M73.7,93.91c1.05-1.39,2.19-2.7,3.74-3.57,1.39-.86,2.42.03,3.49.73.53.88.94,1.8.9,2.86-2.71,0-5.42-.01-8.13-.02Z"/>
      <path class="cls-205" d="M171.09,129.45c.44-.24.88-.49,1.32-.73,6.96-.83,13.94-.35,20.9-.22.98.02,2.28.12,2.32,1.68-.13,1.14-.52,2.16-1.45,2.9-1.05-1.18-2.46-.7-3.72-.71-6.81-.07-13.63-.08-20.45-.11.08-.45.16-.9.23-1.35.28-.49.56-.98.84-1.47Z"/>
      <path class="cls-151" d="M219.58,96.85c-.25.24-.5.49-.75.73-2.01,1.43-4.13,1.27-6.29.4-1.34-1.69-.51-2.76,1.04-3.63,2.04.12,4.21-.46,6.01,1.06,0,.48,0,.96-.01,1.44Z"/>
      <path class="cls-124" d="M219.6,95.41c-1.95-.35-4.1.78-5.88-.81-.41-.78-.36-1.33.69-1.38,1.97,0,3.94.01,5.91.02-.07.78.09,1.64-.72,2.17Z"/>
      <path class="cls-188" d="M126.97,94.59c-3,.03-6,.07-9,.1-.29.22-.59.22-.89.03-.53-.66-1.03-1.33-.51-2.23,2.86-1.54,5.97-.29,8.92-.78.42.5.83,1.01,1.25,1.51.07.46.15.91.22,1.37Z"/>
      <path class="cls-152" d="M216.56,104.8c-.43.49-.86.99-1.29,1.48-2.29,1.49-4.67,1.3-7.08.38-1.39-1.72-.38-2.82.99-3.83,2.51-.17,5.13-1.73,7.47.53-.03.48-.06.96-.09,1.44Z"/>
      <path class="cls-256" d="M212.18,97.55c2.22,0,4.44.01,6.65.02-.23.96-.45,1.93-.68,2.89-.25.26-.49.51-.74.77-2.19.33-4.37.55-6.47-.46-.94-1.59-.56-2.68,1.24-3.22Z"/>
      <path class="cls-148" d="M210.76,100.46c2.21.36,4.58-.74,6.65.77-.05.78.05,1.62-.77,2.13-2.44,0-4.88,0-7.32,0-.64-1.52-.28-2.54,1.43-2.9Z"/>
      <path class="cls-157" d="M69.36,97.39c.73-.48,1.47-.96,2.2-1.44-.23,1.26-.46,2.53-.68,3.8-.48.73-.96,1.45-1.44,2.18-1.11.83-2.16.92-3.11-.24-.13-2.24,1.01-3.58,3.04-4.3Z"/>
      <path class="cls-261" d="M26.61,123.65c-1.53.06-3.09.14-2.86-2.15.04-.48.07-.97.11-1.45,1.09-1.27,1.74-2.75,2.17-4.35,1.11-1.59,2.25-3.17,2.8-5.07.47-.49.95-.98,1.42-1.48,1.21-1,2.42-.13,3.63,0,1.01,2.42-.47,3.79-2.15,5.08-1.19,2.17-2.38,4.35-3.57,6.52-.52.96-1.04,1.93-1.56,2.89Z"/>
      <path class="cls-73" d="M47.68,143.22c-1.65-1.41-3.62-.44-5.42-.72-1.34-.21-2.85.51-4.01-.73.02-1.02.51-1.75,1.4-2.22,3.22-.24,6.48-1.07,9.52.79,0,.24-.02.48-.04.71-.48.73-.97,1.45-1.45,2.18Z"/>
      <path class="cls-91" d="M207.9,106.26c2.46,0,4.92.02,7.37.03-.02.48-.05.95-.07,1.43-.25.24-.5.49-.75.73-2.53,1.35-5.03,1.66-7.46-.21-.22-.9-.46-1.8.91-1.97Z"/>
      <path class="cls-165" d="M49.17,140.33c-3.16-.45-6.47.92-9.52-.79.03-.46.06-.92.09-1.39.07-1.23.73-1.83,1.96-1.84,2,.07,4.01-.04,5.99.16,1.14.12,2.76-.27,2.91,1.69,0,.24,0,.48,0,.72-.47.48-.94.97-1.41,1.45Z"/>
      <path class="cls-235" d="M50.59,138.16c-1.65-1.43-3.62-.45-5.43-.73-1.34-.21-2.86.51-4.01-.73-.8-1.75.32-2.26,1.69-2.61,3.07.55,6.38-.82,9.26,1.19-.27.94-.54,1.89-.82,2.83-.23.02-.46.03-.7.05Z"/>
      <path class="cls-13" d="M52.1,135.28c-3.16-.44-6.47.81-9.53-.82-.7-.92-.61-1.71.36-2.38.38-.12.74-.06,1.07.16,3.05,1.74,6.39.4,9.55.86-.26.72-.52,1.44-.79,2.17-.22,0-.44,0-.66.01Z"/>
      <path class="cls-89" d="M66.49,101.09c.73,1.17,1.91.73,2.94.84,0,.24,0,.48.01.72-.24.73-.48,1.45-.72,2.18-.24.25-.48.49-.72.74-1.54-.34-3.23-.37-4.01-2.14.17-1.48.86-2.41,2.49-2.34Z"/>
      <path class="cls-225" d="M212.99,112.78c-.21.02-.42.05-.63.07-2.46.31-4.93.64-7.28-.53-.86-1.78-.6-3.19,1.33-4.06,2.12,2,5.17-.12,7.35,1.63-.25.96-.51,1.93-.76,2.89Z"/>
      <path class="cls-75" d="M213.75,109.89c-2.36-.78-5.36,1.64-7.25-1.45-.16-.16-.23-.34-.21-.52.03-.19.06-.29.11-.29.28-.19.55-.17.81.06,2.28,1.56,4.84.41,7.24.76,0,.6-.15,1.12-.7,1.45Z"/>
      <path class="cls-121" d="M65.86,112.06c-2.66-.37-5.46.81-8.01-.7.02-.24.05-.47.09-.71,1.03-2.18,1.7-4.67,4.58-5.25,1.41,1.16,4.14-.34,4.79,2.36-.12,1.56-.43,3.05-1.44,4.3Z"/>
      <path class="cls-243" d="M67.3,107.75c-1.19-1.94-4.41.77-5.13-2.24-.37-1.25.47-1.82,1.34-2.37.35-.09.64,0,.86.29.95,1.15,3.11.26,3.63,2.14-.01.72-.03,1.43-.04,2.15-.22.01-.45.03-.67.04Z"/>
      <path class="cls-189" d="M205.1,126.58c-1.87-1.14-4.63-.48-5.85-2.92.48-4.2,1.48-8.13,5.44-10.55,2.34.38,4.9-.6,7,1.15-.04.47-.09.93-.13,1.4-.89.76-1.29,1.77-1.45,2.9-.89.77-1.3,1.77-1.44,2.91-.55.32-.71.84-.74,1.42-.89.76-1.3,1.76-1.46,2.89-.45.26-.91.53-1.36.79Z"/>
      <path class="cls-132" d="M211.7,114.26c-2.45-.38-5.05.75-7.38-.76-.46-.83-.48-1.44.72-1.44,2.43.36,5.03-.82,7.32.79-.22.47-.44.94-.66,1.41Z"/>
      <path class="cls-159" d="M99.19,109.88c-.26-.72-.51-1.44-.77-2.17,0,0,.04,0,.04,0,.49-.6,1.17-.92,1.89-.94,7.34-.19,14.69-.6,22.03.21.24,0,.47.02.7.04.01.71.02,1.42.03,2.13-1.06,1.19-2.47.71-3.73.72-6.73.04-13.46.02-20.19.02Z"/>
      <path class="cls-185" d="M63.79,103.43c-.54.69-1.08,1.38-1.62,2.08-1.6,1.55-2.21,3.93-4.24,5.13-7.35-.09-14.34,2.34-21.56,3.2-1.55.19-3.08.33-4.63.39.62-1.73,1.96-3.16,2.15-5.08.49-.71.99-1.42,1.48-2.13,8.39-2.08,16.95-3.22,25.47-4.56,1.05-.17,2.18-.02,2.95.95Z"/>
      <path class="cls-233" d="M44,132.24l-.36.03h-.36c-5.83.64-11.56,1.89-17.35,2.81-1.51.24-3.09.74-4.41-.57,1.01-2.16,2.03-4.33,3.04-6.49,6.49-1.09,12.99-2.15,19.48-3.29,1.31-.23,2.58-.79,3.68.43-.69,2.65-3.21,4.34-3.72,7.08Z"/>
      <path class="cls-248" d="M111.48,140.32c-.25-.24-.49-.49-.74-.73-.01-.48-.03-.95-.04-1.43,5.38,0,10.77-.06,16.15,0,1.93.02,3.8-.19,5.64-.74.53.89.87,1.83.78,2.88-.42.45-.93.83-1.54.86-6.23.35-12.46.38-18.69-.02-.61-.04-1.09-.48-1.57-.84Z"/>
      <path class="cls-58" d="M137.64,150.45c.7,1.22,1.41,2.43,2.11,3.65-.6.67-1.4.96-2.25,1-5.52.26-11.05.27-16.57,0-.87-.04-1.6-.49-2.3-.97-.83-.48-1.29-1.2-1.36-2.16-.72-1.71.56-2.29,1.71-2.35,5.81-.32,11.64-.54,17.44.12.45.05.84.43,1.22.72Z"/>
      <path class="cls-79" d="M141.96,160.6c-3.75,2.59-7.29,5.67-12.35,5.09-2.77-1.29-4.79-3.43-6.65-5.77.89-1.01,2.11-1.11,3.31-1.15,4.09-.11,8.19-.15,12.28.02,1.32.06,3.04-.22,3.41,1.81Z"/>
      <path class="cls-267" d="M118.63,154.13c7.04-.01,14.08-.02,21.12-.03.48.73.95,1.46,1.43,2.19-.55,1.32-1.73,1.67-2.95,1.68-5.76.05-11.53.56-17.27-.3-1.03-1.01-2.01-2.05-2.32-3.53Z"/>
      <path class="cls-68" d="M120.96,157.66c2.47-1.44,5.16-.4,7.73-.66,4.15-.41,8.4.75,12.49-.72.77,1.06,1.76,2.02,1.62,3.5-.28.27-.56.55-.84.83-2.29-1.48-4.83-.59-7.25-.68-3.91-.15-7.83-.02-11.75,0-.88-.57-1.61-1.26-2-2.26Z"/>
      <path class="cls-273" d="M137.64,150.45c-5.75,0-11.51,0-17.26.03-1.22,0-2.79-.5-3.11,1.48-.47-.5-.94-1-1.42-1.5-.03-.45-.06-.9-.09-1.35-.05-1.32,1-1.66,1.9-1.71,5.85-.38,11.71-.58,17.56.11.59.07,1.09.47,1.6.79.27.72.54,1.43.81,2.15Z"/>
      <path class="cls-84" d="M75.96,87.43c-1.01,1.67-1.44,3.66-2.9,5.07-4.93-.77-9.54,1.17-14.31,1.75-5.66.68-11.14,2.46-16.88,2.6,1.01-1.83,1.85-3.78,3.62-5.07,6.81-.48,13.42-2.21,20.15-3.22,3.43-.51,6.81-1.38,10.32-1.13Z"/>
      <path class="cls-173" d="M207.21,107.68c-.23.02-.47.03-.7.04-5.47-.68-10.96-.28-16.45-.37-1.3-.02-2.63.31-3.86-.37,1.45-2.9,2.9-5.8,4.35-8.7,1.91-2.06,2.52-4.77,3.63-7.24,1.45-1.69,2.35-3.66,2.9-5.8.48-.73.97-1.45,1.45-2.18,6.72,1.52,13.54.36,20.3.72-.23.53-.46,1.06-.69,1.59-1.02,1.25-1.98,2.54-2.21,4.21-.89,1.04-1.15,2.35-1.52,3.61-.23.46-.46.92-.69,1.38-.88.79-1.26,1.85-1.53,2.96-.84.79-1.22,1.8-1.42,2.9-.86.78-1.24,1.79-1.43,2.9-.88.77-1.26,1.78-1.43,2.9-.55.32-.67.85-.69,1.42Z"/>
      <path class="cls-95" d="M135.46,144.66c-.01.24-.03.48-.04.73-4.88.85-9.8.17-14.7.32-2.19.06-4.31.19-6.31,1.13-1.1-.93-1.46-2.18-1.51-3.55.02-1.53,1.26-1.71,2.28-1.74,5.64-.2,11.29-.23,16.94.02.73.03,1.35.47,1.93.92.47.73.95,1.46,1.42,2.19Z"/>
      <path class="cls-236" d="M134.04,142.47c-5.82,0-11.65,0-17.47.04-1.25.01-2.65-.45-3.67.77-.86-.8-1.29-1.81-1.41-2.96,7.26,0,14.53,0,21.79-.01.81.52.69,1.37.76,2.15Z"/>
      <path class="cls-164" d="M186.2,106.99c6.4-1.53,12.88-.45,19.33-.6.64-.02.88.72.99,1.33,0,.24,0,.48,0,.71-.98,1.01-1.13,2.35-1.46,3.62-.57.31-.7.85-.72,1.44-2.47,3-3.31,6.8-5.07,10.16-.48.73-.97,1.45-1.45,2.18-5.68-.83-11.4-.16-17.1-.4-1.74-.07-3.67.23-4.68-1.79,3.39-5.55,6.78-11.1,10.17-16.65Z"/>
      <path class="cls-108" d="M195.63,130.18c-1.3-1.3-2.93-.6-4.42-.71-6.26-.47-12.59.88-18.8-.75.49-.72.98-1.44,1.47-2.16,1.25-.79,2.6-1.1,4.08-1.09,5.13.03,10.26-.05,15.39.05,1.41.03,3.26-.44,3.72,1.76-.12,1.15-.52,2.16-1.45,2.9Z"/>
      <path class="cls-2" d="M197.08,127.28c-1.06-1.18-2.47-.7-3.74-.7-6.49-.05-12.97-.02-19.46-.02.72-.97,1.43-1.94,2.15-2.91,4.33,1.54,8.81.42,13.22.71,2.04.14,4.09.03,6.13.02,1.1,0,2.24-.07,2.43,1.45-.02.59-.15,1.13-.73,1.45Z"/>
      <path class="cls-206" d="M114.4,146.83c.05-.97,0-2.14,1.36-2.09,6.55.24,13.15-.9,19.65.65.47.97.94,1.94,1.41,2.91-5.78,0-11.57-.03-17.35.01-1.27,0-2.69-.46-3.71.8-.84-.53-1.34-1.26-1.36-2.28Z"/>
      <path class="cls-234" d="M91.2,93.22c-.48-.73-.96-1.45-1.44-2.18,8.47,0,16.93,0,25.4,0,.56.3.7.83.74,1.41-.05,1.51-1.29,1.69-2.29,1.74-6.7.33-13.4.34-20.1,0-.85-.04-1.57-.55-2.3-.97Z"/>
      <path class="cls-217" d="M91.2,93.22c6.99,0,13.97.02,20.96-.02,1.27,0,2.69.47,3.73-.75.23.02.46.03.69.04.24.73.48,1.46.72,2.19.75,2.41-1.26,2.37-2.49,2.41-6.38.21-12.78.17-19.16.04-1.26-.03-2.32-.62-3.01-1.73-.23,0-.47,0-.7-.01-.24-.72-.49-1.44-.73-2.17Z"/>
      <path class="cls-138" d="M92.63,95.4c2.62,1.33,5.44.62,8.17.69,4.45.12,8.9.07,13.34,0,1.2-.02,2.8.59,3.16-1.42.23,0,.45.01.68.01.27,1.2.54,2.39.82,3.59-.9.99-2.1,1.07-3.31,1.08-5.88.03-11.76,0-17.64.02-1.37,0-2.6-.36-3.74-1.09-.43-1-1.55-1.64-1.47-2.89Z"/>
      <path class="cls-33" d="M94.1,98.3c8.23,0,16.46,0,24.69-.01.23,0,.46,0,.68.02,0,.47.02.95.02,1.42-.05,1.53-1.29,1.68-2.3,1.71-6.59.18-13.17.24-19.76-.02-.73-.03-1.34-.48-1.92-.93-.24-.24-.48-.49-.72-.73-.23-.49-.47-.97-.7-1.46Z"/>
      <path class="cls-221" d="M96.26,103.37c0-.24,0-.49,0-.73,1.37-1.37,3.13-1.01,4.79-1.07,6.38-.23,12.78.45,19.14-.39.23.01.47.02.7.04.04.78-.09,1.62.73,2.14,0,.48,0,.96.01,1.45-.43.22.2.15-.26.23-8.14,1.43-16.27,1.77-24.38-.23-.25-.48-.5-.96-.74-1.44Z"/>
      <path class="cls-238" d="M120.2,101.19c-.34,1.99-1.93,1.43-3.13,1.43-6.93.04-13.87.02-20.81.02-.25-.72-.5-1.44-.75-2.16,6.74,0,13.49.02,20.23-.03,1.27,0,2.68.48,3.74-.72.56.33.69.87.71,1.46Z"/>
      <path class="cls-48" d="M21.51,134.5c5.51-.2,10.8-1.82,16.22-2.6,1.88-.27,3.76-.79,5.54.35-.71.58-.65,1.41-.71,2.2-.89.48-1.44,1.18-1.42,2.23-.47.49-.94.97-1.42,1.46-5.86-.16-11.4,1.85-17.15,2.51-1.53.17-3.05.32-4.58.39.46-1.21.92-2.42,1.37-3.63.67-1,.89-2.34,2.14-2.92Z"/>
      <path class="cls-141" d="M63.79,103.43c-7.45-.12-14.52,2.38-21.84,3.18-2.19.24-4.33,1.08-6.58.42,1.21-1.95,2.41-3.89,3.62-5.84,8.62-.53,17-2.62,25.48-4.04,1.66-.28,3.29-.73,4.88.23-.95,1.23-1.91,2.47-2.86,3.7-.9.6-1.65,1.34-2.12,2.34-.2,0-.39,0-.59,0Z"/>
      <path class="cls-40" d="M97.01,104.81c8.21,0,16.43,0,24.64,0,.24.72.49,1.45.73,2.17-1.06,1.18-2.47.7-3.74.71-6.73.05-13.46.02-20.19.02-.48-.97-.97-1.94-1.45-2.9Z"/>
      <path class="cls-200" d="M80.93,91.06c-1.16-.24-2.33-.48-3.49-.73.75-.89,1.64-1.48,2.86-1.43.21.72.42,1.43.63,2.15Z"/>
    </g>
  </g>
</svg>