<svg width="402" height="401" viewBox="0 0 402 401" fill="none" xmlns="http://www.w3.org/2000/svg">
<path d="M317.891 0.315186H84.3426C38.2836 0.315186 0.932617 37.6662 0.932617 83.7252V317.273C0.932617 363.332 38.2836 400.683 84.3426 400.683H317.891C363.966 400.683 401.301 363.332 401.301 317.273V83.7252C401.301 37.6662 363.966 0.315186 317.891 0.315186ZM134.389 317.273H84.3426V133.771H134.389V317.273ZM109.366 112.618C93.2508 112.618 80.1721 99.4397 80.1721 83.1914C80.1721 66.9431 93.2508 53.7643 109.366 53.7643C125.48 53.7643 138.559 66.9431 138.559 83.1914C138.559 99.4397 125.497 112.618 109.366 112.618ZM334.573 317.273H284.527V223.787C284.527 167.602 217.799 171.856 217.799 223.787V317.273H167.753V133.771H217.799V163.215C241.087 120.075 334.573 116.889 334.573 204.52V317.273Z" fill="white"/>
</svg>
