<?xml version="1.0" encoding="UTF-8"?>
<svg id="Layer_2" data-name="Layer 2" xmlns="http://www.w3.org/2000/svg" viewBox="0 0 509.4 287">
  <defs>
    <style>
      .cls-1 {
        fill: #60bf7f;
        stroke-width: 0px;
      }
    </style>
  </defs>
  <g id="Layer_1-2" data-name="Layer 1">
    <path class="cls-1" d="M371.93,214.42c-11.7,0-21.21-9.52-21.21-21.22s9.51-21.21,21.21-21.21,21.21,9.51,21.21,21.21-9.51,21.22-21.21,21.22M137.47,214.42c-11.7,0-21.21-9.52-21.21-21.22s9.51-21.21,21.21-21.21,21.21,9.51,21.21,21.21-9.51,21.22-21.21,21.22M379.54,86.65l42.39-73.42c2.43-4.22.99-9.61-3.23-12.05-4.22-2.43-9.61-.98-12.05,3.23l-42.92,74.35c-32.83-14.98-69.69-23.32-109.03-23.32s-76.2,8.35-109.03,23.32L102.75,4.41c-2.44-4.21-7.83-5.66-12.05-3.23-4.22,2.44-5.66,7.83-3.23,12.05l42.39,73.42C57.07,126.24,7.28,199.94,0,287h509.4c-7.29-87.07-57.08-160.76-129.87-200.36"/>
  </g>
</svg>