<svg width="694" height="658" viewBox="0 0 694 658" fill="none" xmlns="http://www.w3.org/2000/svg">
<path d="M132.966 17.7915L136.087 12.6391C138.257 9.24947 139.886 7.8936 141.107 8.57153C142.192 9.24947 192.801 52.6373 253.721 105.245C314.776 157.853 365.822 201.322 366.5 202C367.314 202.814 329.837 235.68 166.886 376.148L164.037 372.487C162.408 370.589 157.253 363.132 152.504 356.081C147.755 349.031 141.242 338.048 137.986 331.676C132.695 321.371 132.016 319.473 132.695 313.371C133.102 309.71 134.594 305.101 136.087 303.202C137.443 301.304 141.921 297.643 145.991 294.931C150.062 292.22 161.187 285.034 170.956 279.068C180.725 273.102 189.816 266.865 191.308 265.238C193.208 263.069 194.022 260.357 193.886 255.882C193.886 250.459 189.951 242.188 132.288 131.007L132.966 17.7915Z" fill="#FFD26F"/>
<path d="M461 201C462.492 199.509 514.361 155.277 575.009 102.94C635.522 50.6035 685.186 6.86441 686 7C686.814 7.13559 689.251 10.8765 694 19.1473L693.865 207.613C693.865 390.792 693.864 396.215 691.287 400.825C689.658 403.808 688.709 404.621 688.573 403.266C688.573 401.774 642.849 361.505 573.924 302.253C459.546 203.681 457.5 203 461 201Z" fill="#FFD26F"/>
<path d="M33.2414 141.176C38.1259 137.515 47.2164 131.278 53.4577 127.346C59.8346 123.414 65.2618 120.431 65.6688 120.973C66.0759 121.38 86.1564 159.345 110.036 205.309C153.182 287.881 157.5 288.5 153 290.5C151.372 291.585 145.485 295.059 142.5 297.5C140 300 133.78 303.474 129.845 305.779C126.046 308.084 121.433 312.016 119.669 314.321C117.363 317.71 116.684 320.693 116.684 326.93C116.684 333.981 117.498 336.557 122.654 345.912C125.91 351.878 132.287 362.319 136.765 368.962C141.242 375.606 150.197 387.809 156.574 396.08C162.951 404.351 172.991 416.553 178.825 423.197C184.795 429.841 194.564 440.552 200.534 446.789C206.64 453.026 218.037 464.009 225.906 471.059C233.776 478.11 248.022 490.313 257.791 498.041C267.56 505.77 281.263 515.939 288.319 520.684C295.374 525.43 305.821 531.802 311.384 534.921C318.439 538.717 323.867 540.751 329.022 541.294C335.399 541.971 337.163 541.7 341.098 538.853C343.676 537.226 347.882 533.158 350.324 530.04C352.766 526.786 354.802 523.667 354.802 522.854C354.802 522.04 353.716 521.905 352.359 522.311C351.138 522.854 351.952 521.769 354.395 520.006C356.701 518.244 360.5 513.498 367.013 502.516L382.209 510.515C390.621 514.99 428.883 534.785 467.008 554.581C505.27 574.377 537.155 590.376 537.969 589.969C538.783 589.562 537.697 591.868 535.662 595.122C533.763 598.24 528.743 605.969 524.536 612.341C520.33 618.714 513.139 627.663 508.391 632.272C502.692 638.103 496.858 642.306 490.074 645.424C484.782 648.001 475.692 651.39 470.129 652.746C464.566 654.238 452.626 656.136 443.672 657.085C431.46 658.305 423.32 658.305 411.109 657.085C402.154 656.271 389.264 654.509 382.616 653.153C375.968 651.661 362.4 648.001 352.766 644.882C342.997 641.764 327.801 636.204 318.847 632.679C309.892 629.154 296.188 623.188 288.319 619.527C280.449 615.866 267.017 608.951 258.469 604.206C249.921 599.596 234.318 590.105 223.871 583.19C213.424 576.275 198.499 565.699 190.63 559.462C182.76 553.361 168.242 540.887 158.338 531.938C148.298 522.854 134.865 509.566 128.353 502.516C121.84 495.465 114.378 487.194 111.8 484.211C109.222 481.228 102.302 472.686 96.468 465.229C90.4981 457.772 80.1865 443.128 73.2669 432.688C66.4829 422.248 58.0708 408.825 54.6788 402.859C51.2868 396.893 46.131 387.131 43.146 381.165C40.1611 375.199 34.3269 362.725 30.1208 353.37C26.0504 344.014 19.2665 326.659 15.1961 314.727C11.1257 302.796 6.10557 285.712 3.9347 276.763C0.407038 261.713 0.135679 258.459 0 231.341C0 204.902 0.271359 201.105 3.25631 189.987C5.02014 183.344 8.14076 174.124 10.176 169.649C12.2111 165.175 16.2815 158.531 19.1308 154.735C22.1157 151.074 28.4927 144.972 33.2414 141.176Z" fill="#95C7F8"/>
<path d="M164.5 376C164.771 375.322 211.321 335.32 266 288L366.5 202L370.948 206.122C372.983 207.749 383.159 216.562 413.144 242.188L435.802 222.664C454.933 206.258 457.5 204 460 202C462.5 201 513.547 250.188 575.552 303.609C643.934 362.454 688.573 401.774 688.573 403.13C688.709 404.486 687.623 406.52 686.266 407.74C684.91 408.96 681.789 410.994 679.483 412.214C675.412 414.248 653.703 414.384 198.092 414.384L192.529 407.876C189.544 404.35 182.625 396.215 177.333 389.707C171.906 383.063 164.364 376.814 164.5 376Z" fill="#F9C969"/>
<path d="M144.634 3.96168C146.805 2.7414 150.333 1.38553 152.368 0.707592C154.403 0.165244 272.987 -0.241518 675.683 0.165244L680.839 3.28375C683.553 4.91079 686 6.59324 686 7C686 7.40676 634.708 51.6884 572.296 105.516C509.748 159.345 448.42 212.088 413.144 242.188L385.058 218.189C369.455 204.902 310.163 153.785 253.042 104.567C195.921 55.3492 147.212 13.5884 144.906 11.6901C142.463 9.79193 140.564 7.89371 140.564 7.21577C140.428 6.67342 142.328 5.31755 144.634 3.96168Z" fill="#FFE187"/>
<path d="M77.3373 113.109C83.3072 109.72 89.9555 106.33 92.262 105.517C94.5686 104.703 98.5033 104.025 101.081 104.025C103.659 104.025 108.272 105.11 111.257 106.466C114.242 107.822 118.855 111.347 121.569 114.194C124.689 117.584 138.8 143.21 160.102 184.564C189.951 241.917 193.886 250.459 193.886 256.018C194.022 261.171 193.343 263.069 190.63 265.781C188.73 267.543 179.911 273.645 170.956 279.339C162.001 284.898 154.543 290.042 154 289.5C153.463 288.964 133.691 250.794 110.165 205.376L109.358 203.817C85.3424 157.853 65.9402 120.024 66.0759 119.753C66.3473 119.482 71.3674 116.499 77.3373 113.109Z" fill="#75B5F8"/>
<path d="M117.5 316.5C117.552 313.739 123.337 309.441 127 307C130.663 304.559 140 299.229 140 299.5C140.136 299.907 135.043 305.466 134.5 307.5C133.822 309.398 133 313.424 133 316C133 318.983 134.458 325.032 138.122 332.083C141.242 338.184 147.212 348.082 151.147 354.048C155.082 360.014 161.866 369.505 166.072 375.064C170.142 380.623 178.418 391.063 184.388 398.114C190.358 405.164 199.856 415.875 205.419 421.841C211.117 427.807 219.665 436.485 224.549 441.23C229.434 445.976 240.967 456.416 250.193 464.28C259.419 472.28 272.851 483.262 280.042 488.686C287.233 494.245 297.952 501.973 303.922 505.905C309.892 509.837 319.118 515.261 324.274 517.973C329.43 520.684 336.214 523.26 339.198 523.803C342.183 524.21 346.932 523.803 349.646 522.989C353.038 522.04 354.802 522.04 354.802 522.854C354.802 523.667 352.766 526.786 350.324 530.04C347.882 533.158 343.676 537.226 341.098 538.853C337.163 541.7 335.399 541.971 329.022 541.294C323.867 540.751 318.44 538.717 311.384 534.921C305.821 531.802 295.374 525.43 288.319 520.684C281.263 515.939 267.56 505.77 257.791 498.041C248.022 490.313 233.776 478.11 225.906 471.059C218.037 464.009 206.64 453.026 200.534 446.789C194.564 440.552 184.795 429.841 178.825 423.197C172.991 416.553 162.951 404.351 156.574 396.08C150.197 387.809 141.242 375.606 136.765 368.962C132.287 362.319 126.046 352.15 122.926 346.59C118.991 339.404 117.091 334.252 116.549 328.964C116.006 323.134 115.465 320.161 117.5 316.5Z" fill="#75B5F8"/>
<path d="M379.767 482.855C389.128 467.941 391.571 464.958 395.505 463.602C398.083 462.789 402.154 462.382 404.325 462.789C406.495 463.195 416.671 467.67 426.712 472.686C436.752 477.839 465.787 492.753 491.159 505.905C516.531 519.057 539.326 531.26 541.632 533.158C544.074 534.921 547.738 539.26 549.773 542.921C552.486 547.531 553.436 551.056 553.436 556.073C553.436 561.496 552.079 565.292 546.924 575.055C543.396 581.834 539.733 588.071 538.918 589.02C537.562 590.376 519.923 581.699 452.762 546.988C406.36 522.854 368.37 502.651 368.37 501.838C368.505 501.024 373.525 492.482 379.767 482.855Z" fill="#75B5F8"/>
</svg>
