<?xml version="1.0" encoding="UTF-8"?>
<svg id="Layer_2" data-name="Layer 2" xmlns="http://www.w3.org/2000/svg" viewBox="0 0 251 287">
  <defs>
    <style>
      .cls-1 {
        fill: #669ad2;
      }

      .cls-1, .cls-2, .cls-3, .cls-4 {
        stroke-width: 0px;
      }

      .cls-2 {
        fill: #035a9c;
      }

      .cls-3 {
        fill: #184781;
      }

      .cls-4 {
        fill: #fff;
      }
    </style>
  </defs>
  <g id="Layer_1-2" data-name="Layer 1">
    <g>
      <path class="cls-2" d="M247.81,215.25c1.97-3.47,3.19-7.37,3.19-10.88v-121.74c0-3.51-1.22-7.41-3.19-10.88l-122.31,71.75,122.31,71.75Z"/>
      <path class="cls-3" d="M136.37,284.37l103.76-60.87c2.99-1.75,5.71-4.78,7.68-8.25l-122.31-71.75L3.19,215.25c1.97,3.47,4.69,6.5,7.68,8.25l103.76,60.87c5.98,3.51,15.76,3.51,21.74,0Z"/>
      <path class="cls-1" d="M247.81,71.75c-1.97-3.47-4.69-6.5-7.68-8.25L136.37,2.63c-5.98-3.51-15.76-3.51-21.74,0L10.87,63.5c-5.98,3.51-10.87,12.11-10.87,19.13v121.74c0,3.51,1.22,7.41,3.19,10.88l122.31-71.75,122.31-71.75Z"/>
      <path class="cls-4" d="M125.5,228.51c-46.13,0-83.67-38.14-83.67-85.01S79.37,58.49,125.5,58.49c29.77,0,57.53,16.28,72.45,42.48l-36.21,21.29c-7.47-13.11-21.36-21.26-36.25-21.26-23.07,0-41.83,19.07-41.83,42.51s18.77,42.51,41.83,42.51c14.89,0,28.78-8.15,36.25-21.27l36.21,21.29c-14.92,26.21-42.69,42.48-72.46,42.48Z"/>
      <path class="cls-4" d="M209.17,138.78h-9.3v-9.45h-9.29v9.45h-9.3v9.45h9.3v9.45h9.29v-9.45h9.3v-9.45Z"/>
      <path class="cls-4" d="M244.03,138.78h-9.3v-9.45h-9.29v9.45h-9.3v9.45h9.3v9.45h9.29v-9.45h9.3v-9.45Z"/>
    </g>
  </g>
</svg>