<?xml version="1.0" encoding="UTF-8"?>
<svg id="Layer_2" data-name="Layer 2" xmlns="http://www.w3.org/2000/svg" viewBox="0 0 605.88 200">
  <defs>
    <style>
      .cls-1 {
        fill: #010101;
        stroke-width: 0px;
      }
    </style>
  </defs>
  <g id="Layer_1-2" data-name="Layer 1">
    <path class="cls-1" d="M49.77,52.27h-5.68V19.58c0-2.58.16-5.74.48-9.48h-.14c-.54,2.2-1.03,3.77-1.46,4.72l-16.65,37.45h-2.79L6.91,15.09c-.48-1.09-.96-2.75-1.46-5h-.14c.18,1.95.27,5.13.27,9.55v32.63H.08V3.53h7.55l14.95,33.99c1.16,2.61,1.9,4.55,2.24,5.85h.2c.97-2.67,1.76-4.67,2.34-5.98L42.63,3.53h7.14v48.74ZM64.69,8.63c-1,0-1.85-.34-2.55-1.02-.7-.68-1.05-1.54-1.05-2.58s.35-1.91,1.05-2.6c.7-.69,1.55-1.04,2.55-1.04s1.89.35,2.6,1.04c.71.69,1.07,1.56,1.07,2.6s-.36,1.85-1.07,2.55c-.71.7-1.58,1.05-2.6,1.05ZM67.41,52.27h-5.57V17.47h5.57v34.8ZM102.42,50.68c-2.67,1.61-5.85,2.41-9.52,2.41-4.96,0-8.97-1.61-12.01-4.84-3.05-3.23-4.57-7.41-4.57-12.56,0-5.73,1.64-10.34,4.93-13.82s7.67-5.22,13.15-5.22c3.06,0,5.75.57,8.09,1.7v5.71c-2.58-1.81-5.35-2.72-8.29-2.72-3.56,0-6.47,1.27-8.75,3.82-2.28,2.55-3.42,5.9-3.42,10.04s1.07,7.3,3.21,9.65c2.14,2.36,5.01,3.53,8.62,3.53,3.04,0,5.89-1.01,8.56-3.03v5.3h0ZM128.99,23.11c-.97-.75-2.38-1.12-4.21-1.12-2.38,0-4.37,1.12-5.97,3.37-1.6,2.24-2.4,5.3-2.4,9.18v17.74h-5.57V17.47h5.57v7.17h.14c.79-2.45,2.01-4.36,3.64-5.73,1.63-1.37,3.45-2.06,5.47-2.06,1.45,0,2.56.16,3.33.48v5.78ZM148.67,53.09c-5.14,0-9.25-1.63-12.32-4.88-3.07-3.25-4.61-7.56-4.61-12.93,0-5.85,1.6-10.41,4.79-13.7s7.51-4.93,12.95-4.93,9.24,1.6,12.15,4.79c2.91,3.2,4.37,7.63,4.37,13.29s-1.57,10-4.71,13.34-7.35,5.01-12.63,5.01ZM149.08,21.34c-3.58,0-6.41,1.22-8.5,3.65-2.09,2.44-3.13,5.79-3.13,10.08s1.05,7.38,3.16,9.75,4.93,3.57,8.46,3.57,6.37-1.17,8.31-3.5c1.94-2.33,2.91-5.65,2.91-9.96s-.97-7.7-2.91-10.06c-1.94-2.36-4.71-3.54-8.31-3.54h0ZM172.8,51.02v-5.98c3.04,2.24,6.38,3.37,10.03,3.37,4.89,0,7.34-1.63,7.34-4.89,0-.93-.21-1.72-.63-2.36-.42-.65-.99-1.22-1.7-1.72s-1.55-.95-2.51-1.34c-1.03-.42-2.07-.84-3.11-1.24-1.54-.61-2.9-1.23-4.06-1.85s-2.14-1.33-2.92-2.11c-.77-.76-1.37-1.67-1.77-2.67-.4-1-.59-2.16-.59-3.5,0-1.63.37-3.08,1.12-4.33.75-1.26,1.74-2.31,2.99-3.16,1.25-.85,2.67-1.49,4.27-1.92,1.61-.43,3.28-.65,4.95-.65,3.01,0,5.71.52,8.09,1.56v5.64c-2.56-1.68-5.51-2.51-8.84-2.51-1.04,0-1.98.12-2.82.36-.84.24-1.56.57-2.16,1s-1.07.95-1.39,1.55c-.33.61-.5,1.29-.49,1.99,0,.91.16,1.67.49,2.28.33.61.81,1.16,1.44,1.63.63.48,1.4.91,2.31,1.29.91.39,1.94.8,3.09,1.26,1.54.59,2.92,1.2,4.15,1.82s2.27,1.33,3.13,2.11c.84.75,1.52,1.67,1.99,2.7.46,1.02.7,2.23.7,3.64,0,1.72-.38,3.22-1.14,4.49-.76,1.27-1.77,2.32-3.04,3.16-1.27.84-2.73,1.46-4.38,1.87s-3.39.61-5.2.61c-3.58,0-6.69-.69-9.31-2.07h0ZM218.99,53.09c-5.14,0-9.25-1.63-12.32-4.88-3.07-3.25-4.61-7.56-4.61-12.93,0-5.85,1.6-10.41,4.79-13.7,3.2-3.28,7.51-4.93,12.95-4.93s9.24,1.6,12.15,4.79c2.91,3.2,4.37,7.63,4.37,13.29s-1.57,10-4.71,13.34c-3.14,3.34-7.35,5.01-12.63,5.01ZM219.4,21.34c-3.58,0-6.41,1.22-8.5,3.65-2.09,2.44-3.13,5.79-3.13,10.08s1.05,7.38,3.16,9.75,4.93,3.57,8.46,3.57,6.37-1.17,8.31-3.5c1.94-2.33,2.91-5.65,2.91-9.96s-.97-7.7-2.91-10.06c-1.94-2.36-4.71-3.54-8.31-3.54ZM261.17,5.64c-1.09-.61-2.32-.92-3.7-.92-3.9,0-5.85,2.46-5.85,7.38v5.37h8.16v4.76h-8.16v30.05h-5.54v-30.05h-5.95v-4.76h5.95v-5.64c0-3.65,1.05-6.53,3.16-8.65,2.11-2.12,4.73-3.18,7.88-3.18,1.7,0,3.05.2,4.04.61v5.03h0ZM283.16,51.93c-1.31.73-3.05,1.09-5.2,1.09-6.1,0-9.14-3.4-9.14-10.2v-20.6h-5.98v-4.76h5.98v-8.5l5.57-1.8v10.3h8.77v4.76h-8.77v19.61c0,2.33.4,4,1.19,5,.79,1,2.11,1.5,3.94,1.5,1.4,0,2.62-.39,3.64-1.16v4.76ZM0,197.77V64.66h36.76c46.91,0,70.36,21.63,70.36,64.89,0,20.55-6.51,37.05-19.54,49.52-13.03,12.47-30.46,18.7-52.31,18.7H0ZM15.59,78.77v104.89h19.86c17.45,0,31.03-4.67,40.75-14.02,9.71-9.34,14.57-22.59,14.57-39.73,0-34.1-18.13-51.15-54.4-51.15,0,0-20.79,0-20.79,0ZM139.05,78.58c-2.72,0-5.04-.93-6.96-2.78-1.92-1.86-2.88-4.21-2.88-7.05s.96-5.21,2.88-7.1c1.92-1.89,4.24-2.83,6.96-2.83s5.15.94,7.1,2.83c1.95,1.89,2.92,4.26,2.92,7.1s-.97,5.04-2.92,6.96c-1.95,1.92-4.32,2.88-7.1,2.88ZM146.48,197.77h-15.22v-95.05h15.22v95.05ZM226.86,118.13c-2.66-2.04-6.5-3.06-11.51-3.06-6.5,0-11.93,3.06-16.29,9.19-4.36,6.13-6.54,14.48-6.54,25.06v48.45h-15.22v-95.05h15.22v19.59h.37c2.17-6.68,5.48-11.9,9.93-15.64,4.46-3.74,9.44-5.62,14.95-5.62,3.96,0,6.99.43,9.1,1.3v15.78ZM317.28,154.05h-67.11c.25,10.58,3.09,18.75,8.54,24.51,5.44,5.75,12.93,8.63,22.46,8.63,10.71,0,20.54-3.53,29.52-10.58v14.3c-8.35,6.07-19.4,9.1-33.14,9.1s-23.98-4.32-31.65-12.95c-7.67-8.63-11.51-20.78-11.51-36.43,0-14.79,4.19-26.84,12.58-36.16,8.38-9.31,18.8-13.97,31.24-13.97s22.06,4.02,28.87,12.07c6.81,8.05,10.21,19.22,10.21,33.51v7.98h0ZM301.68,141.15c-.06-8.79-2.18-15.63-6.36-20.51-4.18-4.89-9.98-7.33-17.4-7.33s-13.27,2.57-18.29,7.71c-5.01,5.14-8.11,11.85-9.28,20.14h51.33ZM405.09,193.41c-7.3,4.39-15.97,6.59-25.99,6.59-13.55,0-24.49-4.41-32.81-13.23-8.32-8.82-12.49-20.25-12.49-34.3,0-15.65,4.49-28.23,13.46-37.73,8.97-9.5,20.95-14.25,35.92-14.25,8.35,0,15.72,1.55,22.09,4.64v15.59c-7.05-4.95-14.61-7.43-22.65-7.43-9.71,0-17.68,3.48-23.9,10.44-6.22,6.96-9.33,16.11-9.33,27.43s2.92,19.93,8.77,26.36c5.85,6.44,13.69,9.65,23.53,9.65,8.29,0,16.09-2.75,23.39-8.26v14.48h0ZM472.2,196.84c-3.59,1.98-8.32,2.97-14.2,2.97-16.65,0-24.97-9.28-24.97-27.85v-56.25h-16.34v-13h16.34v-23.21l15.22-4.92v28.13h23.95v13h-23.95v53.56c0,6.37,1.08,10.92,3.25,13.64,2.17,2.73,5.75,4.08,10.77,4.08,3.84,0,7.15-1.05,9.93-3.16v12.99ZM586.47,197.77h-19.03l-30.63-50.96c-.93-1.55-1.95-3.74-3.06-6.59h-.37c-.62,1.43-1.67,3.62-3.16,6.59l-31.56,50.96h-19.12l44.56-66.93-41.03-66.18h19.12l27.2,46.78c1.75,3,3.33,6.1,4.73,9.28h.37c1.98-4.08,3.71-7.3,5.2-9.65l28.31-46.41h17.91l-41.86,66,42.42,67.11ZM295.67,26.04c-2.58,0-4.77-.91-6.59-2.73-1.82-1.82-2.73-4.02-2.73-6.59s.91-4.77,2.73-6.59c1.82-1.82,4.02-2.73,6.59-2.73s4.76.91,6.58,2.73c1.82,1.82,2.73,4.02,2.73,6.59s-.91,4.77-2.73,6.59c-1.82,1.82-4.01,2.73-6.58,2.73h0ZM295.67,8.49c-2.27,0-4.21.8-5.81,2.41-1.61,1.61-2.41,3.55-2.41,5.82s.8,4.21,2.41,5.81c1.61,1.6,3.55,2.4,5.81,2.4s4.21-.8,5.81-2.4,2.4-3.54,2.4-5.81-.8-4.21-2.4-5.82c-1.6-1.61-3.54-2.41-5.81-2.41ZM300.19,22.54h-2.01l-1.29-2.85c-.65-1.42-1.36-2.14-2.11-2.14h-1.09v4.98h-1.65v-11.85h3.33c1.38,0,2.45.29,3.2.87.75.58,1.12,1.37,1.12,2.36,0,.81-.26,1.5-.79,2.07-.53.57-1.26.96-2.21,1.16v.05c.65.14,1.31.87,1.95,2.19l1.55,3.16ZM293.68,12.11v4.05h1.78c1.63,0,2.45-.68,2.45-2.04,0-.73-.22-1.25-.66-1.55-.44-.31-1.14-.46-2.09-.46h-1.48ZM596.57,84.34c-2.58,0-4.77-.91-6.59-2.73-1.82-1.82-2.73-4.02-2.73-6.59s.91-4.77,2.73-6.59c1.82-1.82,4.02-2.73,6.59-2.73s4.76.91,6.58,2.73c1.82,1.82,2.73,4.02,2.73,6.59s-.91,4.77-2.73,6.59c-1.82,1.82-4.01,2.73-6.58,2.73ZM596.57,66.79c-2.27,0-4.21.8-5.82,2.41-1.61,1.61-2.41,3.55-2.41,5.82s.8,4.21,2.41,5.81,3.55,2.4,5.82,2.4,4.21-.8,5.81-2.4c1.6-1.6,2.4-3.54,2.4-5.81s-.8-4.21-2.4-5.82c-1.6-1.61-3.54-2.41-5.81-2.41ZM601.09,80.85h-2.01l-1.29-2.85c-.65-1.42-1.36-2.14-2.11-2.14h-1.09v4.98h-1.65v-11.85h3.33c1.38,0,2.45.29,3.2.87.75.58,1.12,1.37,1.12,2.36,0,.81-.26,1.5-.79,2.07s-1.26.96-2.2,1.16v.05c.65.14,1.3.87,1.95,2.19l1.55,3.16ZM594.58,70.41v4.05h1.78c1.63,0,2.45-.68,2.45-2.04,0-.73-.22-1.25-.66-1.55-.44-.31-1.14-.46-2.09-.46h-1.48Z"/>
  </g>
</svg>