<svg width="406" height="396" viewBox="0 0 406 396" fill="none" xmlns="http://www.w3.org/2000/svg">
<path d="M135.744 318.062C135.744 319.696 133.862 321.003 131.489 321.003C128.789 321.248 126.907 319.941 126.907 318.062C126.907 316.429 128.789 315.122 131.162 315.122C133.616 314.877 135.744 316.184 135.744 318.062ZM110.297 314.387C109.724 316.02 111.361 317.899 113.815 318.389C115.943 319.206 118.397 318.389 118.888 316.755C119.379 315.122 117.825 313.243 115.37 312.508C113.242 311.936 110.87 312.753 110.297 314.387ZM146.462 312.998C144.09 313.57 142.453 315.122 142.699 317C142.944 318.634 145.071 319.696 147.526 319.124C149.899 318.552 151.535 317 151.29 315.367C151.044 313.815 148.835 312.753 146.462 312.998ZM200.302 0C86.8138 0 0 86.0091 0 199.299C0 289.883 57.1122 367.397 138.689 394.678C149.163 396.557 152.845 390.104 152.845 384.795C152.845 379.731 152.599 351.796 152.599 334.643C152.599 334.643 95.3233 346.895 83.2954 310.303C83.2954 310.303 73.9676 286.534 60.5487 280.408C60.5487 280.408 41.8113 267.584 61.8579 267.829C61.8579 267.829 82.2317 269.463 93.4414 288.902C111.361 320.431 141.389 311.364 153.09 305.974C154.972 292.905 160.29 283.838 166.182 278.447C120.443 273.383 74.2949 266.767 74.2949 188.191C74.2949 165.729 80.5134 154.457 93.605 140.081C91.4776 134.772 84.5227 112.882 95.7324 84.6206C112.833 79.3113 152.19 106.674 152.19 106.674C168.555 102.1 186.146 99.7314 203.575 99.7314C221.003 99.7314 238.595 102.1 254.959 106.674C254.959 106.674 294.316 79.2297 311.417 84.6206C322.626 112.964 315.672 134.772 313.544 140.081C326.636 154.539 334.654 165.811 334.654 188.191C334.654 267.012 286.461 273.302 240.722 278.447C248.25 284.9 254.632 297.152 254.632 316.347C254.632 343.873 254.386 377.934 254.386 384.631C254.386 389.941 258.15 396.393 268.542 394.515C350.364 367.397 405.84 289.883 405.84 199.299C405.84 86.0091 313.79 0 200.302 0ZM79.5315 281.715C78.4678 282.531 78.7133 284.41 80.1043 285.962C81.4135 287.269 83.2954 287.841 84.3591 286.779C85.4228 285.962 85.1773 284.083 83.7863 282.531C82.4772 281.224 80.5952 280.653 79.5315 281.715ZM70.6947 275.098C70.122 276.16 70.9402 277.467 72.5766 278.284C73.8858 279.101 75.5222 278.856 76.095 277.712C76.6678 276.65 75.8495 275.344 74.2131 274.527C72.5766 274.037 71.2675 274.282 70.6947 275.098ZM97.2052 304.177C95.8961 305.238 96.387 307.689 98.2689 309.241C100.151 311.119 102.524 311.364 103.587 310.058C104.651 308.996 104.16 306.545 102.524 304.993C100.724 303.115 98.2689 302.87 97.2052 304.177ZM87.8774 292.17C86.5683 292.986 86.5683 295.11 87.8774 296.989C89.1866 298.867 91.3958 299.684 92.4595 298.867C93.7687 297.806 93.7687 295.682 92.4595 293.803C91.314 291.925 89.1866 291.108 87.8774 292.17Z" fill="white"/>
</svg>
