<?xml version="1.0" encoding="UTF-8"?>
<svg id="Layer_2" data-name="Layer 2" xmlns="http://www.w3.org/2000/svg" viewBox="0 0 910.12 286">
  <defs>
    <style>
      .cls-1 {
        stroke-width: 0px;
      }

      .cls-1, .cls-2 {
        fill: #bb2b8d;
      }

      .cls-2 {
        stroke: #bb2b8d;
        stroke-linecap: round;
        stroke-width: 11.65px;
      }
    </style>
  </defs>
  <g id="Layer_1-2" data-name="Layer 1">
    <g>
      <path class="cls-1" d="M77.03,119.04c2.42-7.5,5.97-14.11,10.74-19.89s10.74-10.36,17.86-13.79,15.38-5.15,24.85-5.15,17.73,1.72,24.85,5.15,13.09,8.01,17.86,13.79,8.39,12.39,10.74,19.89c2.42,7.5,3.62,15.25,3.62,23.32s-1.21,15.89-3.62,23.39c-2.42,7.5-5.97,14.11-10.74,19.89-4.77,5.78-10.74,10.36-17.86,13.73s-15.38,5.08-24.85,5.08-17.73-1.72-24.85-5.08c-7.12-3.37-13.09-7.94-17.86-13.73s-8.39-12.39-10.74-19.89c-2.42-7.5-3.56-15.25-3.56-23.39s1.14-15.83,3.56-23.32h0ZM91.58,160.16c1.59,5.85,4,11.06,7.37,15.7s7.63,8.39,12.84,11.25,11.44,4.26,18.69,4.26,13.47-1.4,18.69-4.26,9.53-6.55,12.84-11.25c3.37-4.64,5.78-9.91,7.37-15.7,1.59-5.85,2.35-11.76,2.35-17.73s-.76-11.88-2.35-17.73-4-11.06-7.37-15.7-7.63-8.39-12.84-11.25-11.5-4.26-18.69-4.26-13.47,1.4-18.69,4.26-9.53,6.55-12.84,11.25c-3.37,4.64-5.78,9.91-7.37,15.7-1.59,5.85-2.35,11.76-2.35,17.73s.76,11.95,2.35,17.73Z"/>
      <path class="cls-1" d="M211.13,126.16v10.23h.25c2.03-4.19,5.28-7.25,9.66-9.15s9.22-2.86,14.49-2.86c5.85,0,10.93,1.08,15.32,3.24,4.32,2.16,7.94,5.02,10.8,8.71s5.02,7.88,6.48,12.65c1.46,4.77,2.22,9.85,2.22,15.19s-.7,10.42-2.1,15.25c-1.4,4.77-3.56,8.96-6.42,12.52s-6.48,6.36-10.8,8.39-9.41,3.05-15.13,3.05c-1.84,0-3.94-.19-6.23-.57s-4.58-1.02-6.8-1.91-4.39-2.1-6.36-3.62-3.69-3.37-5.02-5.66h-.25v39.09h-12.52v-104.55h12.39ZM255.62,153.04c-.95-3.37-2.35-6.36-4.26-9.02-1.91-2.61-4.32-4.7-7.31-6.29s-6.42-2.35-10.42-2.35-7.75.83-10.68,2.48-5.28,3.81-7.18,6.48c-1.84,2.67-3.18,5.72-4,9.15s-1.21,6.86-1.21,10.36c0,3.69.44,7.31,1.33,10.74.89,3.5,2.29,6.48,4.13,9.15,1.91,2.61,4.32,4.77,7.37,6.36s6.67,2.42,10.93,2.42,7.88-.83,10.74-2.48,5.21-3.88,6.93-6.61c1.78-2.73,2.99-5.85,3.81-9.34.76-3.5,1.14-7.12,1.14-10.8.06-3.43-.38-6.86-1.33-10.23h0Z"/>
      <path class="cls-1" d="M334.3,196.96c-5.66,4.26-12.77,6.42-21.42,6.42-6.04,0-11.31-.95-15.76-2.92s-8.2-4.7-11.25-8.2-5.28-7.69-6.8-12.58c-1.53-4.89-2.35-10.17-2.54-15.95,0-5.78.89-11,2.67-15.83,1.78-4.77,4.26-8.9,7.44-12.46,3.18-3.5,6.93-6.23,11.31-8.2,4.32-1.97,9.15-2.92,14.3-2.92,6.74,0,12.33,1.4,16.78,4.19,4.45,2.8,8.01,6.36,10.74,10.61,2.67,4.32,4.58,9.02,5.59,14.05,1.02,5.08,1.46,9.91,1.27,14.49h-56.82c-.13,3.3.32,6.48,1.14,9.41.89,2.99,2.29,5.59,4.26,7.88s4.45,4.13,7.44,5.47c3.05,1.33,6.61,2.03,10.68,2.03,5.28,0,9.6-1.21,12.97-3.69,3.37-2.42,5.59-6.16,6.67-11.12h12.33c-1.65,8.64-5.34,15.06-11,19.32h0ZM331.25,148.4c-1.14-2.61-2.61-4.89-4.51-6.8s-4.13-3.43-6.74-4.51c-2.61-1.14-5.4-1.65-8.58-1.65s-6.1.57-8.71,1.65c-2.61,1.14-4.77,2.67-6.67,4.58-1.84,1.97-3.3,4.19-4.39,6.8-1.08,2.61-1.72,5.34-1.91,8.26h43.41c-.13-2.92-.76-5.66-1.91-8.33h0Z"/>
      <path class="cls-1" d="M366.65,126.16v12.01h.25c5.21-9.15,13.41-13.79,24.72-13.79,5.02,0,9.15.7,12.52,2.03,3.3,1.4,6.04,3.24,8.07,5.72,2.03,2.42,3.5,5.34,4.32,8.71s1.27,7.12,1.27,11.19v49.83h-12.52v-51.23c0-4.7-1.4-8.39-4.13-11.12s-6.48-4.13-11.31-4.13c-3.81,0-7.12.57-9.91,1.78-2.8,1.14-5.15,2.86-6.99,4.96-1.84,2.16-3.24,4.64-4.19,7.56-.95,2.86-1.4,6.04-1.4,9.47v42.77h-12.52v-75.76h11.82Z"/>
      <path class="cls-1" d="M504.5,201.09c-5.66,2.42-11.38,3.56-17.16,3.56-9.09,0-17.29-1.59-24.6-4.77-7.25-3.18-13.41-7.56-18.43-13.09-5.02-5.59-8.83-12.08-11.5-19.64-2.67-7.5-4-15.63-4-24.28s1.33-17.16,4-24.79c2.67-7.63,6.48-14.3,11.44-19.96s11.12-10.11,18.37-13.35,15.44-4.83,24.6-4.83c6.1,0,12.01.95,17.73,2.73,5.72,1.84,10.87,4.58,15.51,8.14s8.39,7.94,11.44,13.22c2.99,5.21,4.83,11.25,5.53,17.99h-24.98c-1.53-6.67-4.58-11.63-9.02-15-4.45-3.3-9.85-5.02-16.14-5.02-5.91,0-10.87,1.14-15,3.43s-7.44,5.34-9.98,9.15-4.39,8.2-5.59,13.09c-1.14,4.89-1.78,9.98-1.78,15.19s.57,9.85,1.78,14.62,3.05,8.96,5.59,12.77,5.91,6.8,9.98,9.09c4.13,2.29,9.09,3.43,15,3.43,8.64,0,15.38-2.16,20.08-6.55,4.7-4.39,7.5-10.74,8.26-19h-26.25v-19.58h49.89v64.32h-16.59l-2.67-13.47c-4.64,5.97-9.85,10.17-15.51,12.58h0Z"/>
      <path class="cls-1" d="M581.72,83v96.8h57.96v22.12h-84.08v-118.91h26.12Z"/>
      <path class="cls-1" d="M458.3,216.66c-39.91,24.28-99.72,38.07-166.45,38.07-120.18,0-217.61-50.08-217.61-111.79S171.66,31.14,291.85,31.14c66.99,0,126.98,14.05,166.9,38.51C415.21,28.79,337.1,0,247.74,0,110.9,0,0,64,0,142.94s110.9,143.06,247.68,143.06c88.98,0,166.96-28.66,210.62-69.34Z"/>
      <path class="cls-1" d="M679.28,82.75h88.91v21.99h-62.79v25.49h57.64v20.34h-57.64v29.17h64.13v21.99h-90.25v-118.98Z"/>
      <path class="cls-1" d="M800.04,162.19c0,15.83,12.33,21.99,26.31,21.99,9.15,0,23.13-2.67,23.13-14.81,0-12.84-17.8-15-35.34-19.64-17.67-4.64-35.46-11.5-35.46-33.81,0-24.34,23.01-35.97,44.49-35.97,24.85,0,47.67,10.8,47.67,38.32h-25.3c-.83-14.3-11-17.99-23.52-17.99-8.33,0-17.99,3.5-17.99,13.47,0,9.15,5.66,10.36,35.46,17.99,8.64,2.16,35.34,7.69,35.34,34.64,0,21.8-17.16,38.13-49.45,38.13-26.31,0-50.97-12.97-50.65-42.33h25.3Z"/>
      <path class="cls-2" d="M658.75,49.51v186.6"/>
    </g>
    <g>
      <path class="cls-1" d="M891.05,86.18h-4.64v12.01h-4v-12.01h-4.64v-3.5h13.28v3.5Z"/>
      <path class="cls-1" d="M892.89,82.75h5.91l2.67,10.3h.06l2.67-10.3h5.91v15.51h-3.81v-11.82h-.06l-3.24,11.76h-3.05l-3.24-11.76h-.06v11.76h-3.81v-15.44h.06Z"/>
    </g>
    <path class="cls-1" d="M616.36,93.74c0,1.97-.51,3.88-1.53,5.59s-2.35,3.11-4.07,4.07c-1.72,1.02-3.56,1.46-5.59,1.46s-3.81-.51-5.59-1.46c-1.72-1.02-3.11-2.35-4.07-4.07-1.02-1.72-1.53-3.56-1.53-5.59s.51-3.81,1.53-5.59c1.02-1.72,2.35-3.11,4.07-4.07,1.72-1.02,3.56-1.46,5.59-1.46s3.88.51,5.59,1.46c1.72,1.02,3.11,2.35,4.07,4.07,1.02,1.78,1.53,3.62,1.53,5.59ZM614.2,93.74c0-2.48-.89-4.58-2.61-6.36-1.78-1.78-3.88-2.61-6.36-2.61s-4.58.89-6.36,2.61c-1.78,1.78-2.61,3.88-2.61,6.36s.89,4.58,2.61,6.36c1.78,1.78,3.88,2.61,6.36,2.61s4.58-.89,6.36-2.61c1.72-1.72,2.61-3.88,2.61-6.36ZM600.16,87.83h5.34c1.53,0,2.61.32,3.3.89.7.64,1.02,1.4,1.02,2.48,0,.83-.25,1.46-.76,2.1-.51.57-1.33,1.02-2.42,1.27.44.19.76.38,1.02.57.32.25.64.7.95,1.21,0,.06.64,1.21,1.91,3.43h-3.56c-1.14-2.29-1.91-3.62-2.29-4.07s-.76-.64-1.14-.64c-.06,0-.19,0-.38.06v4.7h-2.99v-12.01ZM603.14,92.85h1.27c.83,0,1.46-.13,1.84-.44.38-.25.51-.64.51-1.08s-.19-.83-.51-1.08-.89-.44-1.72-.44h-1.4v3.05Z"/>
  </g>
</svg>