<?xml version="1.0" encoding="UTF-8"?>
<svg id="Layer_2" data-name="Layer 2" xmlns="http://www.w3.org/2000/svg" viewBox="0 0 213 287">
  <defs>
    <style>
      .cls-1 {
        fill: #f89921;
      }

      .cls-1, .cls-2 {
        stroke-width: 0px;
      }

      .cls-2 {
        fill: #5482a2;
      }
    </style>
  </defs>
  <g id="Layer_1-2" data-name="Layer 1">
    <g>
      <path class="cls-2" d="M155.04,175.39c5.53-3.76,13.2-7.01,13.2-7.01,0,0-21.84,3.92-43.56,5.72-26.58,2.19-55.13,2.63-69.47.73-33.92-4.48,18.62-16.87,18.62-16.87,0,0-20.37-1.34-45.48,10.65-29.63,14.24,73.36,20.74,126.69,6.78Z"/>
      <path class="cls-1" d="M106.85,157.4c-10.72-23.93-46.9-44.96,0-81.73C165.37,29.82,135.35,0,135.35,0c12.13,47.37-42.66,61.72-62.47,91.14-13.49,20.12,6.6,41.7,33.97,66.25Z"/>
      <path class="cls-1" d="M171.52,58.63c.06,0-98.87,24.55-51.64,78.59,13.94,15.92-3.67,30.27-3.67,30.27,0,0,35.38-18.16,19.13-40.86-15.18-21.19-26.81-31.73,36.17-67.99Z"/>
      <path class="cls-2" d="M168.08,210.26c-.28.67-1.13,1.4-1.13,1.46,72.4-18.89,45.77-66.65,11.17-54.54-3.05,1.06-4.63,3.53-4.63,3.53,0,0,1.92-.78,6.21-1.68,17.49-3.64,42.61,23.26-11.63,51.23Z"/>
      <path class="cls-2" d="M194.72,245.18s8.18,6.67-8.97,11.88c-32.67,9.81-135.89,12.78-164.56.39-10.33-4.43,9.03-10.65,15.12-11.94,6.32-1.35,9.99-1.12,9.99-1.12-11.46-8.02-74.1,15.75-31.83,22.54,115.23,18.61,210.15-8.35,180.24-21.75Z"/>
      <path class="cls-2" d="M68.53,221.97c-44.41,12.33,27.03,37.78,83.58,13.73-9.25-3.59-15.91-7.73-15.91-7.73-25.23,4.77-36.91,5.1-59.82,2.52-18.9-2.13-7.84-8.52-7.84-8.52Z"/>
      <path class="cls-2" d="M170,276.46c-44.41,8.3-99.21,7.34-131.66,2.02,0-.05,6.66,5.44,40.86,7.62,52.03,3.31,131.94-1.85,133.8-26.29,0,0-3.61,9.25-43,16.65Z"/>
      <path class="cls-2" d="M145.4,197.87c-33.41,6.39-52.76,6.22-77.2,3.7-18.91-1.96-6.55-11.04-6.55-11.04-48.98,16.14,27.2,34.42,95.65,14.52-7.28-2.52-11.91-7.17-11.91-7.17Z"/>
    </g>
  </g>
</svg>