<?xml version="1.0" encoding="UTF-8"?>
<svg id="Layer_2" data-name="Layer 2" xmlns="http://www.w3.org/2000/svg" viewBox="0 0 245.95 287.01">
  <defs>
    <style>
      .cls-1 {
        fill: #63491c;
      }

      .cls-1, .cls-2, .cls-3, .cls-4, .cls-5, .cls-6 {
        stroke-width: 0px;
      }

      .cls-2 {
        fill: #273339;
      }

      .cls-3 {
        fill: #fdc113;
      }

      .cls-4 {
        fill: #edeff0;
      }

      .cls-5 {
        fill: #465b65;
      }

      .cls-6 {
        fill: #212121;
      }
    </style>
  </defs>
  <g id="Layer_1-2" data-name="Layer 1">
    <polygon class="cls-4" points="88.65 81.3 89.44 99.48 76.8 123.19 57.04 161.93 53.08 194.33 67.31 240.18 99.72 258.36 148.73 258.36 194.58 223.58 215.13 169.04 167.7 111.34 154.26 78.93 88.65 81.3"/>
    <path class="cls-2" d="M200.9,126.35c-12.65-18.18-22.92-29.25-28.46-52.17-5.53-22.92,1.58-16.6-3.16-36.36-2.37-10.28-6.32-17.39-10.28-22.92-4.74-5.53-10.28-8.7-13.44-9.49-7.11-3.95-23.71-10.28-44.27.79-21.34,11.07-18.97,34.78-15.02,83,0,3.16-.79,7.11-2.37,10.28-3.16,7.11-8.7,13.44-13.44,18.97-5.53,7.9-11.07,15.81-15.02,24.5-9.49,18.18-18.18,41.1-15.81,49.8,3.95-.79,53.75,75.09,53.75,76.67,3.16-.79,16.6-.79,28.46-.79,16.6-.79,26.09-1.58,39.52,1.58,0-2.37-.79-4.74-.79-7.11,0-4.74.79-8.7,1.58-14.23.79-3.95,1.58-7.9,2.37-12.65-7.9,7.11-22.13,15.02-35.57,17.39-11.86,2.37-31.62-1.58-41.1-13.44.79,0,2.37,0,3.16-.79,2.37-.79,4.74-1.58,5.53-3.16,2.37-3.95.79-7.9-.79-10.28s-13.44-11.07-18.97-15.81c-5.53-4.74-8.7-7.11-11.86-10.28,0,0-4.74-4.74-6.32-6.32-1.58-1.58-2.37-3.16-3.16-3.95-1.58-3.95-2.37-8.7-1.58-15.02.79-8.7,3.95-15.81,7.9-23.71,1.58-3.16,5.53-9.49,5.53-9.49,0,0-13.44,33.2-6.32,43.48,0,0,.79-10.28,3.95-20.55,2.37-7.11,6.32-17.39,11.07-22.92,4.74-5.53,16.6-26.09,17.39-38.73,0-5.53.79-11.07.79-15.02-3.16-3.16,52.17-11.07,55.33-2.37.79,3.16,11.86,31.62,18.18,46.64,3.16,7.11,7.11,13.44,9.49,21.34,2.37,8.7,3.95,20.55,3.95,32.41,0,2.37,0,6.32-.79,10.28,1.58,0,32.41-33.2-3.95-60.87,0,0,22.13,10.28,22.92,30.83.79,16.6-6.32,30.04-7.9,32.41.79,0,16.6,7.11,17.39,7.11,3.16,0,9.49-2.37,9.49-2.37.79-2.37,3.16-8.7,3.16-11.07,5.53-18.18-7.9-47.43-20.55-65.61Z"/>
    <g>
      <ellipse class="cls-4" cx="100.51" cy="58.38" rx="10.28" ry="15.81"/>
      <ellipse class="cls-4" cx="136.08" cy="57.58" rx="13.44" ry="18.18"/>
    </g>
    <g>
      <ellipse class="cls-6" cx="100.76" cy="60.15" rx="5.53" ry="9.49" transform="translate(-6.75 13.11) rotate(-7.2)"/>
      <ellipse class="cls-6" cx="135.29" cy="60.75" rx="7.9" ry="10.28"/>
    </g>
    <g>
      <path class="cls-3" d="M240.42,234.65c-3.16-1.58-8.7-3.95-13.44-11.07-2.37-3.95-1.58-15.02-5.53-19.76-2.37-3.16-5.53-1.58-6.32-1.58-7.11,1.58-23.71,12.65-34.78,0-1.58-1.58-3.95-3.95-7.9-3.95s-5.53,1.58-7.11,4.74c-1.58,3.16-1.58,5.53-1.58,13.44,0,6.32,0,13.44-.79,18.97-1.58,13.44-3.95,21.34-3.95,29.25,0,8.7,2.37,14.23,5.53,16.6,2.37,2.37,6.32,3.95,15.02,3.95s14.23-3.16,19.76-8.7c3.95-3.95,7.11-5.53,18.18-13.44,8.7-5.53,22.13-12.65,24.5-15.02,1.58-1.58,3.95-2.37,3.95-7.11,0-3.95-3.16-5.53-5.53-6.32Z"/>
      <path class="cls-3" d="M81.54,237.02c-7.9-12.65-8.7-15.02-14.23-22.92-4.74-7.9-15.02-22.92-21.34-22.92-4.74,0-7.11,2.37-10.28,5.53-3.16,3.16-6.32,10.28-11.86,14.23-4.74,3.95-18.18,3.16-21.34,7.9-3.16,4.74,3.16,11.86,3.16,23.71,0,4.74-3.95,7.9-4.74,11.07-.79,3.95-1.58,6.32,0,9.49,3.16,4.74,7.11,6.32,33.99,11.86,14.23,3.16,27.67,11.07,36.36,11.86,8.7.79,23.71,0,23.71-21.34.79-12.65-6.32-15.81-13.44-28.46Z"/>
      <path class="cls-3" d="M96.56,93.95c-4.74-3.16-8.7-6.32-8.7-11.07s3.16-6.32,7.9-10.28c.79-.79,9.49-8.7,18.18-8.7s18.97,5.53,22.92,7.11c7.11,1.58,14.23,3.16,13.44,8.7-.79,7.9-1.58,9.49-9.49,13.44-5.53,1.58-15.81,10.28-22.92,10.28-3.16,0-7.9,0-11.07-.79-2.37-.79-6.32-4.74-10.28-8.7Z"/>
    </g>
    <g>
      <path class="cls-1" d="M94.98,87.62c1.58,1.58,3.95,3.16,6.32,3.95,1.58.79,3.95,1.58,3.95,1.58h7.11c3.95,0,9.49-1.58,15.02-4.74,5.53-2.37,6.32-3.95,10.28-5.53,3.95-2.37,7.9-4.74,6.32-5.53s-3.16,0-8.7,3.16c-4.74,3.16-8.7,4.74-13.44,7.11-2.37.79-5.53,2.37-7.9,2.37h-7.11c-2.37,0-3.95-.79-6.32-1.58-1.58-.79-2.37-1.58-3.16-1.58-1.58-.79-4.74-3.95-6.32-4.74,0,0-1.58,0-.79.79,2.37,2.37,3.16,3.16,4.74,4.74Z"/>
      <path class="cls-1" d="M118.69,70.23c.79,1.58,2.37,1.58,3.16,2.37.79.79,1.58.79,1.58.79.79-.79,0-2.37-.79-2.37,0-1.58-3.95-1.58-3.95-.79Z"/>
      <path class="cls-1" d="M106.04,71.81c0,.79,1.58,1.58,1.58.79.79-.79,1.58-1.58,2.37-1.58,1.58-.79.79-1.58-1.58-1.58-1.58.79-1.58,1.58-2.37,2.37Z"/>
    </g>
    <path class="cls-5" d="M182.72,211.72v2.37c1.58,3.16,5.53,3.95,8.7,3.95,4.74,0,9.49-3.16,11.86-6.32,0-.79.79-1.58,1.58-2.37,1.58-2.37,2.37-3.95,3.16-4.74,0,0-.79-.79-.79-1.58-.79-1.58-3.16-3.16-6.32-3.95-2.37-.79-6.32-1.58-7.9-1.58-7.11-.79-11.07,1.58-13.44,3.95,0,0,.79,0,.79.79,1.58,1.58,2.37,3.16,2.37,5.53.79,1.58,0,2.37,0,3.95Z"/>
  </g>
</svg>