<?xml version="1.0" encoding="UTF-8"?>
<svg id="Layer_2" data-name="Layer 2" xmlns="http://www.w3.org/2000/svg" viewBox="0 0 553.8 286">
  <defs>
    <style>
      .cls-1, .cls-2, .cls-3, .cls-4 {
        stroke-width: 0px;
      }

      .cls-1, .cls-4 {
        fill: #01628b;
      }

      .cls-2, .cls-3 {
        fill: #e38f25;
      }

      .cls-2, .cls-4 {
        fill-rule: evenodd;
      }
    </style>
  </defs>
  <g id="Layer_1-2" data-name="Layer 1">
    <path class="cls-1" d="M0,260.5h18.24v-72.05l28.24,62.81c3.33,7.6,7.89,10.29,16.84,10.29s13.33-2.69,16.67-10.29l28.24-62.81v72.05h18.25v-71.93c0-7.02-2.81-10.41-8.6-12.16-13.86-4.33-23.16-.59-27.37,8.77l-27.72,61.99-26.84-61.99c-4.03-9.36-13.51-13.1-27.37-8.77-5.79,1.75-8.6,5.15-8.6,12.16v71.93ZM141.66,201.85h18.24v39.69c-.17,2.16.69,7.22,10.69,7.37,5.1.08,39.35,0,39.67,0v-47.26h18.28c.08,0-.02,64.45-.02,64.72.1,15.9-19.72,19.35-28.86,19.61h-57.61v-12.28c.1,0,57.57.01,57.71,0,11.74-1.24,10.36-7.08,10.35-9.04v-4.79h-38.78c-18.04-.17-29.53-8.04-29.67-17.1-.01-.84.39-40.55,0-40.95h0Z"/>
    <path class="cls-3" d="M242.6,260.5h52.45c6.14,0,12.1-1.29,16.84-3.51,7.89-3.62,11.75-8.54,11.75-14.97v-13.33c0-5.26-4.39-10.18-12.98-13.45-4.56-1.76-10.18-2.69-15.61-2.69h-22.11c-7.37,0-10.87-2.22-11.75-7.13-.18-.59-.18-1.05-.18-1.64v-8.3c0-.47,0-.94.18-1.52.88-3.74,2.81-4.8,9.3-5.38.53,0,1.23-.12,1.75-.12h52.1v-12.16h-51.23c-7.37,0-11.23.47-14.74,1.52-10.88,3.39-15.61,8.77-15.61,18.13v10.64c0,8.19,9.3,15.2,24.91,16.84,1.76.12,3.51.23,5.26.23h18.95c.7,0,1.41,0,1.93.12,5.79.47,8.24,1.52,10,3.63,1.05,1.05,1.4,2.11,1.4,3.27v10.64c0,1.29-.88,2.93-2.63,4.33-1.58,1.4-4.21,2.34-7.72,2.57-.7,0-1.23.12-1.93.12h-50.35v12.16h0ZM437.47,239.33c0,12.51,9.3,19.53,28.07,20.94,1.75.12,3.51.23,5.26.23h47.54v-12.16h-47.89c-10.7,0-14.74-2.69-14.74-9.12v-62.92h-18.25v63.04h0ZM335.29,239.97v-43.36c0-11.02,7.74-17.7,23.03-19.81,1.63-.23,3.28-.35,4.92-.35h34.63c1.76,0,3.34.12,5.1.35,15.29,2.11,23.03,8.79,23.03,19.81v43.36c0,8.94-3.28,13.72-10.86,16.84l17.97,16.22h-21.18l-14.54-13.12-14.64.93h-19.51c-3.34,0-6.86-.47-10.72-1.52-11.6-3.16-17.23-9.26-17.23-19.34h0ZM354.99,238.91c0,.59.18,1.17.35,1.88,1.05,5.04,5.8,7.85,13.01,7.85h16.58l-15.23-13.75h21.18l13.28,11.99c2.45-1.3,4.06-3.3,4.62-5.86.17-.59.17-1.17.17-1.76v-41.61c0-.47,0-1.06-.17-1.64-1.06-4.69-5.8-7.38-12.83-7.38h-27.6c-8.09,0-13.36,3.52-13.36,9.02v41.25h0Z"/>
    <path class="cls-1" d="M534.39,156.11c-11.21-.3-19.78.74-27.1,3.83-2.08.88-5.4.9-5.74,3.51,1.14,1.2,1.32,2.99,2.23,4.46,1.75,2.83,4.7,6.62,7.34,8.61,2.88,2.17,5.84,4.5,8.93,6.38,5.49,3.35,11.62,5.26,16.9,8.61,3.11,1.98,6.21,4.47,9.25,6.7,1.5,1.1,2.51,2.82,4.46,3.51v-.32c-1.03-1.31-1.29-3.1-2.23-4.47l-4.15-4.15c-4.05-5.38-9.2-10.11-14.67-14.03-4.36-3.13-14.12-7.36-15.94-12.44l-.32-.32c3.09-.35,6.71-1.47,9.57-2.23,4.79-1.29,9.08-.95,14.03-2.23,2.23-.64,4.46-1.28,6.7-1.91v-1.28c-2.5-2.57-4.29-5.97-7.02-8.29-7.14-6.08-14.93-12.16-22.96-17.22-4.45-2.81-9.95-4.64-14.67-7.02-1.59-.8-4.38-1.22-5.42-2.55-2.48-3.16-3.83-7.16-5.74-10.84-4-7.71-7.93-16.13-11.48-24.24-2.42-5.53-4-10.98-7.02-15.94-14.48-23.81-30.07-38.17-54.21-52.3-5.14-3-11.32-4.19-17.86-5.74l-10.52-.64c-2.14-.9-4.37-3.51-6.38-4.78-8-5.05-28.51-16.04-34.44-1.59-3.74,9.12,5.59,18.02,8.93,22.64,2.34,3.24,5.34,6.88,7.02,10.52,1.1,2.4,1.29,4.8,2.23,7.34,2.32,6.25,4.33,13.04,7.33,18.81,1.52,2.92,3.19,6,5.1,8.61,1.17,1.6,3.19,2.31,3.51,4.79-1.97,2.76-2.08,7.03-3.19,10.52-4.98,15.72-3.1,35.25,4.15,46.88,2.22,3.57,7.46,11.23,14.67,8.29,6.3-2.57,4.89-10.52,6.7-17.54.41-1.59.16-2.76.96-3.83v.32l5.74,11.48c4.25,6.84,11.79,13.99,18.18,18.82,3.31,2.5,5.92,6.83,10.21,8.29v-.32h-.32c-.83-1.29-2.13-1.83-3.19-2.87-2.5-2.45-5.27-5.49-7.34-8.29-5.81-7.89-10.95-16.52-15.63-25.51-2.23-4.29-4.18-9.03-6.06-13.39-.73-1.68-.72-4.23-2.23-5.1-2.06,3.2-5.1,5.79-6.7,9.57-2.55,6.04-2.88,13.41-3.83,21.05-.56.2-.31.06-.64.32-4.44-1.07-6-5.64-7.65-9.57-4.18-9.92-4.95-25.89-1.28-37.31.95-2.96,5.25-12.26,3.51-14.99-.83-2.72-3.57-4.3-5.1-6.38-1.9-2.57-3.79-5.96-5.1-8.93-3.42-7.73-5.01-16.42-8.61-24.23-1.72-3.74-4.63-7.52-7.02-10.84-2.64-3.68-5.6-6.39-7.65-10.84-.73-1.58-1.72-4.11-.64-5.74.35-1.1.83-1.56,1.92-1.91,1.85-1.42,7,.47,8.93,1.28,5.11,2.12,9.38,4.15,13.71,7.02,2.08,1.38,4.18,4.05,6.7,4.79h2.87c4.49,1.03,9.52.32,13.71,1.59,7.41,2.25,14.06,5.76,20.09,9.57,18.38,11.61,33.41,28.13,43.69,47.84,1.65,3.17,2.37,6.2,3.83,9.57,2.94,6.79,6.64,13.77,9.57,20.41,2.92,6.62,5.76,13.31,9.89,18.82,2.17,2.9,10.54,4.45,14.35,6.06,2.67,1.13,7.04,2.3,9.57,3.83,4.83,2.91,9.5,6.38,14.03,9.57,2.26,1.59,9.22,5.09,9.57,7.97h0Z"/>
    <path class="cls-4" d="M391.85,34.61c-2.34-.04-3.99.26-5.74.64v.32h.32c1.12,2.29,3.08,3.77,4.46,5.74,1.06,2.23,2.13,4.47,3.19,6.7l.32-.32c1.97-1.39,2.88-3.62,2.87-7.02-.79-.83-.91-1.88-1.59-2.87-.91-1.32-2.68-2.07-3.83-3.19Z"/>
    <path class="cls-2" d="M526.91,247.99c0,8.03,6.35,13.45,13.45,13.45s13.45-5.41,13.45-13.45-6.35-13.44-13.45-13.44-13.45,5.41-13.45,13.44h0ZM550.79,247.99c0,6.09-4.66,10.65-10.43,10.65s-10.43-4.55-10.43-10.65,4.59-10.65,10.43-10.65,10.43,4.55,10.43,10.65ZM543.98,255.66h3.01l-4.41-6.74c2.37-.25,4.16-1.4,4.16-4.2,0-3.12-1.97-4.41-5.77-4.41h-5.99v15.34h2.58v-6.63h2.4l4.02,6.63h0ZM537.56,246.88v-4.41h2.97c1.54,0,3.41.29,3.41,2.08,0,2.15-1.68,2.33-3.62,2.33h-2.76Z"/>
  </g>
</svg>