<?xml version="1.0" encoding="UTF-8"?>
<svg id="Layer_2" data-name="Layer 2" xmlns="http://www.w3.org/2000/svg" viewBox="0 0 256.85 287">
  <defs>
    <style>
      .cls-1 {
        fill: #818181;
      }

      .cls-1, .cls-2, .cls-3 {
        stroke-width: 0px;
      }

      .cls-2 {
        fill: #010101;
      }

      .cls-3 {
        fill: #4d4d4d;
      }
    </style>
  </defs>
  <g id="Layer_1-2" data-name="Layer 1">
    <g>
      <path class="cls-1" d="M115.03.64c-.16.32-10.79,6.62-23.6,13.87-12.89,7.25-36.41,20.65-52.36,29.74-15.95,9.09-30.85,17.54-33.03,18.73-2.26,1.28-4.27,2.71-4.59,3.35-.32.72,16.92,11.08,61.14,36.51,33.91,19.53,62.59,35.88,63.8,36.43,1.93.88,3.06.4,14.18-6.06,6.61-3.83,34.88-20.01,62.67-35.95,36.73-21.13,50.51-29.5,50.51-30.45,0-.8-1.53-2.31-3.46-3.43-1.85-1.12-5.72-3.43-8.62-5.1-2.9-1.59-16.11-9.17-29.4-16.82-13.29-7.57-25.78-14.75-27.79-15.94-2.01-1.28-12-6.94-22.15-12.76-10.23-5.82-19.09-11.08-19.74-11.72-.97-.88-1.37-.88-2.18-.08-.81.8-.97,7.17-.81,26.07l.16,25.03c14.34,8.21,24.65,14.11,32.22,18.42,7.49,4.3,13.77,7.89,13.94,7.97.16,0,.08.8-.16,1.67-.24.88-2.17,2.55-4.27,3.67-2.18,1.12-7.33,3.99-11.52,6.46-4.19,2.39-15.06,8.61-24.17,13.71-12.41,7.09-17,9.33-18.37,8.93-.97-.24-3.46-1.51-5.64-2.79-2.09-1.28-10.47-6.14-18.69-10.84-8.22-4.7-18.61-10.76-23.2-13.47-4.75-2.79-8.3-5.34-8.3-6.06.08-.72,9.26-6.54,22.72-14.35,12.49-7.25,22.96-13.79,23.36-14.51.4-.8.72-12.04.72-24.95,0-14.91-.32-23.68-.81-23.92-.48-.24-.72-.72-.56-1.2.16-.4-.24-.8-.73-.8-.56,0-1.13.32-1.29.64ZM256.49,81.72c0,7.89.16,10.92.24,6.78.16-4.15.16-10.6,0-14.35-.08-3.75-.24-.32-.24,7.57ZM188.9,131.62c-10.63,6.14-22.96,13.15-27.39,15.63-4.43,2.47-8.54,5.02-9.1,5.74-.56.72-.97,1.44-.97,1.67.08.24,1.05-.48,2.26-1.43,1.21-1.04,13.29-8.21,26.83-15.95,13.61-7.81,25.54-14.75,26.58-15.47,1.05-.72,1.77-1.36,1.53-1.36s-9.1,5.02-19.74,11.16ZM105.13,186.55c0,17.3.08,24.31.16,15.55.16-8.77.16-22.96,0-31.49-.08-8.53-.16-1.36-.16,15.94ZM211.86,176.5c.64.64,10.39,6.38,21.51,12.76,11.2,6.38,20.54,11.56,20.78,11.4.16-.08-9.51-5.82-21.59-12.76-12.08-6.94-21.35-12.04-20.7-11.4ZM193.33,197.55c-2.9,1.67-12.65,7.34-21.75,12.52-9.1,5.18-16.84,9.81-17.32,10.2-.48.4.08.32,1.21-.24,1.13-.56,10.88-6.14,21.75-12.36,10.88-6.22,20.46-11.72,21.35-12.2.89-.48,1.29-.96.81-.96s-3.14,1.36-6.04,3.03ZM202.6,195.48c.89.48,10.55,6.06,21.51,12.36,11.04,6.3,20.14,11.32,20.38,11.16.16-.08-1.53-1.28-3.87-2.63-2.34-1.36-11.92-6.78-21.35-12.12-9.34-5.34-17.32-9.73-17.72-9.73-.32,0,.16.48,1.05.96ZM238.44,223.94c-2.9,1.67-15.79,9.01-28.6,16.34-12.81,7.33-35.93,20.65-51.39,29.42-15.39,8.85-27.79,16.18-27.55,16.26.24.16,5.96-2.95,12.65-6.86,6.77-3.83,31.34-17.86,54.62-31.17,23.28-13.23,43.42-24.79,44.71-25.59,1.29-.8,2.09-1.51,1.61-1.44-.48,0-3.14,1.36-6.04,3.03Z"/>
      <path class="cls-2" d="M253.19,68.16c-.32.56-22.23,13.39-48.58,28.46-26.34,15.15-54.37,31.17-62.27,35.64l-14.26,8.05c0,111.85-.16,144.85-.4,145.49-.24.8.08,1.2.97,1.2.81-.08,1.77-.56,2.26-1.12.4-.56,13.29-8.13,28.6-16.9,15.31-8.69,37.78-21.53,49.94-28.46,12.16-7.02,25.13-14.35,28.76-16.42,3.71-1.99,6.69-3.83,6.69-4.07s-9.51-5.82-21.19-12.52c-11.6-6.62-21.67-12.28-22.31-12.52-.73-.32-10.71,4.94-24.17,12.68-12.65,7.26-23.6,13.15-24.41,13.15-1.29,0-1.37-2.07-1.37-33.32,0-18.26.32-33.72.64-34.2.32-.56,3.62-2.71,7.41-4.86,3.79-2.15,16.43-9.33,28.19-16.02,11.76-6.7,21.83-11.96,22.31-11.72.81.4,1.13,6.86,1.21,27.74l.24,27.34c33.75,19.37,43.74,25.03,44.06,25.03.4.08.56-29.97.48-66.73-.08-54.13-.32-66.89-1.13-66.89-.56,0-1.37.48-1.69.96Z"/>
      <path class="cls-3" d="M.48,68.96c-.24.64-.48,30.06-.48,65.37,0,56.36.16,64.26,1.21,64.57.64.24,6.36-2.55,12.65-6.06,6.36-3.59,15.71-8.93,20.78-11.88,5.07-2.95,9.51-5.9,9.83-6.7.4-.72.64-12.83.64-27.03-.08-20.01.16-25.91.97-26.71.81-.8,3.95.64,15.95,7.49,8.22,4.62,20.54,11.64,27.39,15.55,6.85,3.83,13.21,7.81,14.1,8.77,1.53,1.59,1.61,2.95,1.77,33.08.16,19.77-.08,31.97-.56,33-.48.88-1.37,1.6-2.01,1.6s-10.55-5.34-21.99-11.88c-11.36-6.46-21.75-12.36-23.12-13-2.42-1.2-2.5-1.12-23.36,10.84-14.42,8.29-20.94,12.52-20.94,13.39,0,.96,16.76,11,56.79,34.04,31.26,18.02,57.03,32.53,57.44,32.37.32-.24.56-33.24.56-73.34,0-48.07-.24-72.95-.81-72.95-.48,0-28.92-16.18-63.24-35.88C29.72,83.87,1.45,67.76,1.29,67.76s-.56.56-.81,1.2Z"/>
    </g>
  </g>
</svg>