<svg width="230" height="264" viewBox="0 0 230 264" fill="none" xmlns="http://www.w3.org/2000/svg">
<path d="M4.72849 4.79531C5.96201 3.60938 8.06927 2.0625 9.50838 1.34062L12.0782 0.0515625H52.9385C90.9207 0 93.9017 0.103125 94.8782 0.928125C95.495 1.39219 96.2659 2.32031 96.5743 2.99062C96.8827 3.60938 97.1397 4.58906 97.1397 5.15625C97.1397 5.72344 96.8313 6.80625 96.4201 7.63125C96.0603 8.40469 95.2894 9.28125 94.7754 9.53906C94.1587 9.84844 78.8938 10.1578 13.2603 10.5703L10.7933 13.4062V214.5H24.0022C34.6413 214.5 37.8279 214.655 40.0894 215.325C42.248 215.944 43.533 216.769 45.486 218.78C47.0279 220.378 48.3129 222.286 48.724 223.523C49.1352 224.916 49.3408 230.123 49.3408 253.688L216.997 253.43L219.464 250.594V13.4062L216.997 10.5703L176.702 10.3125C151.363 10.1578 136.098 9.84844 135.482 9.53906C134.968 9.28125 134.197 8.40469 133.837 7.63125C133.426 6.80625 133.117 5.72344 133.117 5.15625C133.117 4.58906 133.374 3.60938 133.683 2.99062C133.991 2.32031 134.762 1.39219 135.379 0.928125C136.355 0.103125 139.388 0 217.665 0L220.235 1.08281C221.674 1.75312 223.832 3.19687 225.117 4.38281C226.402 5.56875 227.996 7.78594 230 12.1172V131.742C230 248.892 230 251.419 229.023 253.945C228.458 255.389 227.07 257.555 225.94 258.792C224.758 260.03 222.496 261.68 217.922 264H42.4022L0 221.461L0.256983 12.1172L1.38771 9.53906C2.05587 8.14687 3.54637 5.98125 4.72849 4.79531Z" fill="black"/>
<path d="M110.194 3.76406C110.349 3.09375 111.12 2.01094 111.89 1.28906C112.764 0.4125 113.844 0 115.077 0C116.362 0 117.339 0.360938 118.315 1.28906C119.137 2.01094 119.908 3.24844 120.063 4.02187C120.217 4.79531 120.217 5.92969 120.063 6.6C119.908 7.21875 119.292 8.19844 118.726 8.76562C118.161 9.33281 117.082 9.95156 116.259 10.1063C115.488 10.3125 114.358 10.3125 113.689 10.1063C113.073 9.95156 112.096 9.33281 111.531 8.76562C110.965 8.19844 110.349 7.11563 110.194 6.34219C110.04 5.56875 110.04 4.38281 110.194 3.76406Z" fill="black"/>
<path d="M94.981 9.43594C95.5978 9.075 96.3687 7.94062 96.7285 6.96094L97.2939 5.15625H109.732L110.4 6.96094C110.76 8.09531 111.582 9.075 112.559 9.53906C113.432 9.95156 114.563 10.3125 115.128 10.3125C115.694 10.3125 116.876 9.95156 117.698 9.53906C118.675 9.075 119.497 8.09531 120.525 5.15625H132.86L133.528 6.96094C133.837 7.94062 134.659 9.075 135.327 9.43594C136.201 9.9 145.864 10.1062 216.997 10.5703L219.464 13.4062V250.594L216.997 253.43L49.3408 253.688L49.3408 239.662C49.3408 230.123 49.1352 224.916 48.724 223.523C48.3129 222.286 47.0279 220.378 45.486 218.78C43.533 216.769 42.248 215.944 40.0894 215.325C37.8279 214.655 34.6413 214.5 10.7933 214.5V13.4062L13.2603 10.5703L53.5553 10.3125C84.3933 10.1062 94.0559 9.9 94.981 9.43594Z" fill="white"/>
<path d="M49.5975 24.1313C51.2936 23.2032 54.0691 22.0688 55.7651 21.5532C58.1294 20.8313 60.1339 20.6766 64.2456 20.8313C68.0489 20.986 70.5674 21.3469 72.726 22.1204C74.4221 22.7391 77.4031 24.3376 79.3562 25.6782C81.3093 27.0188 83.9305 29.3907 85.2154 30.9376C86.4489 32.4844 88.0422 34.8048 88.659 36.0938C89.3271 37.3829 90.2523 39.8063 90.7663 41.5079C91.3316 43.5188 91.64 46.2516 91.64 49.2423C91.5886 52.8516 91.1774 55.4298 89.7897 60.8438C88.7618 64.6594 87.7853 68.9907 87.5797 70.3829C87.3741 71.8266 86.7573 74.2501 86.2433 75.7969C85.678 77.3438 84.6501 79.6126 82.4914 82.861L88.916 85.0266C93.0277 86.3673 96.2143 87.811 97.7562 88.9454C99.1439 89.9251 101.046 91.8329 102.022 93.2251C102.999 94.5657 104.284 97.1438 104.849 99.0001C105.723 101.836 105.877 103.744 105.877 120.141L102.896 123.492L64.6568 123.595C40.4489 123.699 25.7495 123.544 24.5674 123.234C23.488 122.925 22.2545 122.203 21.8434 121.584C21.1752 120.605 21.0724 118.594 21.3294 99.2579L22.9227 96.1641C23.8478 94.4626 25.6981 91.9876 27.0344 90.6985C28.4221 89.4094 30.478 87.8626 31.6087 87.2954C32.7394 86.7282 36.0288 85.5423 44.2009 83.0157L42.7104 80.8501C41.8367 79.6126 40.7573 77.3438 40.192 75.7969C39.6266 74.2501 39.0098 71.6719 38.8042 70.1251C38.5987 68.5782 37.6221 64.2985 36.697 60.586C35.3093 55.3266 34.9495 52.8516 34.9495 49.1391C34.9495 45.4266 35.2579 43.4157 36.2344 40.3735C36.9026 38.1563 38.3417 35.0626 39.421 33.5157C40.4489 31.9688 42.5048 29.5969 43.9439 28.2048C45.3316 26.8641 47.9015 25.0079 49.5975 24.1313Z" fill="black"/>
<path d="M133.991 31.8141C135.224 31.0407 137.897 29.8548 139.953 29.1329H139.901C142.574 28.2563 144.784 27.8438 147.508 27.8438C149.615 27.8438 152.751 28.2048 154.447 28.6173C156.143 29.0813 158.661 30.061 160.1 30.886C161.848 31.8657 162.979 32.8969 163.544 34.186C164.058 35.2173 164.366 36.6094 164.212 37.2798C164.058 37.8985 163.338 39.0329 162.619 39.8579C161.642 40.8376 160.717 41.2501 159.535 41.2501C158.558 41.2501 156.554 40.6313 155.063 39.9094C153.316 38.9813 151.26 38.4141 149.05 38.2594C146.634 38.1048 144.938 38.2594 142.882 38.9298C140.775 39.6516 139.285 40.6313 137.177 42.7454C135.07 44.8594 134.094 46.3548 133.374 48.4688C132.706 50.4798 132.552 52.2329 132.706 54.6563C132.86 56.6157 133.425 58.936 134.094 60.2251C134.659 61.411 135.944 63.2157 136.818 64.2469C137.743 65.2782 139.799 66.7219 141.341 67.4438C143.602 68.5266 144.887 68.836 147.765 68.7844C150.232 68.7844 151.928 68.4751 153.162 67.8563C154.138 67.2891 155.526 66.4641 156.246 65.8969C156.965 65.3813 158.301 64.9173 159.175 64.9688C160.203 64.9688 161.437 65.4844 162.259 66.1548C163.081 66.8251 163.852 68.011 164.058 68.7329C164.315 69.6094 164.212 70.7954 163.801 71.8266C163.441 72.7032 162.31 74.0954 161.334 74.8688C160.357 75.6423 158.558 76.7251 157.274 77.2923C155.989 77.8594 153.367 78.5813 151.363 78.9423C148.639 79.4063 146.891 79.4063 144.167 78.9423C142.163 78.6329 138.874 77.5501 136.715 76.5188C133.991 75.2298 131.935 73.6829 129.776 71.4657C128.08 69.7641 126.076 67.186 125.305 65.7423C124.534 64.3501 123.557 61.7719 123.146 60.0704C122.684 58.3688 122.324 55.3266 122.324 53.3673C122.324 51.4079 122.632 48.6235 123.043 47.1798C123.403 45.7876 124.38 43.2094 125.202 41.5594C126.024 39.9094 127.823 37.3313 129.262 35.836C130.65 34.3923 132.809 32.536 133.991 31.8141Z" fill="black"/>
<path d="M170.225 32.5876C170.225 31.4016 170.739 30.3704 171.716 29.3391C172.693 28.3079 173.669 27.8438 174.748 27.8438C175.622 27.8438 176.856 28.1016 177.472 28.3594C178.141 28.6688 179.014 29.4938 179.425 30.2673C179.837 30.9891 182.304 37.6407 184.822 45.0141C187.341 52.3876 189.653 58.5235 189.962 58.6266C190.27 58.7298 192.634 52.2844 195.204 44.3438C199.265 32.0719 200.19 29.7516 201.372 28.8751C202.194 28.2563 203.582 27.7923 204.456 27.8438C205.484 27.8438 206.717 28.3594 207.539 29.0298C208.362 29.7001 209.133 30.9376 209.338 31.7626C209.595 32.8969 208.053 38.1563 202.503 55.0688C196.284 73.9923 195.153 76.9829 193.919 77.8594C193.148 78.4782 191.812 79.0454 190.99 79.2001C190.065 79.4063 188.831 79.2001 187.906 78.736C187.084 78.3235 185.953 77.5501 185.49 77.0344C185.028 76.4673 181.379 66.6704 177.421 55.1719C173.463 43.6735 170.225 33.5157 170.225 32.5876Z" fill="black"/>
<path d="M127.206 97.6594C129.262 95.6485 131.164 94.2563 132.655 93.6891C134.659 93.0188 138.925 92.8641 164.52 92.8641C190.938 92.8126 194.33 92.9157 196.643 93.6891C198.442 94.3079 200.138 95.4423 202.348 97.6594C204.713 100.031 205.689 101.475 206.409 103.641C207.025 105.652 207.231 107.559 207.128 110.086C206.974 112.355 206.511 114.572 205.792 116.016C205.175 117.305 203.736 119.316 202.605 120.553C201.423 121.739 199.573 123.183 198.442 123.75C197.312 124.317 194.947 124.988 193.148 125.297C191.349 125.606 178.912 125.813 164.777 125.813C150.335 125.813 138.257 125.606 136.509 125.297C134.813 124.988 132.5 124.317 131.37 123.802C130.239 123.234 128.337 121.791 127.104 120.553C125.87 119.316 124.38 117.305 123.763 116.016C123.095 114.675 122.581 112.303 122.427 110.344C122.324 108.024 122.529 106.013 123.198 103.899C123.917 101.424 124.739 100.186 127.206 97.6594Z" fill="black"/>
<path d="M21.0724 141.075C21.021 139.27 21.2266 138.6 22.4087 137.466L23.8478 136.125H102.844L104.386 137.672C105.517 138.806 105.928 139.683 105.928 141.024C105.928 142.313 105.466 143.344 102.947 146.18L65.4791 146.334C44.9204 146.438 27.0344 146.334 25.7495 146.128C24.3104 145.922 22.9741 145.303 22.2545 144.581C21.4836 143.705 21.1238 142.674 21.0724 141.075Z" fill="black"/>
<path d="M127.206 143.034C129.262 140.972 131.113 139.58 132.655 139.064C134.659 138.342 138.925 138.239 164.52 138.188C190.938 138.188 194.33 138.239 196.643 139.013C198.442 139.631 200.087 140.817 202.348 143.034C204.713 145.406 205.689 146.85 206.357 149.016C207.025 150.975 207.231 152.883 207.077 155.461C206.974 157.73 206.46 159.895 205.792 161.391C205.175 162.628 203.736 164.691 202.554 165.877C201.423 167.114 199.573 168.558 198.442 169.125C197.312 169.692 194.947 170.363 193.148 170.672C191.349 170.93 178.912 171.136 164.777 171.188C150.335 171.188 138.257 170.93 136.509 170.62C134.813 170.363 132.5 169.692 131.37 169.125C130.239 168.609 128.286 167.166 127.104 165.928C125.87 164.691 124.38 162.628 123.763 161.391C123.095 159.998 122.581 157.678 122.427 155.719C122.272 153.398 122.529 151.388 123.146 149.274C123.917 146.747 124.688 145.561 127.206 143.034Z" fill="black"/>
<path d="M21.021 163.763C20.9696 161.906 21.2266 161.288 22.4087 160.153L23.7964 158.813H102.844L104.386 160.359C105.517 161.494 105.928 162.37 105.928 163.711C105.928 164.948 105.466 165.98 102.896 168.867L65.4791 169.022C44.8691 169.074 26.983 169.022 25.7495 168.816C24.3104 168.609 22.9741 167.991 22.2545 167.217C21.4836 166.392 21.0724 165.309 21.021 163.763Z" fill="black"/>
<path d="M21.0724 186.45C21.021 184.594 21.278 183.923 22.4087 182.841L23.8478 181.449H102.844L104.386 182.995C105.517 184.13 105.928 185.058 105.928 186.347C105.928 187.636 105.517 188.667 102.947 191.503L65.5305 191.658C44.9204 191.761 27.0344 191.658 25.7495 191.452C24.3618 191.245 23.0255 190.627 22.3059 189.905C21.4836 189.08 21.1238 187.997 21.0724 186.45Z" fill="black"/>
<path d="M127.258 188.409C129.262 186.347 131.164 185.006 132.655 184.439C134.659 183.769 138.976 183.614 164.52 183.614C190.938 183.563 194.33 183.614 196.643 184.439C198.494 185.006 200.138 186.192 202.348 188.409C204.713 190.781 205.689 192.225 206.409 194.391C207.025 196.402 207.282 198.309 207.128 200.836C206.974 203.105 206.511 205.322 205.792 206.766C205.175 208.055 203.736 210.066 202.605 211.252C201.423 212.489 199.573 213.933 198.442 214.5C197.312 215.067 194.947 215.738 193.2 216.047C191.401 216.305 178.963 216.563 164.777 216.563C150.335 216.563 138.308 216.356 136.509 216.047C134.813 215.738 132.5 215.067 131.37 214.552C130.239 213.984 128.337 212.541 127.104 211.303C125.87 210.066 124.38 208.055 123.763 206.766C123.146 205.374 122.581 203.053 122.478 201.094C122.324 198.774 122.529 196.763 123.198 194.649C123.968 192.173 124.739 190.936 127.258 188.409Z" fill="black"/>
<path d="M69.1283 208.158C69.2825 207.384 70.002 206.199 70.7216 205.477L71.9551 204.188H102.844L104.386 205.734C105.517 206.869 105.928 207.745 105.928 209.086C105.928 210.324 105.466 211.406 102.947 214.242L88.916 214.397C78.3283 214.5 74.3193 214.397 72.7774 213.881C71.3383 213.417 70.4646 212.695 69.745 211.406C69.094 210.203 68.8884 209.12 69.1283 208.158Z" fill="black"/>
<path d="M69.1283 230.845C69.3339 230.072 70.0534 228.886 70.7216 228.164L72.0065 226.875H102.896L104.438 228.422C105.568 229.556 105.98 230.433 105.98 231.773C105.98 233.011 105.517 234.094 102.947 236.93L88.916 237.084C78.3797 237.188 74.3707 237.084 72.8288 236.569C71.3383 236.105 70.4646 235.383 69.7964 234.094C69.1454 232.891 68.9227 231.808 69.1283 230.845Z" fill="black"/>
<path d="M28.8336 235.898C23.18 230.227 18.6571 225.431 18.8113 225.225V225.173C18.9655 224.967 23.0258 224.812 27.9085 224.812C34.9498 224.812 37.0057 224.967 37.9308 225.586C39.0616 226.359 39.0616 226.566 39.0616 246.211L28.8336 235.898Z" fill="#FFCD69"/>
<path d="M132.655 109.003C132.706 107.044 133.015 106.322 134.402 104.878L136.099 103.125H193.252L195.05 104.93C196.592 106.477 196.849 107.095 196.849 109.055C196.849 110.756 196.541 111.787 195.564 112.922C194.845 113.798 193.406 114.675 192.378 114.984C191.196 115.294 180.145 115.5 164.726 115.5C149.307 115.5 138.257 115.294 137.126 114.984C136.047 114.675 134.608 113.798 133.888 112.922C132.912 111.736 132.604 110.808 132.655 109.003Z" fill="#FF7D97"/>
<path d="M132.655 199.753C132.706 197.794 133.015 197.072 134.402 195.628L136.099 193.875H193.252L195.05 195.68C196.592 197.227 196.849 197.845 196.849 199.805C196.849 201.506 196.541 202.537 195.564 203.672C194.845 204.548 193.406 205.425 192.378 205.734C191.196 206.044 180.145 206.25 164.726 206.25C149.307 206.25 138.257 206.044 137.126 205.734C136.047 205.425 134.608 204.548 133.888 203.672C132.912 202.486 132.604 201.558 132.655 199.753Z" fill="#00CCF2"/>
<path d="M64.2459 58.7811C66.9185 57.9046 70.1565 56.6671 71.4414 55.9968C72.7263 55.3264 73.8571 54.7593 74.0112 54.7077C74.1654 54.6561 75.0392 56.0999 76.0157 57.853C77.7118 61.0499 77.7632 61.2046 77.5062 65.9999C77.352 69.4546 76.9922 71.5686 76.2213 73.2186C75.6559 74.5077 74.2682 76.4155 73.1889 77.4983C72.0582 78.5811 70.5163 79.7671 69.6425 80.1796C68.7688 80.5921 66.9699 81.1077 65.5308 81.3655C63.9889 81.6749 62.0358 81.6749 60.6481 81.3655C59.3632 81.1077 57.6671 80.5921 56.7934 80.1796C55.9196 79.7671 54.3777 78.5811 53.247 77.4983C52.1677 76.4155 50.78 74.5077 50.2146 73.2186C49.4436 71.5686 49.0839 69.5577 48.9811 66.4124C48.8783 63.8858 48.9811 61.8749 49.1867 61.8749C49.4436 61.8749 51.8079 61.5139 54.4805 61.153C57.1531 60.7405 61.5733 59.6577 64.2459 58.7811Z" fill="#FFD0C7"/>
<path d="M132.655 154.378C132.706 152.419 133.015 151.697 134.402 150.253L136.099 148.5H193.252L195.05 150.305C196.592 151.852 196.849 152.47 196.849 154.43C196.849 156.131 196.541 157.162 195.564 158.297C194.845 159.173 193.406 160.05 192.378 160.359C191.196 160.669 180.145 160.875 164.726 160.875C149.307 160.875 138.257 160.669 137.126 160.359C136.047 160.05 134.608 159.173 133.888 158.297C132.912 157.111 132.604 156.183 132.655 154.378Z" fill="#89DF8F"/>
<path d="M36.0804 96.6281C37.0056 96.1641 41.3743 94.6687 45.743 93.2766C50.1117 91.9359 53.9151 90.8016 54.2235 90.75C54.5318 90.75 55.5084 90.9047 58.0782 91.5234V95.2359C58.0782 98.8453 58.1296 99.0516 59.8771 100.805C61.162 102.094 62.1385 102.609 63.2693 102.609C64.4 102.609 65.3765 102.094 66.6101 100.805C68.3061 99.1031 68.3575 98.8453 68.3575 91.2656L70.2592 90.9562C71.7497 90.75 74.3709 91.3172 80.9497 93.3281C85.7296 94.7719 90.5095 96.525 91.486 97.1437C92.4626 97.7625 93.7989 99.3094 94.4156 100.598C95.3922 102.506 95.5978 103.692 95.5978 113.438H31.352L31.5061 107.353C31.6089 101.578 31.7117 101.114 33.048 99.3609C33.819 98.3297 35.2067 97.0922 36.0804 96.6281Z" fill="#66E0F7"/>
<path d="M53.9665 33.3608C54.943 32.7421 56.6905 31.9687 57.8212 31.6077C59.0033 31.2468 61.6246 30.989 63.9888 31.0921C67.1754 31.1952 68.7173 31.5562 70.9274 32.5874C72.4693 33.3608 74.7821 34.9593 76.0156 36.1968C77.2492 37.4343 78.9453 39.8062 79.7162 41.5077C80.5385 43.2093 81.2067 45.0655 81.2067 45.6327C81.1553 46.5093 80.8983 46.4062 79.2536 44.7562C77.7117 43.2093 76.9408 42.8483 75.2961 42.7968C73.857 42.7968 72.7263 43.1577 71.4413 44.1374C70.4648 44.8593 68.6145 45.9936 67.3296 46.6124C66.0447 47.2827 63.5263 48.314 61.676 48.8812C59.8257 49.4999 56.2279 50.3249 53.7095 50.789C51.1911 51.2015 48.2101 51.5624 45.229 51.5624V48.4686C45.229 46.664 45.6402 44.2405 46.2056 42.6937C46.771 41.1468 48.3128 38.7233 49.7006 37.1765C51.0369 35.6812 52.9899 33.928 53.9665 33.3608Z" fill="#FFCD69"/>
</svg>
